G04 #@! TF.GenerationSoftware,KiCad,Pcbnew,9.0.2*
G04 #@! TF.CreationDate,2025-06-14T15:29:11+03:00*
G04 #@! TF.ProjectId,glowsei,676c6f77-7365-4692-9e6b-696361645f70,rev?*
G04 #@! TF.SameCoordinates,Original*
G04 #@! TF.FileFunction,Soldermask,Bot*
G04 #@! TF.FilePolarity,Negative*
%FSLAX46Y46*%
G04 Gerber Fmt 4.6, Leading zero omitted, Abs format (unit mm)*
G04 Created by KiCad (PCBNEW 9.0.2) date 2025-06-14 15:29:11*
%MOMM*%
%LPD*%
G01*
G04 APERTURE LIST*
G04 Aperture macros list*
%AMRoundRect*
0 Rectangle with rounded corners*
0 $1 Rounding radius*
0 $2 $3 $4 $5 $6 $7 $8 $9 X,Y pos of 4 corners*
0 Add a 4 corners polygon primitive as box body*
4,1,4,$2,$3,$4,$5,$6,$7,$8,$9,$2,$3,0*
0 Add four circle primitives for the rounded corners*
1,1,$1+$1,$2,$3*
1,1,$1+$1,$4,$5*
1,1,$1+$1,$6,$7*
1,1,$1+$1,$8,$9*
0 Add four rect primitives between the rounded corners*
20,1,$1+$1,$2,$3,$4,$5,0*
20,1,$1+$1,$4,$5,$6,$7,0*
20,1,$1+$1,$6,$7,$8,$9,0*
20,1,$1+$1,$8,$9,$2,$3,0*%
G04 Aperture macros list end*
%ADD10R,1.800000X1.800000*%
%ADD11C,1.800000*%
%ADD12C,2.000000*%
%ADD13C,1.500000*%
%ADD14C,1.600000*%
%ADD15R,1.270000X5.080000*%
%ADD16C,17.800000*%
%ADD17R,1.100000X1.800000*%
%ADD18RoundRect,0.275000X0.275000X0.625000X-0.275000X0.625000X-0.275000X-0.625000X0.275000X-0.625000X0*%
%ADD19R,1.700000X1.700000*%
%ADD20C,1.700000*%
G04 APERTURE END LIST*
D10*
G04 #@! TO.C,D3*
X150725000Y-65500000D03*
D11*
X153265000Y-65500000D03*
G04 #@! TD*
D12*
G04 #@! TO.C,SW1*
X149500000Y-113000000D03*
X156000000Y-113000000D03*
X149500000Y-117500000D03*
X156000000Y-117500000D03*
G04 #@! TD*
D10*
G04 #@! TO.C,D2*
X143500000Y-68000000D03*
D11*
X146040000Y-68000000D03*
G04 #@! TD*
D13*
G04 #@! TO.C,R2*
X151300000Y-109000000D03*
X154700000Y-109000000D03*
G04 #@! TD*
D10*
G04 #@! TO.C,D5*
X163960000Y-73000000D03*
D11*
X166500000Y-73000000D03*
G04 #@! TD*
D10*
G04 #@! TO.C,D1*
X137000000Y-72500000D03*
D11*
X139540000Y-72500000D03*
G04 #@! TD*
D10*
G04 #@! TO.C,D4*
X157500000Y-69500000D03*
D11*
X160040000Y-69500000D03*
G04 #@! TD*
D14*
G04 #@! TO.C,R8*
X171000000Y-90500000D03*
X171000000Y-82880000D03*
G04 #@! TD*
G04 #@! TO.C,R3*
X156650000Y-124250000D03*
X149030000Y-124250000D03*
G04 #@! TD*
G04 #@! TO.C,R4*
X156650000Y-120950000D03*
X149030000Y-120950000D03*
G04 #@! TD*
D15*
G04 #@! TO.C,BT1*
X163685001Y-89000000D03*
X141715001Y-89000000D03*
D16*
X152700001Y-89000000D03*
G04 #@! TD*
D14*
G04 #@! TO.C,R7*
X167500000Y-90500000D03*
X167500000Y-82880000D03*
G04 #@! TD*
G04 #@! TO.C,R6*
X148690000Y-76000000D03*
X156310000Y-76000000D03*
G04 #@! TD*
G04 #@! TO.C,R5*
X138500000Y-89810000D03*
X138500000Y-82190000D03*
G04 #@! TD*
G04 #@! TO.C,R1*
X135000000Y-89810000D03*
X135000000Y-82190000D03*
G04 #@! TD*
D17*
G04 #@! TO.C,Q1*
X144540000Y-117400000D03*
D18*
X143270000Y-115330000D03*
X142000000Y-117400000D03*
G04 #@! TD*
D19*
G04 #@! TO.C,M1*
X161000000Y-114000000D03*
D20*
X161000000Y-116540000D03*
G04 #@! TD*
M02*
