M48
; DRILL file {KiCad 9.0.2} date 2025-06-14T15:29:11+0300
; FORMAT={-:-/ absolute / metric / decimal}
; #@! TF.CreationDate,2025-06-14T15:29:11+03:00
; #@! TF.GenerationSoftware,Kicad,Pcbnew,9.0.2
; #@! TF.FileFunction,Plated,1,2,PTH
FMAT,2
METRIC
; #@! TA.AperFunction,Plated,PTH,ViaDrill
T1C0.300
; #@! TA.AperFunction,Plated,PTH,ComponentDrill
T2C0.750
; #@! TA.AperFunction,Plated,PTH,ComponentDrill
T3C0.800
; #@! TA.AperFunction,Plated,PTH,ComponentDrill
T4C0.900
; #@! TA.AperFunction,Plated,PTH,ComponentDrill
T5C1.000
; #@! TA.AperFunction,Plated,PTH,ComponentDrill
T6C1.100
; #@! TA.AperFunction,Plated,PTH,ViaDrill
T7C5.000
%
G90
G05
T1
X137.5Y-92.5
X150.0Y-72.5
X151.5Y-71.5
X152.5Y-101.5
X156.0Y-73.0
T2
X142.0Y-117.0
X143.27Y-115.73
X144.54Y-117.0
T3
X135.0Y-82.19
X135.0Y-89.81
X138.5Y-82.19
X138.5Y-89.81
X148.69Y-76.0
X149.03Y-120.95
X149.03Y-124.25
X151.3Y-109.0
X154.7Y-109.0
X156.31Y-76.0
X156.65Y-120.95
X156.65Y-124.25
X167.5Y-82.88
X167.5Y-90.5
X171.0Y-82.88
X171.0Y-90.5
T4
X137.0Y-72.5
X139.54Y-72.5
X143.5Y-68.0
X146.04Y-68.0
X150.725Y-65.5
X153.265Y-65.5
X157.5Y-69.5
X160.04Y-69.5
X163.96Y-73.0
X166.5Y-73.0
T5
X161.0Y-114.0
X161.0Y-116.54
T6
X149.5Y-113.0
X149.5Y-117.5
X156.0Y-113.0
X156.0Y-117.5
T7
X150.6Y-59.25
M30
