%TF.GenerationSoftware,KiCad,Pcbnew,9.0.2*%
%TF.CreationDate,2025-06-14T15:29:11+03:00*%
%TF.ProjectId,glowsei,676c6f77-7365-4692-9e6b-696361645f70,rev?*%
%TF.SameCoordinates,Original*%
%TF.FileFunction,Drillmap*%
%TF.FilePolarity,Positive*%
%FSLAX45Y45*%
G04 Gerber Fmt 4.5, Leading zero omitted, Abs format (unit mm)*
G04 Created by KiCad (PCBNEW 9.0.2) date 2025-06-14 15:29:11*
%MOMM*%
%LPD*%
G01*
G04 APERTURE LIST*
%ADD10C,0.050000*%
%ADD11C,0.200000*%
G04 APERTURE END LIST*
D10*
X16840000Y-13630000D02*
X16840000Y-14050000D01*
X17480000Y-9640000D02*
X17050000Y-9640000D01*
X17480000Y-8790000D02*
X17690000Y-8790000D01*
X13910000Y-10060000D02*
X13910000Y-9640000D01*
X13700000Y-9640000D02*
X13700000Y-9850000D01*
X16630000Y-9850000D02*
X16420000Y-9850000D01*
X14740000Y-5440000D02*
X14950000Y-5440000D01*
X13060000Y-9000000D02*
X12850000Y-9000000D01*
X17270000Y-7120000D02*
X17050000Y-7120000D01*
X17050000Y-11950000D02*
X17050000Y-12160000D01*
X13910000Y-9640000D02*
X13700000Y-9640000D01*
X13700000Y-6690000D02*
X13910000Y-6690000D01*
X17690000Y-8790000D02*
X17690000Y-9000000D01*
X17690000Y-9430000D02*
X17480000Y-9430000D01*
X16200000Y-6690000D02*
X16420000Y-6690000D01*
X16840000Y-7330000D02*
X16840000Y-7540000D01*
X16840000Y-9640000D02*
X16630000Y-9640000D01*
X15160000Y-13200000D02*
X15160000Y-13840000D01*
X16630000Y-11530000D02*
X16840000Y-11530000D01*
X12850000Y-9000000D02*
X12850000Y-8790000D01*
X16210000Y-13210000D02*
X16210000Y-12990000D01*
X15590000Y-6480000D02*
X15800000Y-6480000D01*
X13280000Y-8580000D02*
X13280000Y-7960000D01*
X16630000Y-13630000D02*
X16840000Y-13630000D01*
X16630000Y-13410000D02*
X16630000Y-13630000D01*
X15380000Y-5860000D02*
X15590000Y-5860000D01*
X16210000Y-10470000D02*
X16420000Y-10470000D01*
X14110000Y-10470000D02*
X14320000Y-10470000D01*
X16420000Y-10470000D02*
X16420000Y-11110000D01*
X14320000Y-10470000D02*
X14320000Y-10270000D01*
X14100000Y-10060000D02*
X13910000Y-10060000D01*
X13490000Y-7330000D02*
X13280000Y-7330000D01*
X15590000Y-5860000D02*
X15590000Y-6480000D01*
X16840000Y-11950000D02*
X17050000Y-11950000D01*
X15590000Y-14050000D02*
X15590000Y-13840000D01*
X13910000Y-6270000D02*
X14320000Y-6270000D01*
X13060000Y-8580000D02*
X13280000Y-8580000D01*
X15160000Y-13840000D02*
X14950000Y-13840000D01*
X17480000Y-8370000D02*
X17480000Y-8790000D01*
X17050000Y-7120000D02*
X17050000Y-7330000D01*
X16210000Y-10270000D02*
X16210000Y-10470000D01*
X14320000Y-13420000D02*
X14320000Y-12780000D01*
X13060000Y-9430000D02*
X12850000Y-9430000D01*
X13280000Y-7960000D02*
X13490000Y-7960000D01*
X16630000Y-9640000D02*
X16630000Y-9850000D01*
X17050000Y-12160000D02*
X17260000Y-12160000D01*
X13700000Y-9850000D02*
X13490000Y-9850000D01*
X15380000Y-13840000D02*
X15380000Y-13200000D01*
X17260000Y-12370000D02*
X17480000Y-12370000D01*
X13490000Y-12580000D02*
X13070000Y-12580000D01*
X16630000Y-11110000D02*
X16630000Y-11530000D01*
X13070000Y-12370000D02*
X13280000Y-12370000D01*
X13490000Y-7960000D02*
X13490000Y-7330000D01*
X13910000Y-13420000D02*
X14320000Y-13420000D01*
X14950000Y-14050000D02*
X13700000Y-14050000D01*
X16200000Y-6270000D02*
X16200000Y-6690000D01*
X13910000Y-10680000D02*
X14110000Y-10680000D01*
X14740000Y-5860000D02*
X14740000Y-5440000D01*
X16420000Y-6900000D02*
X17270000Y-6900000D01*
X15590000Y-13840000D02*
X15380000Y-13840000D01*
X13060000Y-9220000D02*
X13060000Y-9000000D01*
X17690000Y-9210000D02*
X17690000Y-9430000D01*
X17480000Y-12370000D02*
X17480000Y-12590000D01*
X16840000Y-11530000D02*
X16840000Y-11950000D01*
X15170000Y-5440000D02*
X15380000Y-5440000D01*
X17050000Y-9850000D02*
X16840000Y-9850000D01*
X17480000Y-9430000D02*
X17480000Y-9640000D01*
X17050000Y-7960000D02*
X17270000Y-7960000D01*
X16210000Y-13410000D02*
X16630000Y-13410000D01*
X17050000Y-7330000D02*
X16840000Y-7330000D01*
X17480000Y-9000000D02*
X17480000Y-9210000D01*
X16840000Y-7540000D02*
X17050000Y-7540000D01*
X15380000Y-5440000D02*
X15380000Y-5860000D01*
X13070000Y-7120000D02*
X13070000Y-6900000D01*
X17690000Y-9000000D02*
X17480000Y-9000000D01*
X17050000Y-7540000D02*
X17050000Y-7960000D01*
X13060000Y-8790000D02*
X13060000Y-8580000D01*
X14530000Y-6480000D02*
X14530000Y-5860000D01*
X14950000Y-5230000D02*
X15170000Y-5230000D01*
X14320000Y-12780000D02*
X13490000Y-12780000D01*
X14320000Y-10270000D02*
X14100000Y-10270000D01*
X13700000Y-6900000D02*
X13700000Y-6690000D01*
X17480000Y-9210000D02*
X17690000Y-9210000D01*
X16840000Y-14050000D02*
X15590000Y-14050000D01*
X17270000Y-7960000D02*
X17270000Y-8370000D01*
X17050000Y-12780000D02*
X16420000Y-12780000D01*
X16420000Y-10270000D02*
X16210000Y-10270000D01*
X15380000Y-13200000D02*
X15160000Y-13200000D01*
X14320000Y-6270000D02*
X14320000Y-6480000D01*
X16840000Y-9850000D02*
X16840000Y-9640000D01*
X13700000Y-14050000D02*
X13700000Y-13630000D01*
X13910000Y-6690000D02*
X13910000Y-6270000D01*
X17260000Y-12160000D02*
X17260000Y-12370000D01*
X17270000Y-8370000D02*
X17480000Y-8370000D01*
X14110000Y-10680000D02*
X14110000Y-10470000D01*
X17050000Y-9640000D02*
X17050000Y-9850000D01*
X13700000Y-11320000D02*
X13910000Y-11320000D01*
X16420000Y-9850000D02*
X16420000Y-10270000D01*
X13280000Y-12160000D02*
X13490000Y-12160000D01*
X13490000Y-9640000D02*
X13060000Y-9640000D01*
X13700000Y-13630000D02*
X13910000Y-13630000D01*
X17480000Y-12590000D02*
X17050000Y-12590000D01*
X15170000Y-5230000D02*
X15170000Y-5440000D01*
X13490000Y-11950000D02*
X13700000Y-11950000D01*
X13700000Y-11950000D02*
X13700000Y-11320000D01*
X13490000Y-12160000D02*
X13490000Y-11950000D01*
X14950000Y-13840000D02*
X14950000Y-14050000D01*
X17050000Y-12590000D02*
X17050000Y-12780000D01*
X16210000Y-13210000D02*
X16210000Y-13410000D01*
X16420000Y-6690000D02*
X16420000Y-6900000D01*
X14950000Y-5440000D02*
X14950000Y-5230000D01*
X16420000Y-11110000D02*
X16630000Y-11110000D01*
X13490000Y-12780000D02*
X13490000Y-12580000D01*
X16420000Y-12780000D02*
X16420000Y-12990000D01*
X13280000Y-7330000D02*
X13280000Y-7120000D01*
X13910000Y-13630000D02*
X13910000Y-13420000D01*
X13060000Y-9640000D02*
X13060000Y-9430000D01*
X13070000Y-12580000D02*
X13070000Y-12370000D01*
X13280000Y-7120000D02*
X13070000Y-7120000D01*
X13280000Y-12370000D02*
X13280000Y-12160000D01*
X12850000Y-9220000D02*
X13060000Y-9220000D01*
X13910000Y-11320000D02*
X13910000Y-10680000D01*
X17270000Y-6900000D02*
X17270000Y-7120000D01*
X15800000Y-6480000D02*
X15800000Y-6270000D01*
X12850000Y-8790000D02*
X13060000Y-8790000D01*
X12850000Y-9220000D02*
X12850000Y-9430000D01*
X15800000Y-6270000D02*
X16200000Y-6270000D01*
X14320000Y-6480000D02*
X14530000Y-6480000D01*
X16210000Y-12990000D02*
X16420000Y-12990000D01*
X14100000Y-10270000D02*
X14100000Y-10060000D01*
X13490000Y-9850000D02*
X13490000Y-9640000D01*
X14530000Y-5860000D02*
X14740000Y-5860000D01*
X13070000Y-6900000D02*
X13700000Y-6900000D01*
D11*
X13108277Y-14363984D02*
X13108277Y-14163984D01*
X13108277Y-14163984D02*
X13155896Y-14163984D01*
X13155896Y-14163984D02*
X13184467Y-14173508D01*
X13184467Y-14173508D02*
X13203515Y-14192555D01*
X13203515Y-14192555D02*
X13213039Y-14211603D01*
X13213039Y-14211603D02*
X13222562Y-14249698D01*
X13222562Y-14249698D02*
X13222562Y-14278269D01*
X13222562Y-14278269D02*
X13213039Y-14316365D01*
X13213039Y-14316365D02*
X13203515Y-14335412D01*
X13203515Y-14335412D02*
X13184467Y-14354460D01*
X13184467Y-14354460D02*
X13155896Y-14363984D01*
X13155896Y-14363984D02*
X13108277Y-14363984D01*
X13308277Y-14363984D02*
X13308277Y-14230650D01*
X13308277Y-14268746D02*
X13317801Y-14249698D01*
X13317801Y-14249698D02*
X13327324Y-14240174D01*
X13327324Y-14240174D02*
X13346372Y-14230650D01*
X13346372Y-14230650D02*
X13365420Y-14230650D01*
X13432086Y-14363984D02*
X13432086Y-14230650D01*
X13432086Y-14163984D02*
X13422562Y-14173508D01*
X13422562Y-14173508D02*
X13432086Y-14183031D01*
X13432086Y-14183031D02*
X13441610Y-14173508D01*
X13441610Y-14173508D02*
X13432086Y-14163984D01*
X13432086Y-14163984D02*
X13432086Y-14183031D01*
X13555896Y-14363984D02*
X13536848Y-14354460D01*
X13536848Y-14354460D02*
X13527324Y-14335412D01*
X13527324Y-14335412D02*
X13527324Y-14163984D01*
X13660658Y-14363984D02*
X13641610Y-14354460D01*
X13641610Y-14354460D02*
X13632086Y-14335412D01*
X13632086Y-14335412D02*
X13632086Y-14163984D01*
X13889229Y-14363984D02*
X13889229Y-14163984D01*
X13889229Y-14163984D02*
X13955896Y-14306841D01*
X13955896Y-14306841D02*
X14022562Y-14163984D01*
X14022562Y-14163984D02*
X14022562Y-14363984D01*
X14203515Y-14363984D02*
X14203515Y-14259222D01*
X14203515Y-14259222D02*
X14193991Y-14240174D01*
X14193991Y-14240174D02*
X14174943Y-14230650D01*
X14174943Y-14230650D02*
X14136848Y-14230650D01*
X14136848Y-14230650D02*
X14117801Y-14240174D01*
X14203515Y-14354460D02*
X14184467Y-14363984D01*
X14184467Y-14363984D02*
X14136848Y-14363984D01*
X14136848Y-14363984D02*
X14117801Y-14354460D01*
X14117801Y-14354460D02*
X14108277Y-14335412D01*
X14108277Y-14335412D02*
X14108277Y-14316365D01*
X14108277Y-14316365D02*
X14117801Y-14297317D01*
X14117801Y-14297317D02*
X14136848Y-14287793D01*
X14136848Y-14287793D02*
X14184467Y-14287793D01*
X14184467Y-14287793D02*
X14203515Y-14278269D01*
X14298753Y-14230650D02*
X14298753Y-14430650D01*
X14298753Y-14240174D02*
X14317801Y-14230650D01*
X14317801Y-14230650D02*
X14355896Y-14230650D01*
X14355896Y-14230650D02*
X14374943Y-14240174D01*
X14374943Y-14240174D02*
X14384467Y-14249698D01*
X14384467Y-14249698D02*
X14393991Y-14268746D01*
X14393991Y-14268746D02*
X14393991Y-14325888D01*
X14393991Y-14325888D02*
X14384467Y-14344936D01*
X14384467Y-14344936D02*
X14374943Y-14354460D01*
X14374943Y-14354460D02*
X14355896Y-14363984D01*
X14355896Y-14363984D02*
X14317801Y-14363984D01*
X14317801Y-14363984D02*
X14298753Y-14354460D01*
X14479705Y-14344936D02*
X14489229Y-14354460D01*
X14489229Y-14354460D02*
X14479705Y-14363984D01*
X14479705Y-14363984D02*
X14470182Y-14354460D01*
X14470182Y-14354460D02*
X14479705Y-14344936D01*
X14479705Y-14344936D02*
X14479705Y-14363984D01*
X14479705Y-14240174D02*
X14489229Y-14249698D01*
X14489229Y-14249698D02*
X14479705Y-14259222D01*
X14479705Y-14259222D02*
X14470182Y-14249698D01*
X14470182Y-14249698D02*
X14479705Y-14240174D01*
X14479705Y-14240174D02*
X14479705Y-14259222D01*
M02*
