G04 #@! TF.GenerationSoftware,KiCad,Pcbnew,9.0.2*
G04 #@! TF.CreationDate,2025-06-14T15:29:11+03:00*
G04 #@! TF.ProjectId,glowsei,676c6f77-7365-4692-9e6b-696361645f70,rev?*
G04 #@! TF.SameCoordinates,Original*
G04 #@! TF.FileFunction,Legend,Bot*
G04 #@! TF.FilePolarity,Positive*
%FSLAX46Y46*%
G04 Gerber Fmt 4.6, Leading zero omitted, Abs format (unit mm)*
G04 Created by KiCad (PCBNEW 9.0.2) date 2025-06-14 15:29:11*
%MOMM*%
%LPD*%
G01*
G04 APERTURE LIST*
G04 Aperture macros list*
%AMRoundRect*
0 Rectangle with rounded corners*
0 $1 Rounding radius*
0 $2 $3 $4 $5 $6 $7 $8 $9 X,Y pos of 4 corners*
0 Add a 4 corners polygon primitive as box body*
4,1,4,$2,$3,$4,$5,$6,$7,$8,$9,$2,$3,0*
0 Add four circle primitives for the rounded corners*
1,1,$1+$1,$2,$3*
1,1,$1+$1,$4,$5*
1,1,$1+$1,$6,$7*
1,1,$1+$1,$8,$9*
0 Add four rect primitives between the rounded corners*
20,1,$1+$1,$2,$3,$4,$5,0*
20,1,$1+$1,$4,$5,$6,$7,0*
20,1,$1+$1,$6,$7,$8,$9,0*
20,1,$1+$1,$8,$9,$2,$3,0*%
G04 Aperture macros list end*
%ADD10C,0.150000*%
%ADD11C,0.120000*%
%ADD12R,1.800000X1.800000*%
%ADD13C,1.800000*%
%ADD14C,2.000000*%
%ADD15C,1.500000*%
%ADD16C,1.600000*%
%ADD17R,1.270000X5.080000*%
%ADD18C,17.800000*%
%ADD19R,1.100000X1.800000*%
%ADD20RoundRect,0.275000X0.275000X0.625000X-0.275000X0.625000X-0.275000X-0.625000X0.275000X-0.625000X0*%
%ADD21R,1.700000X1.700000*%
%ADD22C,1.700000*%
G04 APERTURE END LIST*
D10*
X173824819Y-86523333D02*
X173348628Y-86190000D01*
X173824819Y-85951905D02*
X172824819Y-85951905D01*
X172824819Y-85951905D02*
X172824819Y-86332857D01*
X172824819Y-86332857D02*
X172872438Y-86428095D01*
X172872438Y-86428095D02*
X172920057Y-86475714D01*
X172920057Y-86475714D02*
X173015295Y-86523333D01*
X173015295Y-86523333D02*
X173158152Y-86523333D01*
X173158152Y-86523333D02*
X173253390Y-86475714D01*
X173253390Y-86475714D02*
X173301009Y-86428095D01*
X173301009Y-86428095D02*
X173348628Y-86332857D01*
X173348628Y-86332857D02*
X173348628Y-85951905D01*
X173253390Y-87094762D02*
X173205771Y-86999524D01*
X173205771Y-86999524D02*
X173158152Y-86951905D01*
X173158152Y-86951905D02*
X173062914Y-86904286D01*
X173062914Y-86904286D02*
X173015295Y-86904286D01*
X173015295Y-86904286D02*
X172920057Y-86951905D01*
X172920057Y-86951905D02*
X172872438Y-86999524D01*
X172872438Y-86999524D02*
X172824819Y-87094762D01*
X172824819Y-87094762D02*
X172824819Y-87285238D01*
X172824819Y-87285238D02*
X172872438Y-87380476D01*
X172872438Y-87380476D02*
X172920057Y-87428095D01*
X172920057Y-87428095D02*
X173015295Y-87475714D01*
X173015295Y-87475714D02*
X173062914Y-87475714D01*
X173062914Y-87475714D02*
X173158152Y-87428095D01*
X173158152Y-87428095D02*
X173205771Y-87380476D01*
X173205771Y-87380476D02*
X173253390Y-87285238D01*
X173253390Y-87285238D02*
X173253390Y-87094762D01*
X173253390Y-87094762D02*
X173301009Y-86999524D01*
X173301009Y-86999524D02*
X173348628Y-86951905D01*
X173348628Y-86951905D02*
X173443866Y-86904286D01*
X173443866Y-86904286D02*
X173634342Y-86904286D01*
X173634342Y-86904286D02*
X173729580Y-86951905D01*
X173729580Y-86951905D02*
X173777200Y-86999524D01*
X173777200Y-86999524D02*
X173824819Y-87094762D01*
X173824819Y-87094762D02*
X173824819Y-87285238D01*
X173824819Y-87285238D02*
X173777200Y-87380476D01*
X173777200Y-87380476D02*
X173729580Y-87428095D01*
X173729580Y-87428095D02*
X173634342Y-87475714D01*
X173634342Y-87475714D02*
X173443866Y-87475714D01*
X173443866Y-87475714D02*
X173348628Y-87428095D01*
X173348628Y-87428095D02*
X173301009Y-87380476D01*
X173301009Y-87380476D02*
X173253390Y-87285238D01*
X153006666Y-122334819D02*
X153339999Y-121858628D01*
X153578094Y-122334819D02*
X153578094Y-121334819D01*
X153578094Y-121334819D02*
X153197142Y-121334819D01*
X153197142Y-121334819D02*
X153101904Y-121382438D01*
X153101904Y-121382438D02*
X153054285Y-121430057D01*
X153054285Y-121430057D02*
X153006666Y-121525295D01*
X153006666Y-121525295D02*
X153006666Y-121668152D01*
X153006666Y-121668152D02*
X153054285Y-121763390D01*
X153054285Y-121763390D02*
X153101904Y-121811009D01*
X153101904Y-121811009D02*
X153197142Y-121858628D01*
X153197142Y-121858628D02*
X153578094Y-121858628D01*
X152673332Y-121334819D02*
X152054285Y-121334819D01*
X152054285Y-121334819D02*
X152387618Y-121715771D01*
X152387618Y-121715771D02*
X152244761Y-121715771D01*
X152244761Y-121715771D02*
X152149523Y-121763390D01*
X152149523Y-121763390D02*
X152101904Y-121811009D01*
X152101904Y-121811009D02*
X152054285Y-121906247D01*
X152054285Y-121906247D02*
X152054285Y-122144342D01*
X152054285Y-122144342D02*
X152101904Y-122239580D01*
X152101904Y-122239580D02*
X152149523Y-122287200D01*
X152149523Y-122287200D02*
X152244761Y-122334819D01*
X152244761Y-122334819D02*
X152530475Y-122334819D01*
X152530475Y-122334819D02*
X152625713Y-122287200D01*
X152625713Y-122287200D02*
X152673332Y-122239580D01*
X153006666Y-119034819D02*
X153339999Y-118558628D01*
X153578094Y-119034819D02*
X153578094Y-118034819D01*
X153578094Y-118034819D02*
X153197142Y-118034819D01*
X153197142Y-118034819D02*
X153101904Y-118082438D01*
X153101904Y-118082438D02*
X153054285Y-118130057D01*
X153054285Y-118130057D02*
X153006666Y-118225295D01*
X153006666Y-118225295D02*
X153006666Y-118368152D01*
X153006666Y-118368152D02*
X153054285Y-118463390D01*
X153054285Y-118463390D02*
X153101904Y-118511009D01*
X153101904Y-118511009D02*
X153197142Y-118558628D01*
X153197142Y-118558628D02*
X153578094Y-118558628D01*
X152149523Y-118368152D02*
X152149523Y-119034819D01*
X152387618Y-117987200D02*
X152625713Y-118701485D01*
X152625713Y-118701485D02*
X152006666Y-118701485D01*
X153485715Y-77431009D02*
X153342858Y-77478628D01*
X153342858Y-77478628D02*
X153295239Y-77526247D01*
X153295239Y-77526247D02*
X153247620Y-77621485D01*
X153247620Y-77621485D02*
X153247620Y-77764342D01*
X153247620Y-77764342D02*
X153295239Y-77859580D01*
X153295239Y-77859580D02*
X153342858Y-77907200D01*
X153342858Y-77907200D02*
X153438096Y-77954819D01*
X153438096Y-77954819D02*
X153819048Y-77954819D01*
X153819048Y-77954819D02*
X153819048Y-76954819D01*
X153819048Y-76954819D02*
X153485715Y-76954819D01*
X153485715Y-76954819D02*
X153390477Y-77002438D01*
X153390477Y-77002438D02*
X153342858Y-77050057D01*
X153342858Y-77050057D02*
X153295239Y-77145295D01*
X153295239Y-77145295D02*
X153295239Y-77240533D01*
X153295239Y-77240533D02*
X153342858Y-77335771D01*
X153342858Y-77335771D02*
X153390477Y-77383390D01*
X153390477Y-77383390D02*
X153485715Y-77431009D01*
X153485715Y-77431009D02*
X153819048Y-77431009D01*
X152961905Y-76954819D02*
X152390477Y-76954819D01*
X152676191Y-77954819D02*
X152676191Y-76954819D01*
X151533334Y-77954819D02*
X152104762Y-77954819D01*
X151819048Y-77954819D02*
X151819048Y-76954819D01*
X151819048Y-76954819D02*
X151914286Y-77097676D01*
X151914286Y-77097676D02*
X152009524Y-77192914D01*
X152009524Y-77192914D02*
X152104762Y-77240533D01*
X170324819Y-86523333D02*
X169848628Y-86190000D01*
X170324819Y-85951905D02*
X169324819Y-85951905D01*
X169324819Y-85951905D02*
X169324819Y-86332857D01*
X169324819Y-86332857D02*
X169372438Y-86428095D01*
X169372438Y-86428095D02*
X169420057Y-86475714D01*
X169420057Y-86475714D02*
X169515295Y-86523333D01*
X169515295Y-86523333D02*
X169658152Y-86523333D01*
X169658152Y-86523333D02*
X169753390Y-86475714D01*
X169753390Y-86475714D02*
X169801009Y-86428095D01*
X169801009Y-86428095D02*
X169848628Y-86332857D01*
X169848628Y-86332857D02*
X169848628Y-85951905D01*
X169324819Y-86856667D02*
X169324819Y-87523333D01*
X169324819Y-87523333D02*
X170324819Y-87094762D01*
X152666666Y-78824819D02*
X152999999Y-78348628D01*
X153238094Y-78824819D02*
X153238094Y-77824819D01*
X153238094Y-77824819D02*
X152857142Y-77824819D01*
X152857142Y-77824819D02*
X152761904Y-77872438D01*
X152761904Y-77872438D02*
X152714285Y-77920057D01*
X152714285Y-77920057D02*
X152666666Y-78015295D01*
X152666666Y-78015295D02*
X152666666Y-78158152D01*
X152666666Y-78158152D02*
X152714285Y-78253390D01*
X152714285Y-78253390D02*
X152761904Y-78301009D01*
X152761904Y-78301009D02*
X152857142Y-78348628D01*
X152857142Y-78348628D02*
X153238094Y-78348628D01*
X151809523Y-77824819D02*
X151999999Y-77824819D01*
X151999999Y-77824819D02*
X152095237Y-77872438D01*
X152095237Y-77872438D02*
X152142856Y-77920057D01*
X152142856Y-77920057D02*
X152238094Y-78062914D01*
X152238094Y-78062914D02*
X152285713Y-78253390D01*
X152285713Y-78253390D02*
X152285713Y-78634342D01*
X152285713Y-78634342D02*
X152238094Y-78729580D01*
X152238094Y-78729580D02*
X152190475Y-78777200D01*
X152190475Y-78777200D02*
X152095237Y-78824819D01*
X152095237Y-78824819D02*
X151904761Y-78824819D01*
X151904761Y-78824819D02*
X151809523Y-78777200D01*
X151809523Y-78777200D02*
X151761904Y-78729580D01*
X151761904Y-78729580D02*
X151714285Y-78634342D01*
X151714285Y-78634342D02*
X151714285Y-78396247D01*
X151714285Y-78396247D02*
X151761904Y-78301009D01*
X151761904Y-78301009D02*
X151809523Y-78253390D01*
X151809523Y-78253390D02*
X151904761Y-78205771D01*
X151904761Y-78205771D02*
X152095237Y-78205771D01*
X152095237Y-78205771D02*
X152190475Y-78253390D01*
X152190475Y-78253390D02*
X152238094Y-78301009D01*
X152238094Y-78301009D02*
X152285713Y-78396247D01*
X141324819Y-85833333D02*
X140848628Y-85500000D01*
X141324819Y-85261905D02*
X140324819Y-85261905D01*
X140324819Y-85261905D02*
X140324819Y-85642857D01*
X140324819Y-85642857D02*
X140372438Y-85738095D01*
X140372438Y-85738095D02*
X140420057Y-85785714D01*
X140420057Y-85785714D02*
X140515295Y-85833333D01*
X140515295Y-85833333D02*
X140658152Y-85833333D01*
X140658152Y-85833333D02*
X140753390Y-85785714D01*
X140753390Y-85785714D02*
X140801009Y-85738095D01*
X140801009Y-85738095D02*
X140848628Y-85642857D01*
X140848628Y-85642857D02*
X140848628Y-85261905D01*
X140324819Y-86738095D02*
X140324819Y-86261905D01*
X140324819Y-86261905D02*
X140801009Y-86214286D01*
X140801009Y-86214286D02*
X140753390Y-86261905D01*
X140753390Y-86261905D02*
X140705771Y-86357143D01*
X140705771Y-86357143D02*
X140705771Y-86595238D01*
X140705771Y-86595238D02*
X140753390Y-86690476D01*
X140753390Y-86690476D02*
X140801009Y-86738095D01*
X140801009Y-86738095D02*
X140896247Y-86785714D01*
X140896247Y-86785714D02*
X141134342Y-86785714D01*
X141134342Y-86785714D02*
X141229580Y-86738095D01*
X141229580Y-86738095D02*
X141277200Y-86690476D01*
X141277200Y-86690476D02*
X141324819Y-86595238D01*
X141324819Y-86595238D02*
X141324819Y-86357143D01*
X141324819Y-86357143D02*
X141277200Y-86261905D01*
X141277200Y-86261905D02*
X141229580Y-86214286D01*
X137824819Y-85833333D02*
X137348628Y-85500000D01*
X137824819Y-85261905D02*
X136824819Y-85261905D01*
X136824819Y-85261905D02*
X136824819Y-85642857D01*
X136824819Y-85642857D02*
X136872438Y-85738095D01*
X136872438Y-85738095D02*
X136920057Y-85785714D01*
X136920057Y-85785714D02*
X137015295Y-85833333D01*
X137015295Y-85833333D02*
X137158152Y-85833333D01*
X137158152Y-85833333D02*
X137253390Y-85785714D01*
X137253390Y-85785714D02*
X137301009Y-85738095D01*
X137301009Y-85738095D02*
X137348628Y-85642857D01*
X137348628Y-85642857D02*
X137348628Y-85261905D01*
X137824819Y-86785714D02*
X137824819Y-86214286D01*
X137824819Y-86500000D02*
X136824819Y-86500000D01*
X136824819Y-86500000D02*
X136967676Y-86404762D01*
X136967676Y-86404762D02*
X137062914Y-86309524D01*
X137062914Y-86309524D02*
X137110533Y-86214286D01*
X143365238Y-113750057D02*
X143460476Y-113702438D01*
X143460476Y-113702438D02*
X143555714Y-113607200D01*
X143555714Y-113607200D02*
X143698571Y-113464342D01*
X143698571Y-113464342D02*
X143793809Y-113416723D01*
X143793809Y-113416723D02*
X143889047Y-113416723D01*
X143841428Y-113654819D02*
X143936666Y-113607200D01*
X143936666Y-113607200D02*
X144031904Y-113511961D01*
X144031904Y-113511961D02*
X144079523Y-113321485D01*
X144079523Y-113321485D02*
X144079523Y-112988152D01*
X144079523Y-112988152D02*
X144031904Y-112797676D01*
X144031904Y-112797676D02*
X143936666Y-112702438D01*
X143936666Y-112702438D02*
X143841428Y-112654819D01*
X143841428Y-112654819D02*
X143650952Y-112654819D01*
X143650952Y-112654819D02*
X143555714Y-112702438D01*
X143555714Y-112702438D02*
X143460476Y-112797676D01*
X143460476Y-112797676D02*
X143412857Y-112988152D01*
X143412857Y-112988152D02*
X143412857Y-113321485D01*
X143412857Y-113321485D02*
X143460476Y-113511961D01*
X143460476Y-113511961D02*
X143555714Y-113607200D01*
X143555714Y-113607200D02*
X143650952Y-113654819D01*
X143650952Y-113654819D02*
X143841428Y-113654819D01*
X142460476Y-113654819D02*
X143031904Y-113654819D01*
X142746190Y-113654819D02*
X142746190Y-112654819D01*
X142746190Y-112654819D02*
X142841428Y-112797676D01*
X142841428Y-112797676D02*
X142936666Y-112892914D01*
X142936666Y-112892914D02*
X143031904Y-112940533D01*
X161809523Y-112074819D02*
X161809523Y-111074819D01*
X161809523Y-111074819D02*
X161476190Y-111789104D01*
X161476190Y-111789104D02*
X161142857Y-111074819D01*
X161142857Y-111074819D02*
X161142857Y-112074819D01*
X160142857Y-112074819D02*
X160714285Y-112074819D01*
X160428571Y-112074819D02*
X160428571Y-111074819D01*
X160428571Y-111074819D02*
X160523809Y-111217676D01*
X160523809Y-111217676D02*
X160619047Y-111312914D01*
X160619047Y-111312914D02*
X160714285Y-111360533D01*
D11*
G04 #@! TO.C,R8*
X169630000Y-83420000D02*
X169960000Y-83420000D01*
X169630000Y-89960000D02*
X169630000Y-83420000D01*
X169960000Y-89960000D02*
X169630000Y-89960000D01*
X172040000Y-89960000D02*
X172370000Y-89960000D01*
X172370000Y-83420000D02*
X172040000Y-83420000D01*
X172370000Y-89960000D02*
X172370000Y-83420000D01*
G04 #@! TO.C,R3*
X149570000Y-122880000D02*
X149570000Y-123210000D01*
X149570000Y-125620000D02*
X149570000Y-125290000D01*
X156110000Y-122880000D02*
X149570000Y-122880000D01*
X156110000Y-123210000D02*
X156110000Y-122880000D01*
X156110000Y-125290000D02*
X156110000Y-125620000D01*
X156110000Y-125620000D02*
X149570000Y-125620000D01*
G04 #@! TO.C,R4*
X149570000Y-119580000D02*
X149570000Y-119910000D01*
X149570000Y-122320000D02*
X149570000Y-121990000D01*
X156110000Y-119580000D02*
X149570000Y-119580000D01*
X156110000Y-119910000D02*
X156110000Y-119580000D01*
X156110000Y-121990000D02*
X156110000Y-122320000D01*
X156110000Y-122320000D02*
X149570000Y-122320000D01*
G04 #@! TO.C,BT1*
X141920001Y-83540000D02*
X141920001Y-86000000D01*
X141920001Y-92000000D02*
X141920001Y-92630000D01*
X141920001Y-92630000D02*
X143360001Y-96580000D01*
X144000001Y-81460000D02*
X141920001Y-83540000D01*
X144000001Y-81460000D02*
X147500001Y-81460000D01*
X157900001Y-81460000D02*
X161400001Y-81460000D01*
X161400001Y-81460000D02*
X163480001Y-83540000D01*
X163480001Y-83540000D02*
X163480001Y-86000000D01*
X163480001Y-92000000D02*
X163480001Y-92630000D01*
X163480001Y-92630000D02*
X162040001Y-96580000D01*
X146700001Y-97550000D02*
G75*
G02*
X143374758Y-96588169I-1310000J1700000D01*
G01*
X162040001Y-96580000D02*
G75*
G02*
X158703355Y-97566530I-2030000J730001D01*
G01*
G04 #@! TO.C,R7*
X166130000Y-83420000D02*
X166460000Y-83420000D01*
X166130000Y-89960000D02*
X166130000Y-83420000D01*
X166460000Y-89960000D02*
X166130000Y-89960000D01*
X168540000Y-89960000D02*
X168870000Y-89960000D01*
X168870000Y-83420000D02*
X168540000Y-83420000D01*
X168870000Y-89960000D02*
X168870000Y-83420000D01*
G04 #@! TO.C,R6*
X149230000Y-74630000D02*
X155770000Y-74630000D01*
X149230000Y-74960000D02*
X149230000Y-74630000D01*
X149230000Y-77040000D02*
X149230000Y-77370000D01*
X149230000Y-77370000D02*
X155770000Y-77370000D01*
X155770000Y-74630000D02*
X155770000Y-74960000D01*
X155770000Y-77370000D02*
X155770000Y-77040000D01*
G04 #@! TO.C,R5*
X137130000Y-82730000D02*
X137460000Y-82730000D01*
X137130000Y-89270000D02*
X137130000Y-82730000D01*
X137460000Y-89270000D02*
X137130000Y-89270000D01*
X139540000Y-89270000D02*
X139870000Y-89270000D01*
X139870000Y-82730000D02*
X139540000Y-82730000D01*
X139870000Y-89270000D02*
X139870000Y-82730000D01*
G04 #@! TO.C,R1*
X133630000Y-82730000D02*
X133960000Y-82730000D01*
X133630000Y-89270000D02*
X133630000Y-82730000D01*
X133960000Y-89270000D02*
X133630000Y-89270000D01*
X136040000Y-89270000D02*
X136370000Y-89270000D01*
X136370000Y-82730000D02*
X136040000Y-82730000D01*
X136370000Y-89270000D02*
X136370000Y-82730000D01*
G04 #@! TO.C,Q1*
X145070000Y-118850000D02*
X141470000Y-118850000D01*
X141461555Y-118827684D02*
G75*
G02*
X142490000Y-114550000I1808445J1827684D01*
G01*
X144090000Y-114550000D02*
G75*
G02*
X145081453Y-118842156I-820000J-2450000D01*
G01*
G04 #@! TO.C,M1*
X159620000Y-115270000D02*
X159620000Y-117920000D01*
X162380000Y-112620000D02*
X161000000Y-112620000D01*
X162380000Y-114000000D02*
X162380000Y-112620000D01*
X162380000Y-115270000D02*
X159620000Y-115270000D01*
X162380000Y-115270000D02*
X162380000Y-117920000D01*
X162380000Y-117920000D02*
X159620000Y-117920000D01*
G04 #@! TD*
%LPC*%
D12*
G04 #@! TO.C,D3*
X150725000Y-65500000D03*
D13*
X153265000Y-65500000D03*
G04 #@! TD*
D14*
G04 #@! TO.C,SW1*
X149500000Y-113000000D03*
X156000000Y-113000000D03*
X149500000Y-117500000D03*
X156000000Y-117500000D03*
G04 #@! TD*
D12*
G04 #@! TO.C,D2*
X143500000Y-68000000D03*
D13*
X146040000Y-68000000D03*
G04 #@! TD*
D15*
G04 #@! TO.C,R2*
X151300000Y-109000000D03*
X154700000Y-109000000D03*
G04 #@! TD*
D12*
G04 #@! TO.C,D5*
X163960000Y-73000000D03*
D13*
X166500000Y-73000000D03*
G04 #@! TD*
D12*
G04 #@! TO.C,D1*
X137000000Y-72500000D03*
D13*
X139540000Y-72500000D03*
G04 #@! TD*
D12*
G04 #@! TO.C,D4*
X157500000Y-69500000D03*
D13*
X160040000Y-69500000D03*
G04 #@! TD*
D16*
G04 #@! TO.C,R8*
X171000000Y-90500000D03*
X171000000Y-82880000D03*
G04 #@! TD*
G04 #@! TO.C,R3*
X156650000Y-124250000D03*
X149030000Y-124250000D03*
G04 #@! TD*
G04 #@! TO.C,R4*
X156650000Y-120950000D03*
X149030000Y-120950000D03*
G04 #@! TD*
D17*
G04 #@! TO.C,BT1*
X163685001Y-89000000D03*
X141715001Y-89000000D03*
D18*
X152700001Y-89000000D03*
G04 #@! TD*
D16*
G04 #@! TO.C,R7*
X167500000Y-90500000D03*
X167500000Y-82880000D03*
G04 #@! TD*
G04 #@! TO.C,R6*
X148690000Y-76000000D03*
X156310000Y-76000000D03*
G04 #@! TD*
G04 #@! TO.C,R5*
X138500000Y-89810000D03*
X138500000Y-82190000D03*
G04 #@! TD*
G04 #@! TO.C,R1*
X135000000Y-89810000D03*
X135000000Y-82190000D03*
G04 #@! TD*
D19*
G04 #@! TO.C,Q1*
X144540000Y-117400000D03*
D20*
X143270000Y-115330000D03*
X142000000Y-117400000D03*
G04 #@! TD*
D21*
G04 #@! TO.C,M1*
X161000000Y-114000000D03*
D22*
X161000000Y-116540000D03*
G04 #@! TD*
%LPD*%
M02*
