G04 #@! TF.GenerationSoftware,KiCad,Pcbnew,9.0.2*
G04 #@! TF.CreationDate,2025-06-14T15:29:11+03:00*
G04 #@! TF.ProjectId,glowsei,676c6f77-7365-4692-9e6b-696361645f70,rev?*
G04 #@! TF.SameCoordinates,Original*
G04 #@! TF.FileFunction,Copper,L1,Top*
G04 #@! TF.FilePolarity,Positive*
%FSLAX46Y46*%
G04 Gerber Fmt 4.6, Leading zero omitted, Abs format (unit mm)*
G04 Created by KiCad (PCBNEW 9.0.2) date 2025-06-14 15:29:11*
%MOMM*%
%LPD*%
G01*
G04 APERTURE LIST*
G04 Aperture macros list*
%AMRoundRect*
0 Rectangle with rounded corners*
0 $1 Rounding radius*
0 $2 $3 $4 $5 $6 $7 $8 $9 X,Y pos of 4 corners*
0 Add a 4 corners polygon primitive as box body*
4,1,4,$2,$3,$4,$5,$6,$7,$8,$9,$2,$3,0*
0 Add four circle primitives for the rounded corners*
1,1,$1+$1,$2,$3*
1,1,$1+$1,$4,$5*
1,1,$1+$1,$6,$7*
1,1,$1+$1,$8,$9*
0 Add four rect primitives between the rounded corners*
20,1,$1+$1,$2,$3,$4,$5,0*
20,1,$1+$1,$4,$5,$6,$7,0*
20,1,$1+$1,$6,$7,$8,$9,0*
20,1,$1+$1,$8,$9,$2,$3,0*%
G04 Aperture macros list end*
G04 #@! TA.AperFunction,ComponentPad*
%ADD10R,1.800000X1.800000*%
G04 #@! TD*
G04 #@! TA.AperFunction,ComponentPad*
%ADD11C,1.800000*%
G04 #@! TD*
G04 #@! TA.AperFunction,ComponentPad*
%ADD12C,2.000000*%
G04 #@! TD*
G04 #@! TA.AperFunction,ComponentPad*
%ADD13C,1.500000*%
G04 #@! TD*
G04 #@! TA.AperFunction,ComponentPad*
%ADD14C,1.600000*%
G04 #@! TD*
G04 #@! TA.AperFunction,ComponentPad*
%ADD15R,1.100000X1.800000*%
G04 #@! TD*
G04 #@! TA.AperFunction,ComponentPad*
%ADD16RoundRect,0.275000X0.275000X0.625000X-0.275000X0.625000X-0.275000X-0.625000X0.275000X-0.625000X0*%
G04 #@! TD*
G04 #@! TA.AperFunction,ComponentPad*
%ADD17R,1.700000X1.700000*%
G04 #@! TD*
G04 #@! TA.AperFunction,ComponentPad*
%ADD18C,1.700000*%
G04 #@! TD*
G04 #@! TA.AperFunction,ViaPad*
%ADD19C,5.500000*%
G04 #@! TD*
G04 #@! TA.AperFunction,ViaPad*
%ADD20C,0.600000*%
G04 #@! TD*
G04 #@! TA.AperFunction,Conductor*
%ADD21C,0.200000*%
G04 #@! TD*
G04 APERTURE END LIST*
D10*
G04 #@! TO.P,D3,1,K*
G04 #@! TO.N,Net-(D1-K)*
X150725000Y-65500000D03*
D11*
G04 #@! TO.P,D3,2,A*
G04 #@! TO.N,Net-(D3-A)*
X153265000Y-65500000D03*
G04 #@! TD*
D12*
G04 #@! TO.P,SW1,1,1*
G04 #@! TO.N,Net-(D1-K)*
X149500000Y-113000000D03*
X156000000Y-113000000D03*
G04 #@! TO.P,SW1,2,2*
G04 #@! TO.N,Net-(M1-+)*
X149500000Y-117500000D03*
X156000000Y-117500000D03*
G04 #@! TD*
D10*
G04 #@! TO.P,D2,1,K*
G04 #@! TO.N,Net-(D1-K)*
X143500000Y-68000000D03*
D11*
G04 #@! TO.P,D2,2,A*
G04 #@! TO.N,Net-(D2-A)*
X146040000Y-68000000D03*
G04 #@! TD*
D13*
G04 #@! TO.P,R2,1*
G04 #@! TO.N,Net-(Q1-B)*
X151300000Y-109000000D03*
G04 #@! TO.P,R2,2*
G04 #@! TO.N,GND*
X154700000Y-109000000D03*
G04 #@! TD*
D10*
G04 #@! TO.P,D5,1,K*
G04 #@! TO.N,Net-(D1-K)*
X163960000Y-73000000D03*
D11*
G04 #@! TO.P,D5,2,A*
G04 #@! TO.N,Net-(D5-A)*
X166500000Y-73000000D03*
G04 #@! TD*
D10*
G04 #@! TO.P,D1,1,K*
G04 #@! TO.N,Net-(D1-K)*
X137000000Y-72500000D03*
D11*
G04 #@! TO.P,D1,2,A*
G04 #@! TO.N,Net-(D1-A)*
X139540000Y-72500000D03*
G04 #@! TD*
D10*
G04 #@! TO.P,D4,1,K*
G04 #@! TO.N,Net-(D1-K)*
X157500000Y-69500000D03*
D11*
G04 #@! TO.P,D4,2,A*
G04 #@! TO.N,Net-(D4-A)*
X160040000Y-69500000D03*
G04 #@! TD*
D14*
G04 #@! TO.P,R8,1*
G04 #@! TO.N,+3V3*
X171000000Y-90500000D03*
G04 #@! TO.P,R8,2*
G04 #@! TO.N,Net-(D5-A)*
X171000000Y-82880000D03*
G04 #@! TD*
G04 #@! TO.P,R3,1*
G04 #@! TO.N,Net-(Q1-B)*
X156650000Y-124250000D03*
G04 #@! TO.P,R3,2*
G04 #@! TO.N,+3V3*
X149030000Y-124250000D03*
G04 #@! TD*
G04 #@! TO.P,R4,1*
G04 #@! TO.N,Net-(Q1-B)*
X156650000Y-120950000D03*
G04 #@! TO.P,R4,2*
G04 #@! TO.N,+3V3*
X149030000Y-120950000D03*
G04 #@! TD*
G04 #@! TO.P,R7,1*
G04 #@! TO.N,+3V3*
X167500000Y-90500000D03*
G04 #@! TO.P,R7,2*
G04 #@! TO.N,Net-(D4-A)*
X167500000Y-82880000D03*
G04 #@! TD*
G04 #@! TO.P,R6,1*
G04 #@! TO.N,+3V3*
X148690000Y-76000000D03*
G04 #@! TO.P,R6,2*
G04 #@! TO.N,Net-(D3-A)*
X156310000Y-76000000D03*
G04 #@! TD*
G04 #@! TO.P,R5,1*
G04 #@! TO.N,+3V3*
X138500000Y-89810000D03*
G04 #@! TO.P,R5,2*
G04 #@! TO.N,Net-(D2-A)*
X138500000Y-82190000D03*
G04 #@! TD*
G04 #@! TO.P,R1,1*
G04 #@! TO.N,+3V3*
X135000000Y-89810000D03*
G04 #@! TO.P,R1,2*
G04 #@! TO.N,Net-(D1-A)*
X135000000Y-82190000D03*
G04 #@! TD*
D15*
G04 #@! TO.P,Q1,1,C*
G04 #@! TO.N,Net-(D1-K)*
X144540000Y-117400000D03*
D16*
G04 #@! TO.P,Q1,2,B*
G04 #@! TO.N,Net-(Q1-B)*
X143270000Y-115330000D03*
G04 #@! TO.P,Q1,3,E*
G04 #@! TO.N,GND*
X142000000Y-117400000D03*
G04 #@! TD*
D17*
G04 #@! TO.P,M1,1,+*
G04 #@! TO.N,Net-(M1-+)*
X161000000Y-114000000D03*
D18*
G04 #@! TO.P,M1,2,-*
G04 #@! TO.N,GND*
X161000000Y-116540000D03*
G04 #@! TD*
D19*
G04 #@! TO.N,GND*
X150600000Y-59250000D03*
D20*
X151500000Y-71500000D03*
X152500000Y-101500000D03*
X137500000Y-92500000D03*
X156000000Y-73000000D03*
X150000000Y-72500000D03*
G04 #@! TD*
D21*
G04 #@! TO.N,Net-(D1-K)*
X143500000Y-68000000D02*
X141500000Y-68000000D01*
X154725000Y-69500000D02*
X150725000Y-65500000D01*
X156000000Y-113000000D02*
X156000000Y-106367050D01*
X163599000Y-98768050D02*
X163599000Y-73361000D01*
X163960000Y-73000000D02*
X161000000Y-73000000D01*
X141500000Y-68000000D02*
X137000000Y-72500000D01*
X163599000Y-73361000D02*
X163960000Y-73000000D01*
X161000000Y-73000000D02*
X157500000Y-69500000D01*
X156000000Y-106367050D02*
X163599000Y-98768050D01*
X146000000Y-65500000D02*
X143500000Y-68000000D01*
X150725000Y-65500000D02*
X146000000Y-65500000D01*
X157500000Y-69500000D02*
X154725000Y-69500000D01*
G04 #@! TD*
G04 #@! TA.AperFunction,Conductor*
G04 #@! TO.N,GND*
G36*
X149267540Y-66120185D02*
G01*
X149313295Y-66172989D01*
X149324501Y-66224500D01*
X149324501Y-66447876D01*
X149330908Y-66507483D01*
X149381202Y-66642328D01*
X149381206Y-66642335D01*
X149467452Y-66757544D01*
X149467455Y-66757547D01*
X149582664Y-66843793D01*
X149582671Y-66843797D01*
X149717517Y-66894091D01*
X149717516Y-66894091D01*
X149724444Y-66894835D01*
X149777127Y-66900500D01*
X151224902Y-66900499D01*
X151291941Y-66920184D01*
X151312583Y-66936818D01*
X154240139Y-69864374D01*
X154240149Y-69864385D01*
X154244479Y-69868715D01*
X154244480Y-69868716D01*
X154356284Y-69980520D01*
X154443095Y-70030639D01*
X154443097Y-70030641D01*
X154493213Y-70059576D01*
X154493215Y-70059577D01*
X154645942Y-70100500D01*
X154645943Y-70100500D01*
X155975501Y-70100500D01*
X156042540Y-70120185D01*
X156088295Y-70172989D01*
X156099501Y-70224500D01*
X156099501Y-70447876D01*
X156105908Y-70507483D01*
X156156202Y-70642328D01*
X156156206Y-70642335D01*
X156242452Y-70757544D01*
X156242455Y-70757547D01*
X156357664Y-70843793D01*
X156357671Y-70843797D01*
X156492517Y-70894091D01*
X156492516Y-70894091D01*
X156499444Y-70894835D01*
X156552127Y-70900500D01*
X157999902Y-70900499D01*
X158066941Y-70920184D01*
X158087583Y-70936818D01*
X160515139Y-73364374D01*
X160515149Y-73364385D01*
X160519479Y-73368715D01*
X160519480Y-73368716D01*
X160631284Y-73480520D01*
X160631286Y-73480521D01*
X160631290Y-73480524D01*
X160752208Y-73550335D01*
X160768216Y-73559577D01*
X160880019Y-73589534D01*
X160920942Y-73600500D01*
X160920943Y-73600500D01*
X162435501Y-73600500D01*
X162502540Y-73620185D01*
X162548295Y-73672989D01*
X162559501Y-73724500D01*
X162559501Y-73947876D01*
X162565908Y-74007483D01*
X162616202Y-74142328D01*
X162616206Y-74142335D01*
X162702452Y-74257544D01*
X162702455Y-74257547D01*
X162817664Y-74343793D01*
X162817673Y-74343798D01*
X162877239Y-74366014D01*
X162917832Y-74381154D01*
X162973766Y-74423024D01*
X162998184Y-74488488D01*
X162998500Y-74497336D01*
X162998500Y-98467952D01*
X162978815Y-98534991D01*
X162962181Y-98555633D01*
X155519481Y-105998332D01*
X155519479Y-105998335D01*
X155469361Y-106085144D01*
X155469359Y-106085146D01*
X155440425Y-106135259D01*
X155440424Y-106135260D01*
X155440423Y-106135265D01*
X155399499Y-106287993D01*
X155399499Y-106287995D01*
X155399499Y-106456096D01*
X155399500Y-106456109D01*
X155399500Y-107751155D01*
X155379815Y-107818194D01*
X155327011Y-107863949D01*
X155257853Y-107873893D01*
X155219207Y-107861641D01*
X155179836Y-107841581D01*
X154992705Y-107780778D01*
X154798382Y-107750000D01*
X154601618Y-107750000D01*
X154407294Y-107780778D01*
X154220161Y-107841582D01*
X154044863Y-107930899D01*
X154044859Y-107930902D01*
X154009873Y-107956320D01*
X154009872Y-107956320D01*
X154653553Y-108600000D01*
X154647339Y-108600000D01*
X154545606Y-108627259D01*
X154454394Y-108679920D01*
X154379920Y-108754394D01*
X154327259Y-108845606D01*
X154300000Y-108947339D01*
X154300000Y-108953552D01*
X153656320Y-108309872D01*
X153656320Y-108309873D01*
X153630902Y-108344859D01*
X153630899Y-108344863D01*
X153541582Y-108520161D01*
X153480778Y-108707294D01*
X153450000Y-108901617D01*
X153450000Y-109098382D01*
X153480778Y-109292705D01*
X153541581Y-109479835D01*
X153630905Y-109655145D01*
X153656319Y-109690125D01*
X153656320Y-109690125D01*
X154300000Y-109046445D01*
X154300000Y-109052661D01*
X154327259Y-109154394D01*
X154379920Y-109245606D01*
X154454394Y-109320080D01*
X154545606Y-109372741D01*
X154647339Y-109400000D01*
X154653552Y-109400000D01*
X154009873Y-110043677D01*
X154009873Y-110043678D01*
X154044858Y-110069096D01*
X154220164Y-110158418D01*
X154407294Y-110219221D01*
X154601618Y-110250000D01*
X154798382Y-110250000D01*
X154992705Y-110219221D01*
X155179835Y-110158418D01*
X155219205Y-110138359D01*
X155287874Y-110125463D01*
X155352615Y-110151739D01*
X155392872Y-110208846D01*
X155399500Y-110248844D01*
X155399500Y-111545931D01*
X155379815Y-111612970D01*
X155331796Y-111656415D01*
X155213568Y-111716655D01*
X155079896Y-111813774D01*
X155022490Y-111855483D01*
X155022488Y-111855485D01*
X155022487Y-111855485D01*
X154855485Y-112022487D01*
X154855485Y-112022488D01*
X154855483Y-112022490D01*
X154795862Y-112104550D01*
X154716657Y-112213566D01*
X154609433Y-112424003D01*
X154536446Y-112648631D01*
X154499500Y-112881902D01*
X154499500Y-113118097D01*
X154536446Y-113351368D01*
X154609433Y-113575996D01*
X154701895Y-113757461D01*
X154716657Y-113786433D01*
X154855483Y-113977510D01*
X155022490Y-114144517D01*
X155213567Y-114283343D01*
X155312991Y-114334002D01*
X155424003Y-114390566D01*
X155424005Y-114390566D01*
X155424008Y-114390568D01*
X155544412Y-114429689D01*
X155648631Y-114463553D01*
X155881903Y-114500500D01*
X155881908Y-114500500D01*
X156118097Y-114500500D01*
X156351368Y-114463553D01*
X156575992Y-114390568D01*
X156786433Y-114283343D01*
X156977510Y-114144517D01*
X157144517Y-113977510D01*
X157283343Y-113786433D01*
X157390568Y-113575992D01*
X157463553Y-113351368D01*
X157477091Y-113265891D01*
X157500500Y-113118097D01*
X157500500Y-113102135D01*
X159649500Y-113102135D01*
X159649500Y-114897870D01*
X159649501Y-114897876D01*
X159655908Y-114957483D01*
X159706202Y-115092328D01*
X159706206Y-115092335D01*
X159792452Y-115207544D01*
X159792455Y-115207547D01*
X159907664Y-115293793D01*
X159907671Y-115293797D01*
X159952618Y-115310561D01*
X160042517Y-115344091D01*
X160102127Y-115350500D01*
X160112685Y-115350499D01*
X160179723Y-115370179D01*
X160200372Y-115386818D01*
X160870591Y-116057037D01*
X160807007Y-116074075D01*
X160692993Y-116139901D01*
X160599901Y-116232993D01*
X160534075Y-116347007D01*
X160517037Y-116410591D01*
X159884728Y-115778282D01*
X159884727Y-115778282D01*
X159845380Y-115832439D01*
X159748904Y-116021782D01*
X159683242Y-116223869D01*
X159683242Y-116223872D01*
X159650000Y-116433753D01*
X159650000Y-116646246D01*
X159683242Y-116856127D01*
X159683242Y-116856130D01*
X159748904Y-117058217D01*
X159845375Y-117247550D01*
X159884728Y-117301716D01*
X160517036Y-116669407D01*
X160534075Y-116732993D01*
X160599901Y-116847007D01*
X160692993Y-116940099D01*
X160807007Y-117005925D01*
X160870590Y-117022962D01*
X160238282Y-117655269D01*
X160238282Y-117655270D01*
X160292449Y-117694624D01*
X160481782Y-117791095D01*
X160683870Y-117856757D01*
X160893754Y-117890000D01*
X161106246Y-117890000D01*
X161316127Y-117856757D01*
X161316130Y-117856757D01*
X161518217Y-117791095D01*
X161707554Y-117694622D01*
X161761716Y-117655270D01*
X161761717Y-117655270D01*
X161129408Y-117022962D01*
X161192993Y-117005925D01*
X161307007Y-116940099D01*
X161400099Y-116847007D01*
X161465925Y-116732993D01*
X161482962Y-116669408D01*
X162115270Y-117301717D01*
X162115270Y-117301716D01*
X162154622Y-117247554D01*
X162251095Y-117058217D01*
X162316757Y-116856130D01*
X162316757Y-116856127D01*
X162350000Y-116646246D01*
X162350000Y-116433753D01*
X162316757Y-116223872D01*
X162316757Y-116223869D01*
X162251095Y-116021782D01*
X162154624Y-115832449D01*
X162115270Y-115778282D01*
X162115269Y-115778282D01*
X161482962Y-116410590D01*
X161465925Y-116347007D01*
X161400099Y-116232993D01*
X161307007Y-116139901D01*
X161192993Y-116074075D01*
X161129409Y-116057037D01*
X161799627Y-115386818D01*
X161860950Y-115353333D01*
X161887307Y-115350499D01*
X161897872Y-115350499D01*
X161957483Y-115344091D01*
X162092331Y-115293796D01*
X162207546Y-115207546D01*
X162293796Y-115092331D01*
X162344091Y-114957483D01*
X162350500Y-114897873D01*
X162350499Y-113102128D01*
X162344091Y-113042517D01*
X162293796Y-112907669D01*
X162293795Y-112907668D01*
X162293793Y-112907664D01*
X162207547Y-112792455D01*
X162207544Y-112792452D01*
X162092335Y-112706206D01*
X162092328Y-112706202D01*
X161957482Y-112655908D01*
X161957483Y-112655908D01*
X161897883Y-112649501D01*
X161897881Y-112649500D01*
X161897873Y-112649500D01*
X161897864Y-112649500D01*
X160102129Y-112649500D01*
X160102123Y-112649501D01*
X160042516Y-112655908D01*
X159907671Y-112706202D01*
X159907664Y-112706206D01*
X159792455Y-112792452D01*
X159792452Y-112792455D01*
X159706206Y-112907664D01*
X159706202Y-112907671D01*
X159655908Y-113042517D01*
X159649501Y-113102116D01*
X159649501Y-113102123D01*
X159649500Y-113102135D01*
X157500500Y-113102135D01*
X157500500Y-112881902D01*
X157463553Y-112648631D01*
X157390566Y-112424003D01*
X157283342Y-112213566D01*
X157144517Y-112022490D01*
X156977510Y-111855483D01*
X156881971Y-111786070D01*
X156786431Y-111716655D01*
X156668204Y-111656415D01*
X156617409Y-111608441D01*
X156600500Y-111545931D01*
X156600500Y-106667147D01*
X156620185Y-106600108D01*
X156636819Y-106579466D01*
X163487819Y-99728466D01*
X163549142Y-99694981D01*
X163618834Y-99699965D01*
X163674767Y-99741837D01*
X163699184Y-99807301D01*
X163699500Y-99816147D01*
X163699500Y-102075500D01*
X163679815Y-102142539D01*
X163627011Y-102188294D01*
X163575500Y-102199500D01*
X162034108Y-102199500D01*
X161906812Y-102233608D01*
X161792686Y-102299500D01*
X161792683Y-102299502D01*
X161699502Y-102392683D01*
X161699500Y-102392686D01*
X161633608Y-102506812D01*
X161599500Y-102634108D01*
X161599500Y-104765891D01*
X161633608Y-104893187D01*
X161666554Y-104950250D01*
X161699500Y-105007314D01*
X161792686Y-105100500D01*
X161906814Y-105166392D01*
X162034108Y-105200500D01*
X162165892Y-105200500D01*
X163575500Y-105200500D01*
X163642539Y-105220185D01*
X163688294Y-105272989D01*
X163699500Y-105324500D01*
X163699500Y-111165891D01*
X163733608Y-111293187D01*
X163766554Y-111350250D01*
X163799500Y-111407314D01*
X163892686Y-111500500D01*
X164006814Y-111566392D01*
X164134108Y-111600500D01*
X165675500Y-111600500D01*
X165742539Y-111620185D01*
X165788294Y-111672989D01*
X165799500Y-111724500D01*
X165799500Y-115365891D01*
X165833608Y-115493187D01*
X165866554Y-115550250D01*
X165899500Y-115607314D01*
X165992686Y-115700500D01*
X166106814Y-115766392D01*
X166234108Y-115800500D01*
X166365892Y-115800500D01*
X167775500Y-115800500D01*
X167842539Y-115820185D01*
X167888294Y-115872989D01*
X167899500Y-115924500D01*
X167899500Y-119565891D01*
X167933608Y-119693187D01*
X167963396Y-119744780D01*
X167999500Y-119807314D01*
X168092686Y-119900500D01*
X168206814Y-119966392D01*
X168334108Y-120000500D01*
X168465892Y-120000500D01*
X169875500Y-120000500D01*
X169942539Y-120020185D01*
X169988294Y-120072989D01*
X169999500Y-120124500D01*
X169999500Y-121665891D01*
X170033608Y-121793187D01*
X170035936Y-121797219D01*
X170099500Y-121907314D01*
X170192686Y-122000500D01*
X170306814Y-122066392D01*
X170434108Y-122100500D01*
X171975500Y-122100500D01*
X172042539Y-122120185D01*
X172088294Y-122172989D01*
X172099500Y-122224500D01*
X172099500Y-123765891D01*
X172133608Y-123893187D01*
X172163791Y-123945465D01*
X172199500Y-124007314D01*
X172292686Y-124100500D01*
X172406814Y-124166392D01*
X172534108Y-124200500D01*
X172665892Y-124200500D01*
X174175500Y-124200500D01*
X174242539Y-124220185D01*
X174288294Y-124272989D01*
X174299500Y-124324500D01*
X174299500Y-125275500D01*
X174279815Y-125342539D01*
X174227011Y-125388294D01*
X174175500Y-125399500D01*
X170434108Y-125399500D01*
X170306812Y-125433608D01*
X170192686Y-125499500D01*
X170192683Y-125499502D01*
X170099502Y-125592683D01*
X170099500Y-125592686D01*
X170033608Y-125706812D01*
X169999500Y-125834108D01*
X169999500Y-127175500D01*
X169979815Y-127242539D01*
X169927011Y-127288294D01*
X169875500Y-127299500D01*
X164134108Y-127299500D01*
X164006812Y-127333608D01*
X163892686Y-127399500D01*
X163892683Y-127399502D01*
X163799502Y-127492683D01*
X163799500Y-127492686D01*
X163733608Y-127606812D01*
X163699500Y-127734108D01*
X163699500Y-129275500D01*
X163679815Y-129342539D01*
X163627011Y-129388294D01*
X163575500Y-129399500D01*
X162034108Y-129399500D01*
X161906812Y-129433608D01*
X161792686Y-129499500D01*
X161792683Y-129499502D01*
X161699502Y-129592683D01*
X161699500Y-129592686D01*
X161633608Y-129706812D01*
X161599500Y-129834108D01*
X161599500Y-134165891D01*
X161633608Y-134293187D01*
X161666554Y-134350250D01*
X161699500Y-134407314D01*
X161792686Y-134500500D01*
X161906814Y-134566392D01*
X162034108Y-134600500D01*
X162165892Y-134600500D01*
X165675500Y-134600500D01*
X165742539Y-134620185D01*
X165788294Y-134672989D01*
X165799500Y-134724500D01*
X165799500Y-136365891D01*
X165833608Y-136493187D01*
X165866554Y-136550250D01*
X165899500Y-136607314D01*
X165992686Y-136700500D01*
X166106814Y-136766392D01*
X166234108Y-136800500D01*
X166365892Y-136800500D01*
X167775500Y-136800500D01*
X167842539Y-136820185D01*
X167888294Y-136872989D01*
X167899500Y-136924500D01*
X167899500Y-139875500D01*
X167879815Y-139942539D01*
X167827011Y-139988294D01*
X167775500Y-139999500D01*
X156524500Y-139999500D01*
X156457461Y-139979815D01*
X156411706Y-139927011D01*
X156400500Y-139875500D01*
X156400500Y-138334110D01*
X156400500Y-138334108D01*
X156366392Y-138206814D01*
X156300500Y-138092686D01*
X156207314Y-137999500D01*
X156150250Y-137966554D01*
X156093187Y-137933608D01*
X156029539Y-137916554D01*
X155965892Y-137899500D01*
X155965891Y-137899500D01*
X154424500Y-137899500D01*
X154357461Y-137879815D01*
X154311706Y-137827011D01*
X154300500Y-137775500D01*
X154300500Y-131934110D01*
X154300500Y-131934108D01*
X154266392Y-131806814D01*
X154200500Y-131692686D01*
X154107314Y-131599500D01*
X154050250Y-131566554D01*
X153993187Y-131533608D01*
X153929539Y-131516554D01*
X153865892Y-131499500D01*
X151665892Y-131499500D01*
X151534108Y-131499500D01*
X151406812Y-131533608D01*
X151292686Y-131599500D01*
X151292683Y-131599502D01*
X151199502Y-131692683D01*
X151199500Y-131692686D01*
X151133608Y-131806812D01*
X151099500Y-131934108D01*
X151099500Y-137775500D01*
X151079815Y-137842539D01*
X151027011Y-137888294D01*
X150975500Y-137899500D01*
X149434108Y-137899500D01*
X149306812Y-137933608D01*
X149192686Y-137999500D01*
X149192683Y-137999502D01*
X149099502Y-138092683D01*
X149099500Y-138092686D01*
X149033608Y-138206812D01*
X148999500Y-138334108D01*
X148999500Y-139875500D01*
X148979815Y-139942539D01*
X148927011Y-139988294D01*
X148875500Y-139999500D01*
X137624500Y-139999500D01*
X137557461Y-139979815D01*
X137511706Y-139927011D01*
X137500500Y-139875500D01*
X137500500Y-136924500D01*
X137520185Y-136857461D01*
X137572989Y-136811706D01*
X137624500Y-136800500D01*
X139165890Y-136800500D01*
X139165892Y-136800500D01*
X139293186Y-136766392D01*
X139407314Y-136700500D01*
X139500500Y-136607314D01*
X139566392Y-136493186D01*
X139600500Y-136365892D01*
X139600500Y-134824500D01*
X139620185Y-134757461D01*
X139672989Y-134711706D01*
X139724500Y-134700500D01*
X143265890Y-134700500D01*
X143265892Y-134700500D01*
X143393186Y-134666392D01*
X143507314Y-134600500D01*
X143600500Y-134507314D01*
X143666392Y-134393186D01*
X143700500Y-134265892D01*
X143700500Y-127734108D01*
X143666392Y-127606814D01*
X143600500Y-127492686D01*
X143507314Y-127399500D01*
X143450250Y-127366554D01*
X143393187Y-127333608D01*
X143329539Y-127316554D01*
X143265892Y-127299500D01*
X143265891Y-127299500D01*
X135524500Y-127299500D01*
X135457461Y-127279815D01*
X135411706Y-127227011D01*
X135400500Y-127175500D01*
X135400500Y-125734110D01*
X135400500Y-125734108D01*
X135366392Y-125606814D01*
X135300500Y-125492686D01*
X135207314Y-125399500D01*
X135142854Y-125362284D01*
X135093187Y-125333608D01*
X135029539Y-125316554D01*
X134965892Y-125299500D01*
X134965891Y-125299500D01*
X131324500Y-125299500D01*
X131257461Y-125279815D01*
X131211706Y-125227011D01*
X131200500Y-125175500D01*
X131200500Y-124324500D01*
X131220185Y-124257461D01*
X131272989Y-124211706D01*
X131324500Y-124200500D01*
X132865890Y-124200500D01*
X132865892Y-124200500D01*
X132993186Y-124166392D01*
X133025651Y-124147648D01*
X147729500Y-124147648D01*
X147729500Y-124352351D01*
X147761522Y-124554534D01*
X147824781Y-124749223D01*
X147917715Y-124931613D01*
X148038028Y-125097213D01*
X148182786Y-125241971D01*
X148308916Y-125333608D01*
X148348390Y-125362287D01*
X148464607Y-125421503D01*
X148530776Y-125455218D01*
X148530778Y-125455218D01*
X148530781Y-125455220D01*
X148635137Y-125489127D01*
X148725465Y-125518477D01*
X148826557Y-125534488D01*
X148927648Y-125550500D01*
X148927649Y-125550500D01*
X149132351Y-125550500D01*
X149132352Y-125550500D01*
X149334534Y-125518477D01*
X149529219Y-125455220D01*
X149711610Y-125362287D01*
X149831063Y-125275500D01*
X149877213Y-125241971D01*
X149877215Y-125241968D01*
X149877219Y-125241966D01*
X150021966Y-125097219D01*
X150021968Y-125097215D01*
X150021971Y-125097213D01*
X150074732Y-125024590D01*
X150142287Y-124931610D01*
X150235220Y-124749219D01*
X150298477Y-124554534D01*
X150330500Y-124352352D01*
X150330500Y-124147648D01*
X155349500Y-124147648D01*
X155349500Y-124352351D01*
X155381522Y-124554534D01*
X155444781Y-124749223D01*
X155537715Y-124931613D01*
X155658028Y-125097213D01*
X155802786Y-125241971D01*
X155928916Y-125333608D01*
X155968390Y-125362287D01*
X156084607Y-125421503D01*
X156150776Y-125455218D01*
X156150778Y-125455218D01*
X156150781Y-125455220D01*
X156255137Y-125489127D01*
X156345465Y-125518477D01*
X156446557Y-125534488D01*
X156547648Y-125550500D01*
X156547649Y-125550500D01*
X156752351Y-125550500D01*
X156752352Y-125550500D01*
X156954534Y-125518477D01*
X157149219Y-125455220D01*
X157331610Y-125362287D01*
X157451063Y-125275500D01*
X157497213Y-125241971D01*
X157497215Y-125241968D01*
X157497219Y-125241966D01*
X157641966Y-125097219D01*
X157641968Y-125097215D01*
X157641971Y-125097213D01*
X157694732Y-125024590D01*
X157762287Y-124931610D01*
X157855220Y-124749219D01*
X157918477Y-124554534D01*
X157950500Y-124352352D01*
X157950500Y-124147648D01*
X157918477Y-123945466D01*
X157855220Y-123750781D01*
X157855218Y-123750778D01*
X157855218Y-123750776D01*
X157795772Y-123634108D01*
X157762287Y-123568390D01*
X157717550Y-123506814D01*
X157641971Y-123402786D01*
X157497213Y-123258028D01*
X157331613Y-123137715D01*
X157331612Y-123137714D01*
X157331610Y-123137713D01*
X157274653Y-123108691D01*
X157149223Y-123044781D01*
X156954534Y-122981522D01*
X156779995Y-122953878D01*
X156752352Y-122949500D01*
X156547648Y-122949500D01*
X156523329Y-122953351D01*
X156345465Y-122981522D01*
X156150776Y-123044781D01*
X155968386Y-123137715D01*
X155802786Y-123258028D01*
X155658028Y-123402786D01*
X155537715Y-123568386D01*
X155444781Y-123750776D01*
X155381522Y-123945465D01*
X155349500Y-124147648D01*
X150330500Y-124147648D01*
X150298477Y-123945466D01*
X150235220Y-123750781D01*
X150235218Y-123750778D01*
X150235218Y-123750776D01*
X150175772Y-123634108D01*
X150142287Y-123568390D01*
X150097550Y-123506814D01*
X150021971Y-123402786D01*
X149877213Y-123258028D01*
X149711613Y-123137715D01*
X149711612Y-123137714D01*
X149711610Y-123137713D01*
X149654653Y-123108691D01*
X149529223Y-123044781D01*
X149334534Y-122981522D01*
X149159995Y-122953878D01*
X149132352Y-122949500D01*
X148927648Y-122949500D01*
X148903329Y-122953351D01*
X148725465Y-122981522D01*
X148530776Y-123044781D01*
X148348386Y-123137715D01*
X148182786Y-123258028D01*
X148038028Y-123402786D01*
X147917715Y-123568386D01*
X147824781Y-123750776D01*
X147761522Y-123945465D01*
X147729500Y-124147648D01*
X133025651Y-124147648D01*
X133107314Y-124100500D01*
X133200500Y-124007314D01*
X133266392Y-123893186D01*
X133300500Y-123765892D01*
X133300500Y-122224500D01*
X133320185Y-122157461D01*
X133372989Y-122111706D01*
X133424500Y-122100500D01*
X134965890Y-122100500D01*
X134965892Y-122100500D01*
X135093186Y-122066392D01*
X135207314Y-122000500D01*
X135300500Y-121907314D01*
X135366392Y-121793186D01*
X135400500Y-121665892D01*
X135400500Y-120847648D01*
X147729500Y-120847648D01*
X147729500Y-121052351D01*
X147761522Y-121254534D01*
X147824781Y-121449223D01*
X147917715Y-121631613D01*
X148038028Y-121797213D01*
X148182786Y-121941971D01*
X148337749Y-122054556D01*
X148348390Y-122062287D01*
X148445380Y-122111706D01*
X148530776Y-122155218D01*
X148530778Y-122155218D01*
X148530781Y-122155220D01*
X148635137Y-122189127D01*
X148725465Y-122218477D01*
X148826557Y-122234488D01*
X148927648Y-122250500D01*
X148927649Y-122250500D01*
X149132351Y-122250500D01*
X149132352Y-122250500D01*
X149334534Y-122218477D01*
X149529219Y-122155220D01*
X149711610Y-122062287D01*
X149804590Y-121994732D01*
X149877213Y-121941971D01*
X149877215Y-121941968D01*
X149877219Y-121941966D01*
X150021966Y-121797219D01*
X150021968Y-121797215D01*
X150021971Y-121797213D01*
X150074732Y-121724590D01*
X150142287Y-121631610D01*
X150235220Y-121449219D01*
X150298477Y-121254534D01*
X150330500Y-121052352D01*
X150330500Y-120847648D01*
X155349500Y-120847648D01*
X155349500Y-121052351D01*
X155381522Y-121254534D01*
X155444781Y-121449223D01*
X155537715Y-121631613D01*
X155658028Y-121797213D01*
X155802786Y-121941971D01*
X155957749Y-122054556D01*
X155968390Y-122062287D01*
X156065380Y-122111706D01*
X156150776Y-122155218D01*
X156150778Y-122155218D01*
X156150781Y-122155220D01*
X156255137Y-122189127D01*
X156345465Y-122218477D01*
X156446557Y-122234488D01*
X156547648Y-122250500D01*
X156547649Y-122250500D01*
X156752351Y-122250500D01*
X156752352Y-122250500D01*
X156954534Y-122218477D01*
X157149219Y-122155220D01*
X157331610Y-122062287D01*
X157424590Y-121994732D01*
X157497213Y-121941971D01*
X157497215Y-121941968D01*
X157497219Y-121941966D01*
X157641966Y-121797219D01*
X157641968Y-121797215D01*
X157641971Y-121797213D01*
X157694732Y-121724590D01*
X157762287Y-121631610D01*
X157855220Y-121449219D01*
X157918477Y-121254534D01*
X157950500Y-121052352D01*
X157950500Y-120847648D01*
X157918477Y-120645466D01*
X157855220Y-120450781D01*
X157855218Y-120450778D01*
X157855218Y-120450776D01*
X157821503Y-120384607D01*
X157762287Y-120268390D01*
X157754556Y-120257749D01*
X157641971Y-120102786D01*
X157497213Y-119958028D01*
X157331613Y-119837715D01*
X157331612Y-119837714D01*
X157331610Y-119837713D01*
X157271947Y-119807313D01*
X157149223Y-119744781D01*
X156954534Y-119681522D01*
X156779995Y-119653878D01*
X156752352Y-119649500D01*
X156547648Y-119649500D01*
X156523329Y-119653351D01*
X156345465Y-119681522D01*
X156150776Y-119744781D01*
X155968386Y-119837715D01*
X155802786Y-119958028D01*
X155658028Y-120102786D01*
X155537715Y-120268386D01*
X155444781Y-120450776D01*
X155381522Y-120645465D01*
X155349500Y-120847648D01*
X150330500Y-120847648D01*
X150298477Y-120645466D01*
X150235220Y-120450781D01*
X150235218Y-120450778D01*
X150235218Y-120450776D01*
X150201503Y-120384607D01*
X150142287Y-120268390D01*
X150134556Y-120257749D01*
X150021971Y-120102786D01*
X149877213Y-119958028D01*
X149711613Y-119837715D01*
X149711612Y-119837714D01*
X149711610Y-119837713D01*
X149651947Y-119807313D01*
X149529223Y-119744781D01*
X149334534Y-119681522D01*
X149159995Y-119653878D01*
X149132352Y-119649500D01*
X148927648Y-119649500D01*
X148903329Y-119653351D01*
X148725465Y-119681522D01*
X148530776Y-119744781D01*
X148348386Y-119837715D01*
X148182786Y-119958028D01*
X148038028Y-120102786D01*
X147917715Y-120268386D01*
X147824781Y-120450776D01*
X147761522Y-120645465D01*
X147729500Y-120847648D01*
X135400500Y-120847648D01*
X135400500Y-120124500D01*
X135420185Y-120057461D01*
X135472989Y-120011706D01*
X135524500Y-120000500D01*
X137065890Y-120000500D01*
X137065892Y-120000500D01*
X137193186Y-119966392D01*
X137307314Y-119900500D01*
X137400500Y-119807314D01*
X137466392Y-119693186D01*
X137500500Y-119565892D01*
X137500500Y-118068530D01*
X140950000Y-118068530D01*
X140964648Y-118198539D01*
X141022330Y-118363386D01*
X141115246Y-118511262D01*
X141238737Y-118634753D01*
X141386613Y-118727669D01*
X141551460Y-118785351D01*
X141681469Y-118799999D01*
X141681473Y-118800000D01*
X141750000Y-118800000D01*
X142250000Y-118800000D01*
X142318527Y-118800000D01*
X142318530Y-118799999D01*
X142448539Y-118785351D01*
X142613386Y-118727669D01*
X142761262Y-118634753D01*
X142884753Y-118511262D01*
X142977669Y-118363386D01*
X143035351Y-118198539D01*
X143049999Y-118068530D01*
X143050000Y-118068526D01*
X143050000Y-117650000D01*
X142250000Y-117650000D01*
X142250000Y-118800000D01*
X141750000Y-118800000D01*
X141750000Y-117650000D01*
X140950000Y-117650000D01*
X140950000Y-118068530D01*
X137500500Y-118068530D01*
X137500500Y-116731469D01*
X140950000Y-116731469D01*
X140950000Y-117150000D01*
X141653590Y-117150000D01*
X141699925Y-117230255D01*
X141769745Y-117300075D01*
X141855255Y-117349444D01*
X141950630Y-117375000D01*
X142049370Y-117375000D01*
X142144745Y-117349444D01*
X142230255Y-117300075D01*
X142300075Y-117230255D01*
X142346410Y-117150000D01*
X143050000Y-117150000D01*
X143050000Y-116854500D01*
X143052550Y-116845814D01*
X143051262Y-116836853D01*
X143062240Y-116812812D01*
X143069685Y-116787461D01*
X143076525Y-116781533D01*
X143080287Y-116773297D01*
X143102521Y-116759007D01*
X143122489Y-116741706D01*
X143133003Y-116739418D01*
X143139065Y-116735523D01*
X143174000Y-116730500D01*
X143365500Y-116730500D01*
X143432539Y-116750185D01*
X143478294Y-116802989D01*
X143489500Y-116854500D01*
X143489500Y-118347870D01*
X143489501Y-118347876D01*
X143495908Y-118407483D01*
X143546202Y-118542328D01*
X143546206Y-118542335D01*
X143632452Y-118657544D01*
X143632455Y-118657547D01*
X143747664Y-118743793D01*
X143747671Y-118743797D01*
X143882517Y-118794091D01*
X143882516Y-118794091D01*
X143889444Y-118794835D01*
X143942127Y-118800500D01*
X145137872Y-118800499D01*
X145197483Y-118794091D01*
X145332331Y-118743796D01*
X145447546Y-118657546D01*
X145533796Y-118542331D01*
X145584091Y-118407483D01*
X145590500Y-118347873D01*
X145590499Y-117381902D01*
X147999500Y-117381902D01*
X147999500Y-117618097D01*
X148036446Y-117851368D01*
X148109433Y-118075996D01*
X148216657Y-118286433D01*
X148355483Y-118477510D01*
X148522490Y-118644517D01*
X148713567Y-118783343D01*
X148747236Y-118800498D01*
X148924003Y-118890566D01*
X148924005Y-118890566D01*
X148924008Y-118890568D01*
X149044412Y-118929689D01*
X149148631Y-118963553D01*
X149381903Y-119000500D01*
X149381908Y-119000500D01*
X149618097Y-119000500D01*
X149851368Y-118963553D01*
X150075992Y-118890568D01*
X150286433Y-118783343D01*
X150477510Y-118644517D01*
X150644517Y-118477510D01*
X150783343Y-118286433D01*
X150890568Y-118075992D01*
X150963553Y-117851368D01*
X150994612Y-117655269D01*
X151000500Y-117618097D01*
X151000500Y-117381902D01*
X154499500Y-117381902D01*
X154499500Y-117618097D01*
X154536446Y-117851368D01*
X154609433Y-118075996D01*
X154716657Y-118286433D01*
X154855483Y-118477510D01*
X155022490Y-118644517D01*
X155213567Y-118783343D01*
X155247236Y-118800498D01*
X155424003Y-118890566D01*
X155424005Y-118890566D01*
X155424008Y-118890568D01*
X155544412Y-118929689D01*
X155648631Y-118963553D01*
X155881903Y-119000500D01*
X155881908Y-119000500D01*
X156118097Y-119000500D01*
X156351368Y-118963553D01*
X156575992Y-118890568D01*
X156786433Y-118783343D01*
X156977510Y-118644517D01*
X157144517Y-118477510D01*
X157283343Y-118286433D01*
X157390568Y-118075992D01*
X157463553Y-117851368D01*
X157494612Y-117655269D01*
X157500500Y-117618097D01*
X157500500Y-117381902D01*
X157463553Y-117148631D01*
X157428256Y-117040000D01*
X157390568Y-116924008D01*
X157390566Y-116924005D01*
X157390566Y-116924003D01*
X157306496Y-116759007D01*
X157283343Y-116713567D01*
X157144517Y-116522490D01*
X156977510Y-116355483D01*
X156786433Y-116216657D01*
X156727141Y-116186446D01*
X156575996Y-116109433D01*
X156351368Y-116036446D01*
X156118097Y-115999500D01*
X156118092Y-115999500D01*
X155881908Y-115999500D01*
X155881903Y-115999500D01*
X155648631Y-116036446D01*
X155424003Y-116109433D01*
X155213566Y-116216657D01*
X155157119Y-116257669D01*
X155022490Y-116355483D01*
X155022488Y-116355485D01*
X155022487Y-116355485D01*
X154855485Y-116522487D01*
X154855485Y-116522488D01*
X154855483Y-116522490D01*
X154824491Y-116565147D01*
X154716657Y-116713566D01*
X154609433Y-116924003D01*
X154536446Y-117148631D01*
X154499500Y-117381902D01*
X151000500Y-117381902D01*
X150963553Y-117148631D01*
X150928256Y-117040000D01*
X150890568Y-116924008D01*
X150890566Y-116924005D01*
X150890566Y-116924003D01*
X150806496Y-116759007D01*
X150783343Y-116713567D01*
X150644517Y-116522490D01*
X150477510Y-116355483D01*
X150286433Y-116216657D01*
X150227141Y-116186446D01*
X150075996Y-116109433D01*
X149851368Y-116036446D01*
X149618097Y-115999500D01*
X149618092Y-115999500D01*
X149381908Y-115999500D01*
X149381903Y-115999500D01*
X149148631Y-116036446D01*
X148924003Y-116109433D01*
X148713566Y-116216657D01*
X148657119Y-116257669D01*
X148522490Y-116355483D01*
X148522488Y-116355485D01*
X148522487Y-116355485D01*
X148355485Y-116522487D01*
X148355485Y-116522488D01*
X148355483Y-116522490D01*
X148324491Y-116565147D01*
X148216657Y-116713566D01*
X148109433Y-116924003D01*
X148036446Y-117148631D01*
X147999500Y-117381902D01*
X145590499Y-117381902D01*
X145590499Y-116452128D01*
X145584091Y-116392517D01*
X145570278Y-116355483D01*
X145533797Y-116257671D01*
X145533793Y-116257664D01*
X145447547Y-116142455D01*
X145447544Y-116142452D01*
X145332335Y-116056206D01*
X145332328Y-116056202D01*
X145197482Y-116005908D01*
X145197483Y-116005908D01*
X145137883Y-115999501D01*
X145137881Y-115999500D01*
X145137873Y-115999500D01*
X145137865Y-115999500D01*
X144444500Y-115999500D01*
X144377461Y-115979815D01*
X144331706Y-115927011D01*
X144320500Y-115875500D01*
X144320500Y-114661445D01*
X144320499Y-114661441D01*
X144305842Y-114531351D01*
X144305841Y-114531349D01*
X144305841Y-114531343D01*
X144248122Y-114366394D01*
X144155147Y-114218424D01*
X144031576Y-114094853D01*
X143883606Y-114001878D01*
X143883605Y-114001877D01*
X143883604Y-114001877D01*
X143718658Y-113944159D01*
X143718648Y-113944157D01*
X143588558Y-113929500D01*
X143588552Y-113929500D01*
X142951448Y-113929500D01*
X142951441Y-113929500D01*
X142821351Y-113944157D01*
X142821341Y-113944159D01*
X142656395Y-114001877D01*
X142508423Y-114094853D01*
X142384853Y-114218423D01*
X142291877Y-114366395D01*
X142234159Y-114531341D01*
X142234157Y-114531351D01*
X142219500Y-114661441D01*
X142219500Y-115998558D01*
X142234157Y-116128648D01*
X142234158Y-116128655D01*
X142234159Y-116128657D01*
X142243041Y-116154041D01*
X142250000Y-116194994D01*
X142250000Y-116719670D01*
X142230255Y-116699925D01*
X142144745Y-116650556D01*
X142049370Y-116625000D01*
X141950630Y-116625000D01*
X141855255Y-116650556D01*
X141769745Y-116699925D01*
X141750000Y-116719670D01*
X141750000Y-116000000D01*
X141681469Y-116000000D01*
X141551460Y-116014648D01*
X141386613Y-116072330D01*
X141238737Y-116165246D01*
X141115246Y-116288737D01*
X141022330Y-116436613D01*
X140964648Y-116601460D01*
X140950000Y-116731469D01*
X137500500Y-116731469D01*
X137500500Y-113824500D01*
X137520185Y-113757461D01*
X137572989Y-113711706D01*
X137624500Y-113700500D01*
X139165890Y-113700500D01*
X139165892Y-113700500D01*
X139293186Y-113666392D01*
X139407314Y-113600500D01*
X139500500Y-113507314D01*
X139566392Y-113393186D01*
X139600500Y-113265892D01*
X139600500Y-112881902D01*
X147999500Y-112881902D01*
X147999500Y-113118097D01*
X148036446Y-113351368D01*
X148109433Y-113575996D01*
X148201895Y-113757461D01*
X148216657Y-113786433D01*
X148355483Y-113977510D01*
X148522490Y-114144517D01*
X148713567Y-114283343D01*
X148812991Y-114334002D01*
X148924003Y-114390566D01*
X148924005Y-114390566D01*
X148924008Y-114390568D01*
X149044412Y-114429689D01*
X149148631Y-114463553D01*
X149381903Y-114500500D01*
X149381908Y-114500500D01*
X149618097Y-114500500D01*
X149851368Y-114463553D01*
X150075992Y-114390568D01*
X150286433Y-114283343D01*
X150477510Y-114144517D01*
X150644517Y-113977510D01*
X150783343Y-113786433D01*
X150890568Y-113575992D01*
X150963553Y-113351368D01*
X150977091Y-113265891D01*
X151000500Y-113118097D01*
X151000500Y-112881902D01*
X150963553Y-112648631D01*
X150890566Y-112424003D01*
X150783342Y-112213566D01*
X150644517Y-112022490D01*
X150477510Y-111855483D01*
X150286433Y-111716657D01*
X150286429Y-111716655D01*
X150075996Y-111609433D01*
X149851368Y-111536446D01*
X149618097Y-111499500D01*
X149618092Y-111499500D01*
X149381908Y-111499500D01*
X149381903Y-111499500D01*
X149148631Y-111536446D01*
X148924003Y-111609433D01*
X148713566Y-111716657D01*
X148604550Y-111795862D01*
X148522490Y-111855483D01*
X148522488Y-111855485D01*
X148522487Y-111855485D01*
X148355485Y-112022487D01*
X148355485Y-112022488D01*
X148355483Y-112022490D01*
X148295862Y-112104550D01*
X148216657Y-112213566D01*
X148109433Y-112424003D01*
X148036446Y-112648631D01*
X147999500Y-112881902D01*
X139600500Y-112881902D01*
X139600500Y-108901577D01*
X150049500Y-108901577D01*
X150049500Y-109098422D01*
X150080290Y-109292826D01*
X150141117Y-109480029D01*
X150230344Y-109655145D01*
X150230476Y-109655405D01*
X150346172Y-109814646D01*
X150485354Y-109953828D01*
X150644595Y-110069524D01*
X150727455Y-110111743D01*
X150819970Y-110158882D01*
X150819972Y-110158882D01*
X150819975Y-110158884D01*
X150920317Y-110191487D01*
X151007173Y-110219709D01*
X151201578Y-110250500D01*
X151201583Y-110250500D01*
X151398422Y-110250500D01*
X151592826Y-110219709D01*
X151594328Y-110219221D01*
X151780025Y-110158884D01*
X151955405Y-110069524D01*
X152114646Y-109953828D01*
X152253828Y-109814646D01*
X152369524Y-109655405D01*
X152458884Y-109480025D01*
X152519709Y-109292826D01*
X152531226Y-109220110D01*
X152550500Y-109098422D01*
X152550500Y-108901577D01*
X152519709Y-108707173D01*
X152458882Y-108519970D01*
X152411743Y-108427455D01*
X152369524Y-108344595D01*
X152253828Y-108185354D01*
X152114646Y-108046172D01*
X151955405Y-107930476D01*
X151780029Y-107841117D01*
X151592826Y-107780290D01*
X151398422Y-107749500D01*
X151398417Y-107749500D01*
X151201583Y-107749500D01*
X151201578Y-107749500D01*
X151007173Y-107780290D01*
X150819970Y-107841117D01*
X150644594Y-107930476D01*
X150553741Y-107996485D01*
X150485354Y-108046172D01*
X150485352Y-108046174D01*
X150485351Y-108046174D01*
X150346174Y-108185351D01*
X150346174Y-108185352D01*
X150346172Y-108185354D01*
X150296485Y-108253741D01*
X150230476Y-108344594D01*
X150141117Y-108519970D01*
X150080290Y-108707173D01*
X150049500Y-108901577D01*
X139600500Y-108901577D01*
X139600500Y-107424500D01*
X139620185Y-107357461D01*
X139672989Y-107311706D01*
X139724500Y-107300500D01*
X141165890Y-107300500D01*
X141165892Y-107300500D01*
X141293186Y-107266392D01*
X141407314Y-107200500D01*
X141500500Y-107107314D01*
X141566392Y-106993186D01*
X141600500Y-106865892D01*
X141600500Y-105324500D01*
X141620185Y-105257461D01*
X141672989Y-105211706D01*
X141724500Y-105200500D01*
X143265890Y-105200500D01*
X143265892Y-105200500D01*
X143393186Y-105166392D01*
X143507314Y-105100500D01*
X143600500Y-105007314D01*
X143666392Y-104893186D01*
X143700500Y-104765892D01*
X143700500Y-102634108D01*
X143666392Y-102506814D01*
X143600500Y-102392686D01*
X143507314Y-102299500D01*
X143450250Y-102266554D01*
X143393187Y-102233608D01*
X143329539Y-102216554D01*
X143265892Y-102199500D01*
X143265891Y-102199500D01*
X141624500Y-102199500D01*
X141557461Y-102179815D01*
X141511706Y-102127011D01*
X141500500Y-102075500D01*
X141500500Y-100534110D01*
X141500500Y-100534108D01*
X141466392Y-100406814D01*
X141400500Y-100292686D01*
X141307314Y-100199500D01*
X141250250Y-100166554D01*
X141193187Y-100133608D01*
X141129539Y-100116554D01*
X141065892Y-100099500D01*
X141065891Y-100099500D01*
X139724500Y-100099500D01*
X139657461Y-100079815D01*
X139611706Y-100027011D01*
X139600500Y-99975500D01*
X139600500Y-96334110D01*
X139600500Y-96334108D01*
X139566392Y-96206814D01*
X139500500Y-96092686D01*
X139407314Y-95999500D01*
X139350250Y-95966554D01*
X139293187Y-95933608D01*
X139229539Y-95916554D01*
X139165892Y-95899500D01*
X137065892Y-95899500D01*
X136934108Y-95899500D01*
X136806812Y-95933608D01*
X136692686Y-95999500D01*
X136692683Y-95999502D01*
X136599502Y-96092683D01*
X136599500Y-96092686D01*
X136533608Y-96206812D01*
X136499500Y-96334108D01*
X136499500Y-97875500D01*
X136479815Y-97942539D01*
X136427011Y-97988294D01*
X136375500Y-97999500D01*
X135524500Y-97999500D01*
X135457461Y-97979815D01*
X135411706Y-97927011D01*
X135400500Y-97875500D01*
X135400500Y-96334110D01*
X135400500Y-96334108D01*
X135366392Y-96206814D01*
X135300500Y-96092686D01*
X135207314Y-95999500D01*
X135150250Y-95966554D01*
X135093187Y-95933608D01*
X135029539Y-95916554D01*
X134965892Y-95899500D01*
X134965891Y-95899500D01*
X131224500Y-95899500D01*
X131157461Y-95879815D01*
X131111706Y-95827011D01*
X131100500Y-95775500D01*
X131100500Y-94234110D01*
X131100500Y-94234108D01*
X131066392Y-94106814D01*
X131000500Y-93992686D01*
X130907314Y-93899500D01*
X130850250Y-93866554D01*
X130793187Y-93833608D01*
X130729539Y-93816554D01*
X130665892Y-93799500D01*
X130665891Y-93799500D01*
X129124500Y-93799500D01*
X129057461Y-93779815D01*
X129011706Y-93727011D01*
X129000500Y-93675500D01*
X129000500Y-92824500D01*
X129020185Y-92757461D01*
X129072989Y-92711706D01*
X129124500Y-92700500D01*
X130665890Y-92700500D01*
X130665892Y-92700500D01*
X130793186Y-92666392D01*
X130907314Y-92600500D01*
X131000500Y-92507314D01*
X131066392Y-92393186D01*
X131100500Y-92265892D01*
X131100500Y-89934108D01*
X131066392Y-89806814D01*
X131066390Y-89806810D01*
X131042123Y-89764778D01*
X131042122Y-89764777D01*
X131009138Y-89707648D01*
X133699500Y-89707648D01*
X133699500Y-89912351D01*
X133731522Y-90114534D01*
X133794781Y-90309223D01*
X133887715Y-90491613D01*
X134008028Y-90657213D01*
X134152786Y-90801971D01*
X134307749Y-90914556D01*
X134318390Y-90922287D01*
X134434607Y-90981503D01*
X134500776Y-91015218D01*
X134500778Y-91015218D01*
X134500781Y-91015220D01*
X134605137Y-91049127D01*
X134695465Y-91078477D01*
X134796557Y-91094488D01*
X134897648Y-91110500D01*
X134897649Y-91110500D01*
X135102351Y-91110500D01*
X135102352Y-91110500D01*
X135304534Y-91078477D01*
X135499219Y-91015220D01*
X135681610Y-90922287D01*
X135774590Y-90854732D01*
X135847213Y-90801971D01*
X135847215Y-90801968D01*
X135847219Y-90801966D01*
X135991966Y-90657219D01*
X135991968Y-90657215D01*
X135991971Y-90657213D01*
X136044732Y-90584590D01*
X136112287Y-90491610D01*
X136205220Y-90309219D01*
X136268477Y-90114534D01*
X136300500Y-89912352D01*
X136300500Y-89707648D01*
X137199500Y-89707648D01*
X137199500Y-89912351D01*
X137231522Y-90114534D01*
X137294781Y-90309223D01*
X137387715Y-90491613D01*
X137508028Y-90657213D01*
X137652786Y-90801971D01*
X137807749Y-90914556D01*
X137818390Y-90922287D01*
X137934607Y-90981503D01*
X138000776Y-91015218D01*
X138000778Y-91015218D01*
X138000781Y-91015220D01*
X138105137Y-91049127D01*
X138195465Y-91078477D01*
X138296557Y-91094488D01*
X138397648Y-91110500D01*
X138397649Y-91110500D01*
X138602351Y-91110500D01*
X138602352Y-91110500D01*
X138804534Y-91078477D01*
X138999219Y-91015220D01*
X139181610Y-90922287D01*
X139274590Y-90854732D01*
X139347213Y-90801971D01*
X139347215Y-90801968D01*
X139347219Y-90801966D01*
X139491966Y-90657219D01*
X139491968Y-90657215D01*
X139491971Y-90657213D01*
X139544732Y-90584590D01*
X139612287Y-90491610D01*
X139705220Y-90309219D01*
X139768477Y-90114534D01*
X139800500Y-89912352D01*
X139800500Y-89707648D01*
X139768477Y-89505466D01*
X139762897Y-89488294D01*
X139705218Y-89310776D01*
X139648519Y-89199500D01*
X139612287Y-89128390D01*
X139604556Y-89117749D01*
X139491971Y-88962786D01*
X139347213Y-88818028D01*
X139181613Y-88697715D01*
X139181612Y-88697714D01*
X139181610Y-88697713D01*
X139124653Y-88668691D01*
X138999223Y-88604781D01*
X138804534Y-88541522D01*
X138629995Y-88513878D01*
X138602352Y-88509500D01*
X138397648Y-88509500D01*
X138373329Y-88513351D01*
X138195465Y-88541522D01*
X138000776Y-88604781D01*
X137818386Y-88697715D01*
X137652786Y-88818028D01*
X137508028Y-88962786D01*
X137387715Y-89128386D01*
X137294781Y-89310776D01*
X137231522Y-89505465D01*
X137199500Y-89707648D01*
X136300500Y-89707648D01*
X136268477Y-89505466D01*
X136262897Y-89488294D01*
X136205218Y-89310776D01*
X136148519Y-89199500D01*
X136112287Y-89128390D01*
X136104556Y-89117749D01*
X135991971Y-88962786D01*
X135847213Y-88818028D01*
X135681613Y-88697715D01*
X135681612Y-88697714D01*
X135681610Y-88697713D01*
X135624653Y-88668691D01*
X135499223Y-88604781D01*
X135304534Y-88541522D01*
X135129995Y-88513878D01*
X135102352Y-88509500D01*
X134897648Y-88509500D01*
X134873329Y-88513351D01*
X134695465Y-88541522D01*
X134500776Y-88604781D01*
X134318386Y-88697715D01*
X134152786Y-88818028D01*
X134008028Y-88962786D01*
X133887715Y-89128386D01*
X133794781Y-89310776D01*
X133731522Y-89505465D01*
X133699500Y-89707648D01*
X131009138Y-89707648D01*
X131000500Y-89692686D01*
X130907314Y-89599500D01*
X130850250Y-89566554D01*
X130793187Y-89533608D01*
X130729539Y-89516554D01*
X130665892Y-89499500D01*
X130665891Y-89499500D01*
X129124500Y-89499500D01*
X129057461Y-89479815D01*
X129011706Y-89427011D01*
X129000500Y-89375500D01*
X129000500Y-88524500D01*
X129020185Y-88457461D01*
X129072989Y-88411706D01*
X129124500Y-88400500D01*
X130665890Y-88400500D01*
X130665892Y-88400500D01*
X130793186Y-88366392D01*
X130907314Y-88300500D01*
X131000500Y-88207314D01*
X131066392Y-88093186D01*
X131100500Y-87965892D01*
X131100500Y-86424500D01*
X131120185Y-86357461D01*
X131172989Y-86311706D01*
X131224500Y-86300500D01*
X132865890Y-86300500D01*
X132865892Y-86300500D01*
X132993186Y-86266392D01*
X133107314Y-86200500D01*
X133200500Y-86107314D01*
X133266392Y-85993186D01*
X133300500Y-85865892D01*
X133300500Y-82087648D01*
X133699500Y-82087648D01*
X133699500Y-82292351D01*
X133731522Y-82494534D01*
X133794781Y-82689223D01*
X133887715Y-82871613D01*
X134008028Y-83037213D01*
X134152786Y-83181971D01*
X134307749Y-83294556D01*
X134318390Y-83302287D01*
X134434607Y-83361503D01*
X134500776Y-83395218D01*
X134500778Y-83395218D01*
X134500781Y-83395220D01*
X134605137Y-83429127D01*
X134695465Y-83458477D01*
X134796557Y-83474488D01*
X134897648Y-83490500D01*
X134897649Y-83490500D01*
X135102351Y-83490500D01*
X135102352Y-83490500D01*
X135304534Y-83458477D01*
X135499219Y-83395220D01*
X135681610Y-83302287D01*
X135776139Y-83233608D01*
X135847213Y-83181971D01*
X135847215Y-83181968D01*
X135847219Y-83181966D01*
X135991966Y-83037219D01*
X135991968Y-83037215D01*
X135991971Y-83037213D01*
X136044732Y-82964590D01*
X136112287Y-82871610D01*
X136205220Y-82689219D01*
X136268477Y-82494534D01*
X136300500Y-82292352D01*
X136300500Y-82087648D01*
X137199500Y-82087648D01*
X137199500Y-82292351D01*
X137231522Y-82494534D01*
X137294781Y-82689223D01*
X137387715Y-82871613D01*
X137508028Y-83037213D01*
X137652786Y-83181971D01*
X137807749Y-83294556D01*
X137818390Y-83302287D01*
X137934607Y-83361503D01*
X138000776Y-83395218D01*
X138000778Y-83395218D01*
X138000781Y-83395220D01*
X138105137Y-83429127D01*
X138195465Y-83458477D01*
X138296557Y-83474488D01*
X138397648Y-83490500D01*
X138397649Y-83490500D01*
X138602351Y-83490500D01*
X138602352Y-83490500D01*
X138804534Y-83458477D01*
X138999219Y-83395220D01*
X139181610Y-83302287D01*
X139276139Y-83233608D01*
X139347213Y-83181971D01*
X139347215Y-83181968D01*
X139347219Y-83181966D01*
X139491966Y-83037219D01*
X139491968Y-83037215D01*
X139491971Y-83037213D01*
X139544732Y-82964590D01*
X139612287Y-82871610D01*
X139705220Y-82689219D01*
X139768477Y-82494534D01*
X139800500Y-82292352D01*
X139800500Y-82087648D01*
X139787884Y-82007992D01*
X139768477Y-81885465D01*
X139705218Y-81690776D01*
X139648519Y-81579500D01*
X139612287Y-81508390D01*
X139604556Y-81497749D01*
X139491971Y-81342786D01*
X139347213Y-81198028D01*
X139181613Y-81077715D01*
X139181612Y-81077714D01*
X139181610Y-81077713D01*
X139124653Y-81048691D01*
X138999223Y-80984781D01*
X138804534Y-80921522D01*
X138629995Y-80893878D01*
X138602352Y-80889500D01*
X138397648Y-80889500D01*
X138373329Y-80893351D01*
X138195465Y-80921522D01*
X138000776Y-80984781D01*
X137818386Y-81077715D01*
X137652786Y-81198028D01*
X137508028Y-81342786D01*
X137387715Y-81508386D01*
X137294781Y-81690776D01*
X137231522Y-81885465D01*
X137199500Y-82087648D01*
X136300500Y-82087648D01*
X136287884Y-82007992D01*
X136268477Y-81885465D01*
X136205218Y-81690776D01*
X136148519Y-81579500D01*
X136112287Y-81508390D01*
X136104556Y-81497749D01*
X135991971Y-81342786D01*
X135847213Y-81198028D01*
X135681613Y-81077715D01*
X135681612Y-81077714D01*
X135681610Y-81077713D01*
X135624653Y-81048691D01*
X135499223Y-80984781D01*
X135304534Y-80921522D01*
X135129995Y-80893878D01*
X135102352Y-80889500D01*
X134897648Y-80889500D01*
X134873329Y-80893351D01*
X134695465Y-80921522D01*
X134500776Y-80984781D01*
X134318386Y-81077715D01*
X134152786Y-81198028D01*
X134008028Y-81342786D01*
X133887715Y-81508386D01*
X133794781Y-81690776D01*
X133731522Y-81885465D01*
X133699500Y-82087648D01*
X133300500Y-82087648D01*
X133300500Y-80224500D01*
X133320185Y-80157461D01*
X133372989Y-80111706D01*
X133424500Y-80100500D01*
X134965890Y-80100500D01*
X134965892Y-80100500D01*
X135093186Y-80066392D01*
X135207314Y-80000500D01*
X135300500Y-79907314D01*
X135366392Y-79793186D01*
X135400500Y-79665892D01*
X135400500Y-75897648D01*
X147389500Y-75897648D01*
X147389500Y-76102351D01*
X147421522Y-76304534D01*
X147484781Y-76499223D01*
X147577715Y-76681613D01*
X147698028Y-76847213D01*
X147842786Y-76991971D01*
X147997749Y-77104556D01*
X148008390Y-77112287D01*
X148124607Y-77171503D01*
X148190776Y-77205218D01*
X148190778Y-77205218D01*
X148190781Y-77205220D01*
X148295137Y-77239127D01*
X148385465Y-77268477D01*
X148486557Y-77284488D01*
X148587648Y-77300500D01*
X148587649Y-77300500D01*
X148792351Y-77300500D01*
X148792352Y-77300500D01*
X148994534Y-77268477D01*
X149189219Y-77205220D01*
X149371610Y-77112287D01*
X149464590Y-77044732D01*
X149537213Y-76991971D01*
X149537215Y-76991968D01*
X149537219Y-76991966D01*
X149681966Y-76847219D01*
X149681968Y-76847215D01*
X149681971Y-76847213D01*
X149734732Y-76774590D01*
X149802287Y-76681610D01*
X149895220Y-76499219D01*
X149958477Y-76304534D01*
X149990500Y-76102352D01*
X149990500Y-75897648D01*
X155009500Y-75897648D01*
X155009500Y-76102351D01*
X155041522Y-76304534D01*
X155104781Y-76499223D01*
X155197715Y-76681613D01*
X155318028Y-76847213D01*
X155462786Y-76991971D01*
X155617749Y-77104556D01*
X155628390Y-77112287D01*
X155744607Y-77171503D01*
X155810776Y-77205218D01*
X155810778Y-77205218D01*
X155810781Y-77205220D01*
X155915137Y-77239127D01*
X156005465Y-77268477D01*
X156106557Y-77284488D01*
X156207648Y-77300500D01*
X156207649Y-77300500D01*
X156412351Y-77300500D01*
X156412352Y-77300500D01*
X156614534Y-77268477D01*
X156809219Y-77205220D01*
X156991610Y-77112287D01*
X157084590Y-77044732D01*
X157157213Y-76991971D01*
X157157215Y-76991968D01*
X157157219Y-76991966D01*
X157301966Y-76847219D01*
X157301968Y-76847215D01*
X157301971Y-76847213D01*
X157354732Y-76774590D01*
X157422287Y-76681610D01*
X157515220Y-76499219D01*
X157578477Y-76304534D01*
X157610500Y-76102352D01*
X157610500Y-75897648D01*
X157580354Y-75707314D01*
X157578477Y-75695465D01*
X157549127Y-75605137D01*
X157515220Y-75500781D01*
X157515218Y-75500778D01*
X157515218Y-75500776D01*
X157481503Y-75434607D01*
X157422287Y-75318390D01*
X157414556Y-75307749D01*
X157301971Y-75152786D01*
X157157213Y-75008028D01*
X156991613Y-74887715D01*
X156991612Y-74887714D01*
X156991610Y-74887713D01*
X156934653Y-74858691D01*
X156809223Y-74794781D01*
X156614534Y-74731522D01*
X156439995Y-74703878D01*
X156412352Y-74699500D01*
X156207648Y-74699500D01*
X156183329Y-74703351D01*
X156005465Y-74731522D01*
X155810776Y-74794781D01*
X155628386Y-74887715D01*
X155462786Y-75008028D01*
X155318028Y-75152786D01*
X155197715Y-75318386D01*
X155104781Y-75500776D01*
X155041522Y-75695465D01*
X155009500Y-75897648D01*
X149990500Y-75897648D01*
X149960354Y-75707314D01*
X149958477Y-75695465D01*
X149929127Y-75605137D01*
X149895220Y-75500781D01*
X149895218Y-75500778D01*
X149895218Y-75500776D01*
X149861503Y-75434607D01*
X149802287Y-75318390D01*
X149794556Y-75307749D01*
X149681971Y-75152786D01*
X149537213Y-75008028D01*
X149371613Y-74887715D01*
X149371612Y-74887714D01*
X149371610Y-74887713D01*
X149314653Y-74858691D01*
X149189223Y-74794781D01*
X148994534Y-74731522D01*
X148819995Y-74703878D01*
X148792352Y-74699500D01*
X148587648Y-74699500D01*
X148563329Y-74703351D01*
X148385465Y-74731522D01*
X148190776Y-74794781D01*
X148008386Y-74887715D01*
X147842786Y-75008028D01*
X147698028Y-75152786D01*
X147577715Y-75318386D01*
X147484781Y-75500776D01*
X147421522Y-75695465D01*
X147389500Y-75897648D01*
X135400500Y-75897648D01*
X135400500Y-73644048D01*
X135420185Y-73577009D01*
X135472989Y-73531254D01*
X135542147Y-73521310D01*
X135605703Y-73550335D01*
X135640682Y-73600715D01*
X135656202Y-73642328D01*
X135656206Y-73642335D01*
X135742452Y-73757544D01*
X135742455Y-73757547D01*
X135857664Y-73843793D01*
X135857671Y-73843797D01*
X135992517Y-73894091D01*
X135992516Y-73894091D01*
X135999444Y-73894835D01*
X136052127Y-73900500D01*
X137947872Y-73900499D01*
X138007483Y-73894091D01*
X138142331Y-73843796D01*
X138257546Y-73757546D01*
X138343796Y-73642331D01*
X138352056Y-73620185D01*
X138373601Y-73562420D01*
X138415471Y-73506486D01*
X138480936Y-73482068D01*
X138549209Y-73496919D01*
X138577464Y-73518071D01*
X138627636Y-73568243D01*
X138627641Y-73568247D01*
X138771808Y-73672989D01*
X138805978Y-73697815D01*
X138934375Y-73763237D01*
X139002393Y-73797895D01*
X139002396Y-73797896D01*
X139052841Y-73814286D01*
X139212049Y-73866015D01*
X139429778Y-73900500D01*
X139429779Y-73900500D01*
X139650221Y-73900500D01*
X139650222Y-73900500D01*
X139867951Y-73866015D01*
X140077606Y-73797895D01*
X140274022Y-73697815D01*
X140452365Y-73568242D01*
X140608242Y-73412365D01*
X140737815Y-73234022D01*
X140837895Y-73037606D01*
X140906015Y-72827951D01*
X140940500Y-72610222D01*
X140940500Y-72389778D01*
X140906015Y-72172049D01*
X140853502Y-72010428D01*
X140837896Y-71962396D01*
X140837895Y-71962393D01*
X140784532Y-71857664D01*
X140737815Y-71765978D01*
X140691408Y-71702104D01*
X140608247Y-71587641D01*
X140608243Y-71587636D01*
X140452363Y-71431756D01*
X140452358Y-71431752D01*
X140274025Y-71302187D01*
X140274024Y-71302186D01*
X140274022Y-71302185D01*
X140156791Y-71242452D01*
X140077606Y-71202104D01*
X140077603Y-71202103D01*
X139867952Y-71133985D01*
X139730286Y-71112181D01*
X139650222Y-71099500D01*
X139549096Y-71099500D01*
X139482057Y-71079815D01*
X139436302Y-71027011D01*
X139426358Y-70957853D01*
X139455383Y-70894297D01*
X139461415Y-70887819D01*
X140484850Y-69864385D01*
X141712416Y-68636819D01*
X141739343Y-68622115D01*
X141765162Y-68605523D01*
X141771362Y-68604631D01*
X141773739Y-68603334D01*
X141800097Y-68600500D01*
X141975501Y-68600500D01*
X142042540Y-68620185D01*
X142088295Y-68672989D01*
X142099501Y-68724500D01*
X142099501Y-68947876D01*
X142105908Y-69007483D01*
X142156202Y-69142328D01*
X142156206Y-69142335D01*
X142242452Y-69257544D01*
X142242455Y-69257547D01*
X142357664Y-69343793D01*
X142357671Y-69343797D01*
X142492517Y-69394091D01*
X142492516Y-69394091D01*
X142499444Y-69394835D01*
X142552127Y-69400500D01*
X144447872Y-69400499D01*
X144507483Y-69394091D01*
X144642331Y-69343796D01*
X144757546Y-69257546D01*
X144843796Y-69142331D01*
X144871429Y-69068243D01*
X144873601Y-69062420D01*
X144915471Y-69006486D01*
X144980936Y-68982068D01*
X145049209Y-68996919D01*
X145077464Y-69018071D01*
X145127636Y-69068243D01*
X145127641Y-69068247D01*
X145229603Y-69142326D01*
X145305978Y-69197815D01*
X145434375Y-69263237D01*
X145502393Y-69297895D01*
X145502396Y-69297896D01*
X145531389Y-69307316D01*
X145712049Y-69366015D01*
X145929778Y-69400500D01*
X145929779Y-69400500D01*
X146150221Y-69400500D01*
X146150222Y-69400500D01*
X146367951Y-69366015D01*
X146577606Y-69297895D01*
X146774022Y-69197815D01*
X146952365Y-69068242D01*
X147108242Y-68912365D01*
X147237815Y-68734022D01*
X147337895Y-68537606D01*
X147406015Y-68327951D01*
X147440500Y-68110222D01*
X147440500Y-67889778D01*
X147406015Y-67672049D01*
X147337895Y-67462394D01*
X147337895Y-67462393D01*
X147288979Y-67366392D01*
X147237815Y-67265978D01*
X147195195Y-67207316D01*
X147108247Y-67087641D01*
X147108243Y-67087636D01*
X146952363Y-66931756D01*
X146952358Y-66931752D01*
X146774025Y-66802187D01*
X146774024Y-66802186D01*
X146774022Y-66802185D01*
X146656791Y-66742452D01*
X146577606Y-66702104D01*
X146577603Y-66702103D01*
X146367952Y-66633985D01*
X146259086Y-66616742D01*
X146150222Y-66599500D01*
X146049096Y-66599500D01*
X145982057Y-66579815D01*
X145936302Y-66527011D01*
X145926358Y-66457853D01*
X145955383Y-66394297D01*
X145961415Y-66387819D01*
X146212416Y-66136819D01*
X146273739Y-66103334D01*
X146300097Y-66100500D01*
X149200501Y-66100500D01*
X149267540Y-66120185D01*
G37*
G04 #@! TD.AperFunction*
G04 #@! TA.AperFunction,Conductor*
G36*
X151142539Y-52820185D02*
G01*
X151188294Y-52872989D01*
X151199500Y-52924500D01*
X151199500Y-54465891D01*
X151233608Y-54593187D01*
X151266554Y-54650250D01*
X151299500Y-54707314D01*
X151392686Y-54800500D01*
X151506814Y-54866392D01*
X151634108Y-54900500D01*
X151765892Y-54900500D01*
X153175500Y-54900500D01*
X153242539Y-54920185D01*
X153288294Y-54972989D01*
X153299500Y-55024500D01*
X153299500Y-58665891D01*
X153333608Y-58793187D01*
X153366554Y-58850250D01*
X153399500Y-58907314D01*
X153492686Y-59000500D01*
X153606814Y-59066392D01*
X153734108Y-59100500D01*
X153865892Y-59100500D01*
X155275500Y-59100500D01*
X155342539Y-59120185D01*
X155388294Y-59172989D01*
X155399500Y-59224500D01*
X155399500Y-64865892D01*
X155405503Y-64888294D01*
X155433608Y-64993187D01*
X155466554Y-65050250D01*
X155499500Y-65107314D01*
X155592686Y-65200500D01*
X155706814Y-65266392D01*
X155834108Y-65300500D01*
X155834110Y-65300500D01*
X158065890Y-65300500D01*
X158065892Y-65300500D01*
X158193186Y-65266392D01*
X158307314Y-65200500D01*
X158400500Y-65107314D01*
X158466392Y-64993186D01*
X158500500Y-64865892D01*
X158500500Y-63324500D01*
X158520185Y-63257461D01*
X158572989Y-63211706D01*
X158624500Y-63200500D01*
X161375500Y-63200500D01*
X161442539Y-63220185D01*
X161488294Y-63272989D01*
X161499500Y-63324500D01*
X161499500Y-66965891D01*
X161533608Y-67093187D01*
X161566554Y-67150250D01*
X161599500Y-67207314D01*
X161692686Y-67300500D01*
X161806814Y-67366392D01*
X161934108Y-67400500D01*
X162065892Y-67400500D01*
X163575500Y-67400500D01*
X163642539Y-67420185D01*
X163688294Y-67472989D01*
X163699500Y-67524500D01*
X163699500Y-69065891D01*
X163733608Y-69193187D01*
X163766554Y-69250250D01*
X163799500Y-69307314D01*
X163892686Y-69400500D01*
X164006814Y-69466392D01*
X164134108Y-69500500D01*
X164265892Y-69500500D01*
X172075500Y-69500500D01*
X172142539Y-69520185D01*
X172188294Y-69572989D01*
X172199500Y-69624500D01*
X172199500Y-70575500D01*
X172179815Y-70642539D01*
X172127011Y-70688294D01*
X172075500Y-70699500D01*
X170434108Y-70699500D01*
X170306812Y-70733608D01*
X170192686Y-70799500D01*
X170192683Y-70799502D01*
X170099502Y-70892683D01*
X170099500Y-70892686D01*
X170033608Y-71006812D01*
X169999500Y-71134108D01*
X169999500Y-72675500D01*
X169979815Y-72742539D01*
X169927011Y-72788294D01*
X169875500Y-72799500D01*
X168334108Y-72799500D01*
X168206812Y-72833608D01*
X168092680Y-72899503D01*
X168088048Y-72903058D01*
X168022878Y-72928249D01*
X167954434Y-72914208D01*
X167904446Y-72865392D01*
X167890094Y-72824080D01*
X167866015Y-72672049D01*
X167866015Y-72672048D01*
X167797896Y-72462396D01*
X167797895Y-72462393D01*
X167736825Y-72342539D01*
X167697815Y-72265978D01*
X167629571Y-72172047D01*
X167568247Y-72087641D01*
X167568243Y-72087636D01*
X167412363Y-71931756D01*
X167412358Y-71931752D01*
X167234025Y-71802187D01*
X167234024Y-71802186D01*
X167234022Y-71802185D01*
X167116791Y-71742452D01*
X167037606Y-71702104D01*
X167037603Y-71702103D01*
X166827952Y-71633985D01*
X166719086Y-71616742D01*
X166610222Y-71599500D01*
X166389778Y-71599500D01*
X166317201Y-71610995D01*
X166172047Y-71633985D01*
X165962396Y-71702103D01*
X165962393Y-71702104D01*
X165765974Y-71802187D01*
X165587641Y-71931752D01*
X165587636Y-71931756D01*
X165537463Y-71981929D01*
X165476140Y-72015413D01*
X165406448Y-72010428D01*
X165350515Y-71968557D01*
X165333601Y-71937580D01*
X165303797Y-71857671D01*
X165303793Y-71857664D01*
X165217547Y-71742455D01*
X165217544Y-71742452D01*
X165102335Y-71656206D01*
X165102328Y-71656202D01*
X164967482Y-71605908D01*
X164967483Y-71605908D01*
X164907883Y-71599501D01*
X164907881Y-71599500D01*
X164907873Y-71599500D01*
X164907864Y-71599500D01*
X163012129Y-71599500D01*
X163012123Y-71599501D01*
X162952516Y-71605908D01*
X162817671Y-71656202D01*
X162817664Y-71656206D01*
X162702455Y-71742452D01*
X162702452Y-71742455D01*
X162616206Y-71857664D01*
X162616202Y-71857671D01*
X162565908Y-71992517D01*
X162559501Y-72052116D01*
X162559500Y-72052135D01*
X162559500Y-72275500D01*
X162539815Y-72342539D01*
X162487011Y-72388294D01*
X162435500Y-72399500D01*
X161300097Y-72399500D01*
X161233058Y-72379815D01*
X161212416Y-72363181D01*
X159961416Y-71112181D01*
X159927931Y-71050858D01*
X159932915Y-70981166D01*
X159974787Y-70925233D01*
X160040251Y-70900816D01*
X160049097Y-70900500D01*
X160150221Y-70900500D01*
X160150222Y-70900500D01*
X160367951Y-70866015D01*
X160577606Y-70797895D01*
X160774022Y-70697815D01*
X160952365Y-70568242D01*
X161108242Y-70412365D01*
X161237815Y-70234022D01*
X161337895Y-70037606D01*
X161406015Y-69827951D01*
X161440500Y-69610222D01*
X161440500Y-69389778D01*
X161406015Y-69172049D01*
X161349113Y-68996919D01*
X161337896Y-68962396D01*
X161337895Y-68962393D01*
X161258622Y-68806814D01*
X161237815Y-68765978D01*
X161143976Y-68636819D01*
X161108247Y-68587641D01*
X161108243Y-68587636D01*
X160952363Y-68431756D01*
X160952358Y-68431752D01*
X160774025Y-68302187D01*
X160774024Y-68302186D01*
X160774022Y-68302185D01*
X160656791Y-68242452D01*
X160577606Y-68202104D01*
X160577603Y-68202103D01*
X160367952Y-68133985D01*
X160259086Y-68116742D01*
X160150222Y-68099500D01*
X159929778Y-68099500D01*
X159862082Y-68110222D01*
X159712047Y-68133985D01*
X159502396Y-68202103D01*
X159502393Y-68202104D01*
X159305974Y-68302187D01*
X159127641Y-68431752D01*
X159127636Y-68431756D01*
X159077463Y-68481929D01*
X159016140Y-68515413D01*
X158946448Y-68510428D01*
X158890515Y-68468557D01*
X158873601Y-68437580D01*
X158843797Y-68357671D01*
X158843793Y-68357664D01*
X158757547Y-68242455D01*
X158757544Y-68242452D01*
X158642335Y-68156206D01*
X158642328Y-68156202D01*
X158507482Y-68105908D01*
X158507483Y-68105908D01*
X158447883Y-68099501D01*
X158447881Y-68099500D01*
X158447873Y-68099500D01*
X158447864Y-68099500D01*
X156552129Y-68099500D01*
X156552123Y-68099501D01*
X156492516Y-68105908D01*
X156357671Y-68156202D01*
X156357664Y-68156206D01*
X156242455Y-68242452D01*
X156242452Y-68242455D01*
X156156206Y-68357664D01*
X156156202Y-68357671D01*
X156105908Y-68492517D01*
X156099501Y-68552116D01*
X156099500Y-68552135D01*
X156099500Y-68775500D01*
X156079815Y-68842539D01*
X156027011Y-68888294D01*
X155975500Y-68899500D01*
X155025097Y-68899500D01*
X154958058Y-68879815D01*
X154937416Y-68863181D01*
X153186416Y-67112181D01*
X153152931Y-67050858D01*
X153157915Y-66981166D01*
X153199787Y-66925233D01*
X153265251Y-66900816D01*
X153274097Y-66900500D01*
X153375221Y-66900500D01*
X153375222Y-66900500D01*
X153592951Y-66866015D01*
X153802606Y-66797895D01*
X153999022Y-66697815D01*
X154177365Y-66568242D01*
X154333242Y-66412365D01*
X154462815Y-66234022D01*
X154562895Y-66037606D01*
X154631015Y-65827951D01*
X154665500Y-65610222D01*
X154665500Y-65389778D01*
X154631015Y-65172049D01*
X154562895Y-64962394D01*
X154562895Y-64962393D01*
X154501825Y-64842539D01*
X154462815Y-64765978D01*
X154404501Y-64685715D01*
X154333247Y-64587641D01*
X154333243Y-64587636D01*
X154177363Y-64431756D01*
X154177358Y-64431752D01*
X153999025Y-64302187D01*
X153999024Y-64302186D01*
X153999022Y-64302185D01*
X153881791Y-64242452D01*
X153802606Y-64202104D01*
X153802603Y-64202103D01*
X153592952Y-64133985D01*
X153484086Y-64116742D01*
X153375222Y-64099500D01*
X153154778Y-64099500D01*
X153082201Y-64110995D01*
X152937047Y-64133985D01*
X152727396Y-64202103D01*
X152727393Y-64202104D01*
X152530974Y-64302187D01*
X152352641Y-64431752D01*
X152352636Y-64431756D01*
X152302463Y-64481929D01*
X152241140Y-64515413D01*
X152171448Y-64510428D01*
X152115515Y-64468557D01*
X152098601Y-64437580D01*
X152068797Y-64357671D01*
X152068793Y-64357664D01*
X151982547Y-64242455D01*
X151982544Y-64242452D01*
X151867335Y-64156206D01*
X151867328Y-64156202D01*
X151732482Y-64105908D01*
X151732483Y-64105908D01*
X151672883Y-64099501D01*
X151672881Y-64099500D01*
X151672873Y-64099500D01*
X151672864Y-64099500D01*
X149777129Y-64099500D01*
X149777123Y-64099501D01*
X149717516Y-64105908D01*
X149582671Y-64156202D01*
X149582664Y-64156206D01*
X149467455Y-64242452D01*
X149467452Y-64242455D01*
X149381206Y-64357664D01*
X149381202Y-64357671D01*
X149330908Y-64492517D01*
X149324501Y-64552116D01*
X149324500Y-64552135D01*
X149324500Y-64775500D01*
X149304815Y-64842539D01*
X149252011Y-64888294D01*
X149200500Y-64899500D01*
X146086668Y-64899500D01*
X146079060Y-64899499D01*
X146079057Y-64899499D01*
X145924499Y-64899499D01*
X145857460Y-64879814D01*
X145811705Y-64827010D01*
X145811703Y-64826996D01*
X145800500Y-64775499D01*
X145800500Y-59224500D01*
X145820185Y-59157461D01*
X145872989Y-59111706D01*
X145924500Y-59100500D01*
X147465890Y-59100500D01*
X147465892Y-59100500D01*
X147593186Y-59066392D01*
X147707314Y-59000500D01*
X147800500Y-58907314D01*
X147866392Y-58793186D01*
X147900500Y-58665892D01*
X147900500Y-55024500D01*
X147920185Y-54957461D01*
X147972989Y-54911706D01*
X148024500Y-54900500D01*
X149565890Y-54900500D01*
X149565892Y-54900500D01*
X149693186Y-54866392D01*
X149807314Y-54800500D01*
X149900500Y-54707314D01*
X149966392Y-54593186D01*
X150000500Y-54465892D01*
X150000500Y-52924500D01*
X150020185Y-52857461D01*
X150072989Y-52811706D01*
X150124500Y-52800500D01*
X151075500Y-52800500D01*
X151142539Y-52820185D01*
G37*
G04 #@! TD.AperFunction*
G04 #@! TD*
M02*
