G04 #@! TF.GenerationSoftware,KiCad,Pcbnew,9.0.2*
G04 #@! TF.CreationDate,2025-06-14T15:29:11+03:00*
G04 #@! TF.ProjectId,glowsei,676c6f77-7365-4692-9e6b-696361645f70,rev?*
G04 #@! TF.SameCoordinates,Original*
G04 #@! TF.FileFunction,Profile,NP*
%FSLAX46Y46*%
G04 Gerber Fmt 4.6, Leading zero omitted, Abs format (unit mm)*
G04 Created by KiCad (PCBNEW 9.0.2) date 2025-06-14 15:29:11*
%MOMM*%
%LPD*%
G01*
G04 APERTURE LIST*
G04 #@! TA.AperFunction,Profile*
%ADD10C,0.050000*%
G04 #@! TD*
G04 APERTURE END LIST*
D10*
X168400000Y-136300000D02*
X168400000Y-140500000D01*
X174800000Y-96400000D02*
X170500000Y-96400000D01*
X174800000Y-87900000D02*
X176900000Y-87900000D01*
X139100000Y-100600000D02*
X139100000Y-96400000D01*
X137000000Y-96400000D02*
X137000000Y-98500000D01*
X166300000Y-98500000D02*
X164200000Y-98500000D01*
X147400000Y-54400000D02*
X149500000Y-54400000D01*
X130600000Y-90000000D02*
X128500000Y-90000000D01*
X172700000Y-71200000D02*
X170500000Y-71200000D01*
X170500000Y-119500000D02*
X170500000Y-121600000D01*
X139100000Y-96400000D02*
X137000000Y-96400000D01*
X137000000Y-66900000D02*
X139100000Y-66900000D01*
X176900000Y-87900000D02*
X176900000Y-90000000D01*
X176900000Y-94300000D02*
X174800000Y-94300000D01*
X162000000Y-66900000D02*
X164200000Y-66900000D01*
X168400000Y-73300000D02*
X168400000Y-75400000D01*
X168400000Y-96400000D02*
X166300000Y-96400000D01*
X151600000Y-132000000D02*
X151600000Y-138400000D01*
X166300000Y-115300000D02*
X168400000Y-115300000D01*
X128500000Y-90000000D02*
X128500000Y-87900000D01*
X162100000Y-132100000D02*
X162100000Y-129900000D01*
X155900000Y-64800000D02*
X158000000Y-64800000D01*
X132800000Y-85800000D02*
X132800000Y-79600000D01*
X166300000Y-136300000D02*
X168400000Y-136300000D01*
X166300000Y-134100000D02*
X166300000Y-136300000D01*
X153800000Y-58600000D02*
X155900000Y-58600000D01*
X162100000Y-104700000D02*
X164200000Y-104700000D01*
X141100000Y-104700000D02*
X143200000Y-104700000D01*
X164200000Y-104700000D02*
X164200000Y-111100000D01*
X143200000Y-104700000D02*
X143200000Y-102700000D01*
X141000000Y-100600000D02*
X139100000Y-100600000D01*
X134900000Y-73300000D02*
X132800000Y-73300000D01*
X155900000Y-58600000D02*
X155900000Y-64800000D01*
X168400000Y-119500000D02*
X170500000Y-119500000D01*
X155900000Y-140500000D02*
X155900000Y-138400000D01*
X139100000Y-62700000D02*
X143200000Y-62700000D01*
X130600000Y-85800000D02*
X132800000Y-85800000D01*
X151600000Y-138400000D02*
X149500000Y-138400000D01*
X174800000Y-83700000D02*
X174800000Y-87900000D01*
X170500000Y-71200000D02*
X170500000Y-73300000D01*
X162100000Y-102700000D02*
X162100000Y-104700000D01*
X143200000Y-134200000D02*
X143200000Y-127800000D01*
X130600000Y-94300000D02*
X128500000Y-94300000D01*
X132800000Y-79600000D02*
X134900000Y-79600000D01*
X166300000Y-96400000D02*
X166300000Y-98500000D01*
X170500000Y-121600000D02*
X172600000Y-121600000D01*
X137000000Y-98500000D02*
X134900000Y-98500000D01*
X153800000Y-138400000D02*
X153800000Y-132000000D01*
X172600000Y-123700000D02*
X174800000Y-123700000D01*
X134900000Y-125800000D02*
X130700000Y-125800000D01*
X166300000Y-111100000D02*
X166300000Y-115300000D01*
X130700000Y-123700000D02*
X132800000Y-123700000D01*
X134900000Y-79600000D02*
X134900000Y-73300000D01*
X139100000Y-134200000D02*
X143200000Y-134200000D01*
X149500000Y-140500000D02*
X137000000Y-140500000D01*
X162000000Y-62700000D02*
X162000000Y-66900000D01*
X139100000Y-106800000D02*
X141100000Y-106800000D01*
X147400000Y-58600000D02*
X147400000Y-54400000D01*
X164200000Y-69000000D02*
X172700000Y-69000000D01*
X155900000Y-138400000D02*
X153800000Y-138400000D01*
X130600000Y-92200000D02*
X130600000Y-90000000D01*
X176900000Y-92100000D02*
X176900000Y-94300000D01*
X174800000Y-123700000D02*
X174800000Y-125900000D01*
X168400000Y-115300000D02*
X168400000Y-119500000D01*
X151700000Y-54400000D02*
X153800000Y-54400000D01*
X170500000Y-98500000D02*
X168400000Y-98500000D01*
X174800000Y-94300000D02*
X174800000Y-96400000D01*
X170500000Y-79600000D02*
X172700000Y-79600000D01*
X162100000Y-134100000D02*
X166300000Y-134100000D01*
X170500000Y-73300000D02*
X168400000Y-73300000D01*
X174800000Y-90000000D02*
X174800000Y-92100000D01*
X168400000Y-75400000D02*
X170500000Y-75400000D01*
X153800000Y-54400000D02*
X153800000Y-58600000D01*
X130700000Y-71200000D02*
X130700000Y-69000000D01*
X176900000Y-90000000D02*
X174800000Y-90000000D01*
X170500000Y-75400000D02*
X170500000Y-79600000D01*
X130600000Y-87900000D02*
X130600000Y-85800000D01*
X145300000Y-64800000D02*
X145300000Y-58600000D01*
X149500000Y-52300000D02*
X151700000Y-52300000D01*
X143200000Y-127800000D02*
X134900000Y-127800000D01*
X143200000Y-102700000D02*
X141000000Y-102700000D01*
X137000000Y-69000000D02*
X137000000Y-66900000D01*
X174800000Y-92100000D02*
X176900000Y-92100000D01*
X168400000Y-140500000D02*
X155900000Y-140500000D01*
X172700000Y-79600000D02*
X172700000Y-83700000D01*
X170500000Y-127800000D02*
X164200000Y-127800000D01*
X164200000Y-102700000D02*
X162100000Y-102700000D01*
X153800000Y-132000000D02*
X151600000Y-132000000D01*
X143200000Y-62700000D02*
X143200000Y-64800000D01*
X168400000Y-98500000D02*
X168400000Y-96400000D01*
X137000000Y-140500000D02*
X137000000Y-136300000D01*
X139100000Y-66900000D02*
X139100000Y-62700000D01*
X172600000Y-121600000D02*
X172600000Y-123700000D01*
X172700000Y-83700000D02*
X174800000Y-83700000D01*
X141100000Y-106800000D02*
X141100000Y-104700000D01*
X170500000Y-96400000D02*
X170500000Y-98500000D01*
X137000000Y-113200000D02*
X139100000Y-113200000D01*
X164200000Y-98500000D02*
X164200000Y-102700000D01*
X132800000Y-121600000D02*
X134900000Y-121600000D01*
X134900000Y-96400000D02*
X130600000Y-96400000D01*
X137000000Y-136300000D02*
X139100000Y-136300000D01*
X174800000Y-125900000D02*
X170500000Y-125900000D01*
X151700000Y-52300000D02*
X151700000Y-54400000D01*
X134900000Y-119500000D02*
X137000000Y-119500000D01*
X137000000Y-119500000D02*
X137000000Y-113200000D01*
X134900000Y-121600000D02*
X134900000Y-119500000D01*
X149500000Y-138400000D02*
X149500000Y-140500000D01*
X170500000Y-125900000D02*
X170500000Y-127800000D01*
X162100000Y-132100000D02*
X162100000Y-134100000D01*
X164200000Y-66900000D02*
X164200000Y-69000000D01*
X149500000Y-54400000D02*
X149500000Y-52300000D01*
X164200000Y-111100000D02*
X166300000Y-111100000D01*
X134900000Y-127800000D02*
X134900000Y-125800000D01*
X164200000Y-127800000D02*
X164200000Y-129900000D01*
X132800000Y-73300000D02*
X132800000Y-71200000D01*
X139100000Y-136300000D02*
X139100000Y-134200000D01*
X130600000Y-96400000D02*
X130600000Y-94300000D01*
X130700000Y-125800000D02*
X130700000Y-123700000D01*
X132800000Y-71200000D02*
X130700000Y-71200000D01*
X132800000Y-123700000D02*
X132800000Y-121600000D01*
X128500000Y-92200000D02*
X130600000Y-92200000D01*
X139100000Y-113200000D02*
X139100000Y-106800000D01*
X172700000Y-69000000D02*
X172700000Y-71200000D01*
X158000000Y-64800000D02*
X158000000Y-62700000D01*
X128500000Y-87900000D02*
X130600000Y-87900000D01*
X128500000Y-92200000D02*
X128500000Y-94300000D01*
X158000000Y-62700000D02*
X162000000Y-62700000D01*
X143200000Y-64800000D02*
X145300000Y-64800000D01*
X162100000Y-129900000D02*
X164200000Y-129900000D01*
X141000000Y-102700000D02*
X141000000Y-100600000D01*
X134900000Y-98500000D02*
X134900000Y-96400000D01*
X145300000Y-58600000D02*
X147400000Y-58600000D01*
X130700000Y-69000000D02*
X137000000Y-69000000D01*
M02*
