G04 #@! TF.GenerationSoftware,KiCad,Pcbnew,9.0.2*
G04 #@! TF.CreationDate,2025-06-14T15:29:11+03:00*
G04 #@! TF.ProjectId,glowsei,676c6f77-7365-4692-9e6b-696361645f70,rev?*
G04 #@! TF.SameCoordinates,Original*
G04 #@! TF.FileFunction,Copper,L2,Bot*
G04 #@! TF.FilePolarity,Positive*
%FSLAX46Y46*%
G04 Gerber Fmt 4.6, Leading zero omitted, Abs format (unit mm)*
G04 Created by KiCad (PCBNEW 9.0.2) date 2025-06-14 15:29:11*
%MOMM*%
%LPD*%
G01*
G04 APERTURE LIST*
G04 Aperture macros list*
%AMRoundRect*
0 Rectangle with rounded corners*
0 $1 Rounding radius*
0 $2 $3 $4 $5 $6 $7 $8 $9 X,Y pos of 4 corners*
0 Add a 4 corners polygon primitive as box body*
4,1,4,$2,$3,$4,$5,$6,$7,$8,$9,$2,$3,0*
0 Add four circle primitives for the rounded corners*
1,1,$1+$1,$2,$3*
1,1,$1+$1,$4,$5*
1,1,$1+$1,$6,$7*
1,1,$1+$1,$8,$9*
0 Add four rect primitives between the rounded corners*
20,1,$1+$1,$2,$3,$4,$5,0*
20,1,$1+$1,$4,$5,$6,$7,0*
20,1,$1+$1,$6,$7,$8,$9,0*
20,1,$1+$1,$8,$9,$2,$3,0*%
G04 Aperture macros list end*
G04 #@! TA.AperFunction,ComponentPad*
%ADD10R,1.800000X1.800000*%
G04 #@! TD*
G04 #@! TA.AperFunction,ComponentPad*
%ADD11C,1.800000*%
G04 #@! TD*
G04 #@! TA.AperFunction,ComponentPad*
%ADD12C,2.000000*%
G04 #@! TD*
G04 #@! TA.AperFunction,ComponentPad*
%ADD13C,1.500000*%
G04 #@! TD*
G04 #@! TA.AperFunction,ComponentPad*
%ADD14C,1.600000*%
G04 #@! TD*
G04 #@! TA.AperFunction,SMDPad,CuDef*
%ADD15R,1.270000X5.080000*%
G04 #@! TD*
G04 #@! TA.AperFunction,SMDPad,CuDef*
%ADD16C,17.800000*%
G04 #@! TD*
G04 #@! TA.AperFunction,ComponentPad*
%ADD17R,1.100000X1.800000*%
G04 #@! TD*
G04 #@! TA.AperFunction,ComponentPad*
%ADD18RoundRect,0.275000X0.275000X0.625000X-0.275000X0.625000X-0.275000X-0.625000X0.275000X-0.625000X0*%
G04 #@! TD*
G04 #@! TA.AperFunction,ComponentPad*
%ADD19R,1.700000X1.700000*%
G04 #@! TD*
G04 #@! TA.AperFunction,ComponentPad*
%ADD20C,1.700000*%
G04 #@! TD*
G04 #@! TA.AperFunction,ViaPad*
%ADD21C,5.500000*%
G04 #@! TD*
G04 #@! TA.AperFunction,ViaPad*
%ADD22C,0.600000*%
G04 #@! TD*
G04 #@! TA.AperFunction,Conductor*
%ADD23C,0.200000*%
G04 #@! TD*
G04 APERTURE END LIST*
D10*
G04 #@! TO.P,D3,1,K*
G04 #@! TO.N,Net-(D1-K)*
X150725000Y-65500000D03*
D11*
G04 #@! TO.P,D3,2,A*
G04 #@! TO.N,Net-(D3-A)*
X153265000Y-65500000D03*
G04 #@! TD*
D12*
G04 #@! TO.P,SW1,1,1*
G04 #@! TO.N,Net-(D1-K)*
X149500000Y-113000000D03*
X156000000Y-113000000D03*
G04 #@! TO.P,SW1,2,2*
G04 #@! TO.N,Net-(M1-+)*
X149500000Y-117500000D03*
X156000000Y-117500000D03*
G04 #@! TD*
D10*
G04 #@! TO.P,D2,1,K*
G04 #@! TO.N,Net-(D1-K)*
X143500000Y-68000000D03*
D11*
G04 #@! TO.P,D2,2,A*
G04 #@! TO.N,Net-(D2-A)*
X146040000Y-68000000D03*
G04 #@! TD*
D13*
G04 #@! TO.P,R2,1*
G04 #@! TO.N,Net-(Q1-B)*
X151300000Y-109000000D03*
G04 #@! TO.P,R2,2*
G04 #@! TO.N,GND*
X154700000Y-109000000D03*
G04 #@! TD*
D10*
G04 #@! TO.P,D5,1,K*
G04 #@! TO.N,Net-(D1-K)*
X163960000Y-73000000D03*
D11*
G04 #@! TO.P,D5,2,A*
G04 #@! TO.N,Net-(D5-A)*
X166500000Y-73000000D03*
G04 #@! TD*
D10*
G04 #@! TO.P,D1,1,K*
G04 #@! TO.N,Net-(D1-K)*
X137000000Y-72500000D03*
D11*
G04 #@! TO.P,D1,2,A*
G04 #@! TO.N,Net-(D1-A)*
X139540000Y-72500000D03*
G04 #@! TD*
D10*
G04 #@! TO.P,D4,1,K*
G04 #@! TO.N,Net-(D1-K)*
X157500000Y-69500000D03*
D11*
G04 #@! TO.P,D4,2,A*
G04 #@! TO.N,Net-(D4-A)*
X160040000Y-69500000D03*
G04 #@! TD*
D14*
G04 #@! TO.P,R8,1*
G04 #@! TO.N,+3V3*
X171000000Y-90500000D03*
G04 #@! TO.P,R8,2*
G04 #@! TO.N,Net-(D5-A)*
X171000000Y-82880000D03*
G04 #@! TD*
G04 #@! TO.P,R3,1*
G04 #@! TO.N,Net-(Q1-B)*
X156650000Y-124250000D03*
G04 #@! TO.P,R3,2*
G04 #@! TO.N,+3V3*
X149030000Y-124250000D03*
G04 #@! TD*
G04 #@! TO.P,R4,1*
G04 #@! TO.N,Net-(Q1-B)*
X156650000Y-120950000D03*
G04 #@! TO.P,R4,2*
G04 #@! TO.N,+3V3*
X149030000Y-120950000D03*
G04 #@! TD*
D15*
G04 #@! TO.P,BT1,1,+*
G04 #@! TO.N,+3V3*
X163685001Y-89000000D03*
X141715001Y-89000000D03*
D16*
G04 #@! TO.P,BT1,2,-*
G04 #@! TO.N,GND*
X152700001Y-89000000D03*
G04 #@! TD*
D14*
G04 #@! TO.P,R7,1*
G04 #@! TO.N,+3V3*
X167500000Y-90500000D03*
G04 #@! TO.P,R7,2*
G04 #@! TO.N,Net-(D4-A)*
X167500000Y-82880000D03*
G04 #@! TD*
G04 #@! TO.P,R6,1*
G04 #@! TO.N,+3V3*
X148690000Y-76000000D03*
G04 #@! TO.P,R6,2*
G04 #@! TO.N,Net-(D3-A)*
X156310000Y-76000000D03*
G04 #@! TD*
G04 #@! TO.P,R5,1*
G04 #@! TO.N,+3V3*
X138500000Y-89810000D03*
G04 #@! TO.P,R5,2*
G04 #@! TO.N,Net-(D2-A)*
X138500000Y-82190000D03*
G04 #@! TD*
G04 #@! TO.P,R1,1*
G04 #@! TO.N,+3V3*
X135000000Y-89810000D03*
G04 #@! TO.P,R1,2*
G04 #@! TO.N,Net-(D1-A)*
X135000000Y-82190000D03*
G04 #@! TD*
D17*
G04 #@! TO.P,Q1,1,C*
G04 #@! TO.N,Net-(D1-K)*
X144540000Y-117400000D03*
D18*
G04 #@! TO.P,Q1,2,B*
G04 #@! TO.N,Net-(Q1-B)*
X143270000Y-115330000D03*
G04 #@! TO.P,Q1,3,E*
G04 #@! TO.N,GND*
X142000000Y-117400000D03*
G04 #@! TD*
D19*
G04 #@! TO.P,M1,1,+*
G04 #@! TO.N,Net-(M1-+)*
X161000000Y-114000000D03*
D20*
G04 #@! TO.P,M1,2,-*
G04 #@! TO.N,GND*
X161000000Y-116540000D03*
G04 #@! TD*
D21*
G04 #@! TO.N,GND*
X150600000Y-59250000D03*
D22*
X151500000Y-71500000D03*
X152500000Y-101500000D03*
X137500000Y-92500000D03*
X156000000Y-73000000D03*
X150000000Y-72500000D03*
G04 #@! TD*
D23*
G04 #@! TO.N,+3V3*
X143827794Y-120950000D02*
X141149000Y-118271206D01*
X139310000Y-89000000D02*
X138500000Y-89810000D01*
X141149000Y-113701000D02*
X143801000Y-111049000D01*
X146650116Y-124250000D02*
X143827794Y-121427678D01*
X143801000Y-93901000D02*
X141715001Y-91815001D01*
X141149000Y-118271206D02*
X141149000Y-113701000D01*
X167500000Y-90500000D02*
X171000000Y-90500000D01*
X141715001Y-89000000D02*
X141715001Y-82974999D01*
X141715001Y-91815001D02*
X141715001Y-89000000D01*
X163685001Y-89000000D02*
X166000000Y-89000000D01*
X141715001Y-89000000D02*
X139310000Y-89000000D01*
X149030000Y-120950000D02*
X143827794Y-120950000D01*
X166000000Y-89000000D02*
X167500000Y-90500000D01*
X141715001Y-82974999D02*
X148690000Y-76000000D01*
X163685001Y-86260000D02*
X153425001Y-76000000D01*
X153425001Y-76000000D02*
X148690000Y-76000000D01*
X143801000Y-111049000D02*
X143801000Y-93901000D01*
X163685001Y-89000000D02*
X163685001Y-86260000D01*
X143827794Y-121427678D02*
X143827794Y-120950000D01*
X149030000Y-124250000D02*
X146650116Y-124250000D01*
X138500000Y-89810000D02*
X135000000Y-89810000D01*
G04 #@! TO.N,Net-(D1-A)*
X139540000Y-77650000D02*
X139540000Y-72500000D01*
X135000000Y-82190000D02*
X139540000Y-77650000D01*
G04 #@! TO.N,Net-(D1-K)*
X149500000Y-113000000D02*
X156000000Y-113000000D01*
X145500000Y-117000000D02*
X149500000Y-113000000D01*
X144540000Y-117000000D02*
X145500000Y-117000000D01*
G04 #@! TO.N,Net-(D2-A)*
X146040000Y-74650000D02*
X146040000Y-68000000D01*
X138500000Y-82190000D02*
X146040000Y-74650000D01*
G04 #@! TO.N,Net-(D3-A)*
X156310000Y-76000000D02*
X153265000Y-72955000D01*
X153265000Y-72955000D02*
X153265000Y-65500000D01*
G04 #@! TO.N,Net-(D4-A)*
X160040000Y-75420000D02*
X160040000Y-69500000D01*
X167500000Y-82880000D02*
X160040000Y-75420000D01*
G04 #@! TO.N,Net-(D5-A)*
X171000000Y-82880000D02*
X166500000Y-78380000D01*
X166500000Y-78380000D02*
X166500000Y-73000000D01*
G04 #@! TO.N,Net-(M1-+)*
X159500000Y-114000000D02*
X161000000Y-114000000D01*
X156000000Y-117500000D02*
X159500000Y-114000000D01*
X156000000Y-117500000D02*
X149500000Y-117500000D01*
G04 #@! TO.N,Net-(Q1-B)*
X151300000Y-109000000D02*
X150000000Y-109000000D01*
X160800000Y-110600000D02*
X151200000Y-110600000D01*
X159100000Y-123400000D02*
X159400000Y-123400000D01*
X165000000Y-113600000D02*
X161400000Y-110000000D01*
X159400000Y-123400000D02*
X165000000Y-117800000D01*
X151200000Y-110600000D02*
X151300000Y-110500000D01*
X151300000Y-110500000D02*
X151300000Y-109000000D01*
X165000000Y-117800000D02*
X165000000Y-113600000D01*
X150000000Y-109000000D02*
X143270000Y-115730000D01*
X156650000Y-120950000D02*
X159100000Y-123400000D01*
X156650000Y-124250000D02*
X157500000Y-123400000D01*
X161400000Y-110000000D02*
X160800000Y-110600000D01*
X157500000Y-123400000D02*
X159400000Y-123400000D01*
G04 #@! TD*
G04 #@! TA.AperFunction,Conductor*
G04 #@! TO.N,GND*
G36*
X143143539Y-105220185D02*
G01*
X143189294Y-105272989D01*
X143200500Y-105324500D01*
X143200500Y-110748902D01*
X143180815Y-110815941D01*
X143164181Y-110836583D01*
X140668481Y-113332282D01*
X140668479Y-113332285D01*
X140633320Y-113393184D01*
X140633319Y-113393186D01*
X140589423Y-113469214D01*
X140579214Y-113507314D01*
X140548499Y-113621943D01*
X140548499Y-113621945D01*
X140548499Y-113790046D01*
X140548500Y-113790059D01*
X140548500Y-118184536D01*
X140548499Y-118184554D01*
X140548499Y-118350260D01*
X140548498Y-118350260D01*
X140548499Y-118350263D01*
X140589423Y-118502991D01*
X140593540Y-118510121D01*
X140593542Y-118510131D01*
X140593545Y-118510130D01*
X140668477Y-118639918D01*
X140668481Y-118639923D01*
X140787349Y-118758791D01*
X140787355Y-118758796D01*
X143190975Y-121162416D01*
X143205678Y-121189343D01*
X143222271Y-121215162D01*
X143223162Y-121221362D01*
X143224460Y-121223739D01*
X143227294Y-121250097D01*
X143227294Y-121341008D01*
X143227293Y-121341026D01*
X143227293Y-121506732D01*
X143227292Y-121506732D01*
X143268218Y-121659467D01*
X143271926Y-121665889D01*
X143271930Y-121665894D01*
X143347271Y-121796390D01*
X143347275Y-121796395D01*
X143466143Y-121915263D01*
X143466149Y-121915268D01*
X146165255Y-124614374D01*
X146165265Y-124614385D01*
X146169595Y-124618715D01*
X146169596Y-124618716D01*
X146281400Y-124730520D01*
X146368211Y-124780639D01*
X146368213Y-124780641D01*
X146406267Y-124802611D01*
X146418331Y-124809577D01*
X146571059Y-124850500D01*
X147800398Y-124850500D01*
X147867437Y-124870185D01*
X147910883Y-124918205D01*
X147917715Y-124931614D01*
X148038028Y-125097213D01*
X148182786Y-125241971D01*
X148308916Y-125333608D01*
X148348390Y-125362287D01*
X148464607Y-125421503D01*
X148530776Y-125455218D01*
X148530778Y-125455218D01*
X148530781Y-125455220D01*
X148635137Y-125489127D01*
X148725465Y-125518477D01*
X148826557Y-125534488D01*
X148927648Y-125550500D01*
X148927649Y-125550500D01*
X149132351Y-125550500D01*
X149132352Y-125550500D01*
X149334534Y-125518477D01*
X149529219Y-125455220D01*
X149711610Y-125362287D01*
X149831063Y-125275500D01*
X149877213Y-125241971D01*
X149877215Y-125241968D01*
X149877219Y-125241966D01*
X150021966Y-125097219D01*
X150021968Y-125097215D01*
X150021971Y-125097213D01*
X150074732Y-125024590D01*
X150142287Y-124931610D01*
X150235220Y-124749219D01*
X150298477Y-124554534D01*
X150330500Y-124352352D01*
X150330500Y-124147648D01*
X150298477Y-123945466D01*
X150293660Y-123930642D01*
X150240130Y-123765892D01*
X150235220Y-123750781D01*
X150235218Y-123750778D01*
X150235218Y-123750776D01*
X150201503Y-123684607D01*
X150142287Y-123568390D01*
X150097550Y-123506814D01*
X150021971Y-123402786D01*
X149877213Y-123258028D01*
X149711613Y-123137715D01*
X149711612Y-123137714D01*
X149711610Y-123137713D01*
X149654653Y-123108691D01*
X149529223Y-123044781D01*
X149334534Y-122981522D01*
X149159995Y-122953878D01*
X149132352Y-122949500D01*
X148927648Y-122949500D01*
X148903329Y-122953351D01*
X148725465Y-122981522D01*
X148530776Y-123044781D01*
X148348386Y-123137715D01*
X148182786Y-123258028D01*
X148038028Y-123402786D01*
X147917715Y-123568385D01*
X147910883Y-123581795D01*
X147862909Y-123632591D01*
X147800398Y-123649500D01*
X146950213Y-123649500D01*
X146883174Y-123629815D01*
X146862532Y-123613181D01*
X145011532Y-121762181D01*
X144978047Y-121700858D01*
X144983031Y-121631166D01*
X145024903Y-121575233D01*
X145090367Y-121550816D01*
X145099213Y-121550500D01*
X147800398Y-121550500D01*
X147867437Y-121570185D01*
X147910883Y-121618205D01*
X147917715Y-121631614D01*
X148038028Y-121797213D01*
X148182786Y-121941971D01*
X148337749Y-122054556D01*
X148348390Y-122062287D01*
X148445380Y-122111706D01*
X148530776Y-122155218D01*
X148530778Y-122155218D01*
X148530781Y-122155220D01*
X148635137Y-122189127D01*
X148725465Y-122218477D01*
X148826557Y-122234488D01*
X148927648Y-122250500D01*
X148927649Y-122250500D01*
X149132351Y-122250500D01*
X149132352Y-122250500D01*
X149334534Y-122218477D01*
X149529219Y-122155220D01*
X149711610Y-122062287D01*
X149804590Y-121994732D01*
X149877213Y-121941971D01*
X149877215Y-121941968D01*
X149877219Y-121941966D01*
X150021966Y-121797219D01*
X150021968Y-121797215D01*
X150021971Y-121797213D01*
X150117378Y-121665894D01*
X150142287Y-121631610D01*
X150235220Y-121449219D01*
X150298477Y-121254534D01*
X150330500Y-121052352D01*
X150330500Y-120847648D01*
X150298477Y-120645466D01*
X150235220Y-120450781D01*
X150235218Y-120450778D01*
X150235218Y-120450776D01*
X150201503Y-120384607D01*
X150142287Y-120268390D01*
X150134556Y-120257749D01*
X150021971Y-120102786D01*
X149877213Y-119958028D01*
X149711613Y-119837715D01*
X149711612Y-119837714D01*
X149711610Y-119837713D01*
X149651947Y-119807313D01*
X149529223Y-119744781D01*
X149334534Y-119681522D01*
X149159995Y-119653878D01*
X149132352Y-119649500D01*
X148927648Y-119649500D01*
X148903329Y-119653351D01*
X148725465Y-119681522D01*
X148530776Y-119744781D01*
X148348386Y-119837715D01*
X148182786Y-119958028D01*
X148038028Y-120102786D01*
X147917715Y-120268385D01*
X147910883Y-120281795D01*
X147862909Y-120332591D01*
X147800398Y-120349500D01*
X144127892Y-120349500D01*
X144060853Y-120329815D01*
X144040211Y-120313181D01*
X142625882Y-118898852D01*
X142592397Y-118837529D01*
X142597381Y-118767837D01*
X142639253Y-118711904D01*
X142647592Y-118706177D01*
X142761259Y-118634756D01*
X142884753Y-118511262D01*
X142977669Y-118363386D01*
X143035351Y-118198539D01*
X143049999Y-118068530D01*
X143050000Y-118068526D01*
X143050000Y-117650000D01*
X142124000Y-117650000D01*
X142056961Y-117630315D01*
X142011206Y-117577511D01*
X142000000Y-117526000D01*
X142000000Y-117400000D01*
X141874000Y-117400000D01*
X141806961Y-117380315D01*
X141761206Y-117327511D01*
X141751203Y-117281533D01*
X141769745Y-117300075D01*
X141855255Y-117349444D01*
X141950630Y-117375000D01*
X142049370Y-117375000D01*
X142144745Y-117349444D01*
X142230255Y-117300075D01*
X142300075Y-117230255D01*
X142346410Y-117150000D01*
X143050000Y-117150000D01*
X143050000Y-116854500D01*
X143052550Y-116845814D01*
X143051262Y-116836853D01*
X143062240Y-116812812D01*
X143069685Y-116787461D01*
X143076525Y-116781533D01*
X143080287Y-116773297D01*
X143102521Y-116759007D01*
X143122489Y-116741706D01*
X143133003Y-116739418D01*
X143139065Y-116735523D01*
X143174000Y-116730500D01*
X143365500Y-116730500D01*
X143432539Y-116750185D01*
X143478294Y-116802989D01*
X143489500Y-116854500D01*
X143489500Y-118347870D01*
X143489501Y-118347876D01*
X143495908Y-118407483D01*
X143546202Y-118542328D01*
X143546206Y-118542335D01*
X143632452Y-118657544D01*
X143632455Y-118657547D01*
X143747664Y-118743793D01*
X143747671Y-118743797D01*
X143882517Y-118794091D01*
X143882516Y-118794091D01*
X143889444Y-118794835D01*
X143942127Y-118800500D01*
X145137872Y-118800499D01*
X145197483Y-118794091D01*
X145332331Y-118743796D01*
X145447546Y-118657546D01*
X145533796Y-118542331D01*
X145584091Y-118407483D01*
X145590500Y-118347873D01*
X145590499Y-117692581D01*
X145596024Y-117673764D01*
X145596601Y-117654162D01*
X145605664Y-117640931D01*
X145610183Y-117625543D01*
X145625004Y-117612700D01*
X145636088Y-117596521D01*
X145654633Y-117587026D01*
X145662987Y-117579788D01*
X145666328Y-117578321D01*
X145674171Y-117575014D01*
X145731785Y-117559577D01*
X145781904Y-117530639D01*
X145868716Y-117480520D01*
X145967334Y-117381902D01*
X147999500Y-117381902D01*
X147999500Y-117618097D01*
X148036446Y-117851368D01*
X148109433Y-118075996D01*
X148213644Y-118280520D01*
X148216657Y-118286433D01*
X148355483Y-118477510D01*
X148522490Y-118644517D01*
X148713567Y-118783343D01*
X148747236Y-118800498D01*
X148924003Y-118890566D01*
X148924005Y-118890566D01*
X148924008Y-118890568D01*
X149044412Y-118929689D01*
X149148631Y-118963553D01*
X149381903Y-119000500D01*
X149381908Y-119000500D01*
X149618097Y-119000500D01*
X149851368Y-118963553D01*
X150075992Y-118890568D01*
X150286433Y-118783343D01*
X150477510Y-118644517D01*
X150644517Y-118477510D01*
X150783343Y-118286433D01*
X150843583Y-118168204D01*
X150891558Y-118117409D01*
X150954068Y-118100500D01*
X154545932Y-118100500D01*
X154612971Y-118120185D01*
X154656416Y-118168203D01*
X154716657Y-118286433D01*
X154855483Y-118477510D01*
X155022490Y-118644517D01*
X155213567Y-118783343D01*
X155247236Y-118800498D01*
X155424003Y-118890566D01*
X155424005Y-118890566D01*
X155424008Y-118890568D01*
X155544412Y-118929689D01*
X155648631Y-118963553D01*
X155881903Y-119000500D01*
X155881908Y-119000500D01*
X156118097Y-119000500D01*
X156351368Y-118963553D01*
X156575992Y-118890568D01*
X156786433Y-118783343D01*
X156977510Y-118644517D01*
X157144517Y-118477510D01*
X157283343Y-118286433D01*
X157390568Y-118075992D01*
X157463553Y-117851368D01*
X157473099Y-117791095D01*
X157500500Y-117618097D01*
X157500500Y-117381902D01*
X157475868Y-117226390D01*
X157463553Y-117148632D01*
X157422547Y-117022433D01*
X157420553Y-116952593D01*
X157452796Y-116896437D01*
X159448196Y-114901037D01*
X159509517Y-114867554D01*
X159579209Y-114872538D01*
X159635142Y-114914410D01*
X159652077Y-114950632D01*
X159653198Y-114950215D01*
X159706202Y-115092328D01*
X159706206Y-115092335D01*
X159792452Y-115207544D01*
X159792455Y-115207547D01*
X159907664Y-115293793D01*
X159907671Y-115293797D01*
X159952618Y-115310561D01*
X160042517Y-115344091D01*
X160102127Y-115350500D01*
X160112685Y-115350499D01*
X160179723Y-115370179D01*
X160200372Y-115386818D01*
X160870591Y-116057037D01*
X160807007Y-116074075D01*
X160692993Y-116139901D01*
X160599901Y-116232993D01*
X160534075Y-116347007D01*
X160517037Y-116410591D01*
X159884728Y-115778282D01*
X159884727Y-115778282D01*
X159845380Y-115832439D01*
X159748904Y-116021782D01*
X159683242Y-116223869D01*
X159683242Y-116223872D01*
X159650000Y-116433753D01*
X159650000Y-116646246D01*
X159683242Y-116856127D01*
X159683242Y-116856130D01*
X159748904Y-117058217D01*
X159845375Y-117247550D01*
X159884728Y-117301716D01*
X160517036Y-116669407D01*
X160534075Y-116732993D01*
X160599901Y-116847007D01*
X160692993Y-116940099D01*
X160807007Y-117005925D01*
X160870590Y-117022962D01*
X160238282Y-117655269D01*
X160238282Y-117655270D01*
X160292449Y-117694624D01*
X160481782Y-117791095D01*
X160683870Y-117856757D01*
X160893754Y-117890000D01*
X161106246Y-117890000D01*
X161316127Y-117856757D01*
X161316130Y-117856757D01*
X161518217Y-117791095D01*
X161707554Y-117694622D01*
X161761716Y-117655270D01*
X161761717Y-117655270D01*
X161129408Y-117022962D01*
X161192993Y-117005925D01*
X161307007Y-116940099D01*
X161400099Y-116847007D01*
X161465925Y-116732993D01*
X161482962Y-116669408D01*
X162115270Y-117301717D01*
X162115270Y-117301716D01*
X162154622Y-117247554D01*
X162251095Y-117058217D01*
X162316757Y-116856130D01*
X162316757Y-116856127D01*
X162350000Y-116646246D01*
X162350000Y-116433753D01*
X162316757Y-116223872D01*
X162316757Y-116223869D01*
X162251095Y-116021782D01*
X162154624Y-115832449D01*
X162115270Y-115778282D01*
X162115269Y-115778282D01*
X161482962Y-116410590D01*
X161465925Y-116347007D01*
X161400099Y-116232993D01*
X161307007Y-116139901D01*
X161192993Y-116074075D01*
X161129409Y-116057037D01*
X161799627Y-115386818D01*
X161860950Y-115353333D01*
X161887307Y-115350499D01*
X161897872Y-115350499D01*
X161957483Y-115344091D01*
X162092331Y-115293796D01*
X162207546Y-115207546D01*
X162293796Y-115092331D01*
X162344091Y-114957483D01*
X162350500Y-114897873D01*
X162350499Y-113102128D01*
X162344091Y-113042517D01*
X162293796Y-112907669D01*
X162293795Y-112907668D01*
X162293793Y-112907664D01*
X162207547Y-112792455D01*
X162207544Y-112792452D01*
X162092335Y-112706206D01*
X162092328Y-112706202D01*
X161957482Y-112655908D01*
X161957483Y-112655908D01*
X161897883Y-112649501D01*
X161897881Y-112649500D01*
X161897873Y-112649500D01*
X161897864Y-112649500D01*
X160102129Y-112649500D01*
X160102123Y-112649501D01*
X160042516Y-112655908D01*
X159907671Y-112706202D01*
X159907664Y-112706206D01*
X159792455Y-112792452D01*
X159792452Y-112792455D01*
X159706206Y-112907664D01*
X159706202Y-112907671D01*
X159655908Y-113042517D01*
X159649501Y-113102116D01*
X159649501Y-113102123D01*
X159649500Y-113102135D01*
X159649500Y-113275500D01*
X159629815Y-113342539D01*
X159577011Y-113388294D01*
X159525500Y-113399500D01*
X159420940Y-113399500D01*
X159380019Y-113410464D01*
X159380019Y-113410465D01*
X159357579Y-113416478D01*
X159268214Y-113440423D01*
X159268209Y-113440426D01*
X159131290Y-113519475D01*
X159131282Y-113519481D01*
X159019478Y-113631286D01*
X156603563Y-116047200D01*
X156542240Y-116080685D01*
X156477564Y-116077450D01*
X156351370Y-116036447D01*
X156118097Y-115999500D01*
X156118092Y-115999500D01*
X155881908Y-115999500D01*
X155881903Y-115999500D01*
X155648631Y-116036446D01*
X155424003Y-116109433D01*
X155213566Y-116216657D01*
X155203636Y-116223872D01*
X155022490Y-116355483D01*
X155022488Y-116355485D01*
X155022487Y-116355485D01*
X154855485Y-116522487D01*
X154855485Y-116522488D01*
X154855483Y-116522490D01*
X154824491Y-116565147D01*
X154716657Y-116713566D01*
X154656417Y-116831795D01*
X154608442Y-116882591D01*
X154545932Y-116899500D01*
X150954068Y-116899500D01*
X150887029Y-116879815D01*
X150843583Y-116831795D01*
X150820994Y-116787461D01*
X150783343Y-116713567D01*
X150644517Y-116522490D01*
X150477510Y-116355483D01*
X150286433Y-116216657D01*
X150227141Y-116186446D01*
X150075996Y-116109433D01*
X149851368Y-116036446D01*
X149618097Y-115999500D01*
X149618092Y-115999500D01*
X149381908Y-115999500D01*
X149381903Y-115999500D01*
X149148631Y-116036446D01*
X148924003Y-116109433D01*
X148713566Y-116216657D01*
X148703636Y-116223872D01*
X148522490Y-116355483D01*
X148522488Y-116355485D01*
X148522487Y-116355485D01*
X148355485Y-116522487D01*
X148355485Y-116522488D01*
X148355483Y-116522490D01*
X148324491Y-116565147D01*
X148216657Y-116713566D01*
X148109433Y-116924003D01*
X148036446Y-117148631D01*
X147999500Y-117381902D01*
X145967334Y-117381902D01*
X145980520Y-117368716D01*
X145980520Y-117368714D01*
X145990728Y-117358507D01*
X145990730Y-117358504D01*
X148896437Y-114452796D01*
X148957758Y-114419313D01*
X149022433Y-114422547D01*
X149148632Y-114463553D01*
X149236110Y-114477408D01*
X149381903Y-114500500D01*
X149381908Y-114500500D01*
X149618097Y-114500500D01*
X149851368Y-114463553D01*
X149884468Y-114452798D01*
X150075992Y-114390568D01*
X150286433Y-114283343D01*
X150477510Y-114144517D01*
X150644517Y-113977510D01*
X150783343Y-113786433D01*
X150843583Y-113668204D01*
X150891558Y-113617409D01*
X150954068Y-113600500D01*
X154545932Y-113600500D01*
X154612971Y-113620185D01*
X154656416Y-113668203D01*
X154716657Y-113786433D01*
X154855483Y-113977510D01*
X155022490Y-114144517D01*
X155213567Y-114283343D01*
X155312991Y-114334002D01*
X155424003Y-114390566D01*
X155424005Y-114390566D01*
X155424008Y-114390568D01*
X155512476Y-114419313D01*
X155648631Y-114463553D01*
X155881903Y-114500500D01*
X155881908Y-114500500D01*
X156118097Y-114500500D01*
X156351368Y-114463553D01*
X156384468Y-114452798D01*
X156575992Y-114390568D01*
X156786433Y-114283343D01*
X156977510Y-114144517D01*
X157144517Y-113977510D01*
X157283343Y-113786433D01*
X157390568Y-113575992D01*
X157463553Y-113351368D01*
X157470672Y-113306420D01*
X157500500Y-113118097D01*
X157500500Y-112881902D01*
X157463553Y-112648631D01*
X157390566Y-112424003D01*
X157283342Y-112213566D01*
X157144517Y-112022490D01*
X156977510Y-111855483D01*
X156786433Y-111716657D01*
X156575996Y-111609433D01*
X156351368Y-111536446D01*
X156118097Y-111499500D01*
X156118092Y-111499500D01*
X155881908Y-111499500D01*
X155881903Y-111499500D01*
X155648631Y-111536446D01*
X155424003Y-111609433D01*
X155213566Y-111716657D01*
X155104550Y-111795862D01*
X155022490Y-111855483D01*
X155022488Y-111855485D01*
X155022487Y-111855485D01*
X154855485Y-112022487D01*
X154855485Y-112022488D01*
X154855483Y-112022490D01*
X154795862Y-112104550D01*
X154716657Y-112213566D01*
X154656417Y-112331795D01*
X154608442Y-112382591D01*
X154545932Y-112399500D01*
X150954068Y-112399500D01*
X150887029Y-112379815D01*
X150843583Y-112331795D01*
X150783342Y-112213566D01*
X150644517Y-112022490D01*
X150477510Y-111855483D01*
X150286433Y-111716657D01*
X150075996Y-111609433D01*
X149851368Y-111536446D01*
X149618097Y-111499500D01*
X149618092Y-111499500D01*
X149381908Y-111499500D01*
X149381903Y-111499500D01*
X149148631Y-111536446D01*
X148924003Y-111609433D01*
X148713566Y-111716657D01*
X148604550Y-111795862D01*
X148522490Y-111855483D01*
X148522488Y-111855485D01*
X148522487Y-111855485D01*
X148355485Y-112022487D01*
X148355485Y-112022488D01*
X148355483Y-112022490D01*
X148295862Y-112104550D01*
X148216657Y-112213566D01*
X148109433Y-112424003D01*
X148036446Y-112648631D01*
X147999500Y-112881902D01*
X147999500Y-113118097D01*
X148036447Y-113351369D01*
X148036447Y-113351372D01*
X148077450Y-113477564D01*
X148079445Y-113547405D01*
X148047200Y-113603563D01*
X145558272Y-116092491D01*
X145496949Y-116125976D01*
X145427257Y-116120992D01*
X145396281Y-116104077D01*
X145332331Y-116056204D01*
X145332328Y-116056202D01*
X145197482Y-116005908D01*
X145197483Y-116005908D01*
X145137883Y-115999501D01*
X145137881Y-115999500D01*
X145137873Y-115999500D01*
X145137865Y-115999500D01*
X144444500Y-115999500D01*
X144377461Y-115979815D01*
X144331706Y-115927011D01*
X144320500Y-115875500D01*
X144320500Y-115580096D01*
X144340185Y-115513057D01*
X144356814Y-115492420D01*
X150112395Y-109736838D01*
X150173716Y-109703355D01*
X150243408Y-109708339D01*
X150299341Y-109750211D01*
X150300364Y-109751598D01*
X150346172Y-109814646D01*
X150485354Y-109953828D01*
X150644595Y-110069524D01*
X150648386Y-110072278D01*
X150651726Y-110076610D01*
X150656703Y-110078883D01*
X150672833Y-110103982D01*
X150691051Y-110127608D01*
X150692303Y-110134279D01*
X150694477Y-110137661D01*
X150699500Y-110172596D01*
X150699500Y-110232664D01*
X150682889Y-110294661D01*
X150669362Y-110318092D01*
X150669359Y-110318096D01*
X150640425Y-110368209D01*
X150640424Y-110368210D01*
X150640423Y-110368215D01*
X150599499Y-110520943D01*
X150599499Y-110520945D01*
X150599499Y-110679054D01*
X150599498Y-110679054D01*
X150640423Y-110831785D01*
X150669358Y-110881900D01*
X150669359Y-110881904D01*
X150669360Y-110881904D01*
X150719480Y-110968716D01*
X150831284Y-111080520D01*
X150913621Y-111128057D01*
X150968215Y-111159577D01*
X151120943Y-111200501D01*
X151120946Y-111200501D01*
X151286653Y-111200501D01*
X151286669Y-111200500D01*
X160713331Y-111200500D01*
X160713347Y-111200501D01*
X160720943Y-111200501D01*
X160879054Y-111200501D01*
X160879057Y-111200501D01*
X161031785Y-111159577D01*
X161086379Y-111128057D01*
X161168716Y-111080520D01*
X161280520Y-110968716D01*
X161280520Y-110968714D01*
X161290726Y-110958509D01*
X161290732Y-110958502D01*
X161312321Y-110936914D01*
X161373645Y-110903430D01*
X161443336Y-110908416D01*
X161487681Y-110936916D01*
X164363181Y-113812416D01*
X164396666Y-113873739D01*
X164399500Y-113900097D01*
X164399500Y-117499903D01*
X164379815Y-117566942D01*
X164363181Y-117587584D01*
X159337681Y-122613084D01*
X159276358Y-122646569D01*
X159206666Y-122641585D01*
X159162319Y-122613084D01*
X157944077Y-121394842D01*
X157910592Y-121333519D01*
X157913828Y-121268841D01*
X157918477Y-121254534D01*
X157950500Y-121052352D01*
X157950500Y-120847648D01*
X157918477Y-120645466D01*
X157855220Y-120450781D01*
X157855218Y-120450778D01*
X157855218Y-120450776D01*
X157821503Y-120384607D01*
X157762287Y-120268390D01*
X157754556Y-120257749D01*
X157641971Y-120102786D01*
X157497213Y-119958028D01*
X157331613Y-119837715D01*
X157331612Y-119837714D01*
X157331610Y-119837713D01*
X157271947Y-119807313D01*
X157149223Y-119744781D01*
X156954534Y-119681522D01*
X156779995Y-119653878D01*
X156752352Y-119649500D01*
X156547648Y-119649500D01*
X156523329Y-119653351D01*
X156345465Y-119681522D01*
X156150776Y-119744781D01*
X155968386Y-119837715D01*
X155802786Y-119958028D01*
X155658028Y-120102786D01*
X155537715Y-120268386D01*
X155444781Y-120450776D01*
X155381522Y-120645465D01*
X155349500Y-120847648D01*
X155349500Y-121052351D01*
X155381522Y-121254534D01*
X155444781Y-121449223D01*
X155537715Y-121631613D01*
X155658028Y-121797213D01*
X155802786Y-121941971D01*
X155957749Y-122054556D01*
X155968390Y-122062287D01*
X156065380Y-122111706D01*
X156150776Y-122155218D01*
X156150778Y-122155218D01*
X156150781Y-122155220D01*
X156255137Y-122189127D01*
X156345465Y-122218477D01*
X156446557Y-122234488D01*
X156547648Y-122250500D01*
X156547649Y-122250500D01*
X156752351Y-122250500D01*
X156752352Y-122250500D01*
X156954534Y-122218477D01*
X156968842Y-122213827D01*
X157038682Y-122211831D01*
X157094842Y-122244077D01*
X157449934Y-122599169D01*
X157483419Y-122660492D01*
X157478435Y-122730184D01*
X157436563Y-122786117D01*
X157394348Y-122806624D01*
X157268220Y-122840421D01*
X157268209Y-122840426D01*
X157131283Y-122919479D01*
X157131282Y-122919479D01*
X157094838Y-122955923D01*
X157033514Y-122989407D01*
X156968843Y-122986172D01*
X156954533Y-122981522D01*
X156784374Y-122954571D01*
X156752352Y-122949500D01*
X156547648Y-122949500D01*
X156523329Y-122953351D01*
X156345465Y-122981522D01*
X156150776Y-123044781D01*
X155968386Y-123137715D01*
X155802786Y-123258028D01*
X155658028Y-123402786D01*
X155537715Y-123568386D01*
X155444781Y-123750776D01*
X155381522Y-123945465D01*
X155349500Y-124147648D01*
X155349500Y-124352351D01*
X155381522Y-124554534D01*
X155444781Y-124749223D01*
X155537715Y-124931613D01*
X155658028Y-125097213D01*
X155802786Y-125241971D01*
X155928916Y-125333608D01*
X155968390Y-125362287D01*
X156084607Y-125421503D01*
X156150776Y-125455218D01*
X156150778Y-125455218D01*
X156150781Y-125455220D01*
X156255137Y-125489127D01*
X156345465Y-125518477D01*
X156446557Y-125534488D01*
X156547648Y-125550500D01*
X156547649Y-125550500D01*
X156752351Y-125550500D01*
X156752352Y-125550500D01*
X156954534Y-125518477D01*
X157149219Y-125455220D01*
X157331610Y-125362287D01*
X157451063Y-125275500D01*
X157497213Y-125241971D01*
X157497215Y-125241968D01*
X157497219Y-125241966D01*
X157641966Y-125097219D01*
X157641968Y-125097215D01*
X157641971Y-125097213D01*
X157694732Y-125024590D01*
X157762287Y-124931610D01*
X157855220Y-124749219D01*
X157918477Y-124554534D01*
X157950500Y-124352352D01*
X157950500Y-124147648D01*
X157949905Y-124143893D01*
X157958861Y-124074603D01*
X158003858Y-124021152D01*
X158070610Y-124000513D01*
X158072379Y-124000500D01*
X159020942Y-124000500D01*
X159020943Y-124000500D01*
X159313331Y-124000500D01*
X159313347Y-124000501D01*
X159320943Y-124000501D01*
X159479054Y-124000501D01*
X159479057Y-124000501D01*
X159631785Y-123959577D01*
X159681904Y-123930639D01*
X159768716Y-123880520D01*
X159880520Y-123768716D01*
X159880520Y-123768714D01*
X159890728Y-123758507D01*
X159890730Y-123758504D01*
X165358506Y-118290728D01*
X165358511Y-118290724D01*
X165368714Y-118280520D01*
X165368716Y-118280520D01*
X165480520Y-118168716D01*
X165538362Y-118068530D01*
X165555166Y-118039425D01*
X165555167Y-118039423D01*
X165555849Y-118038241D01*
X165559577Y-118031785D01*
X165600501Y-117879057D01*
X165600501Y-117720943D01*
X165600501Y-117713348D01*
X165600500Y-117713330D01*
X165600500Y-115552206D01*
X165620185Y-115485167D01*
X165672989Y-115439412D01*
X165742147Y-115429468D01*
X165805703Y-115458493D01*
X165831887Y-115490206D01*
X165899497Y-115607310D01*
X165899499Y-115607312D01*
X165899500Y-115607314D01*
X165992686Y-115700500D01*
X166106814Y-115766392D01*
X166234108Y-115800500D01*
X166365892Y-115800500D01*
X167775500Y-115800500D01*
X167842539Y-115820185D01*
X167888294Y-115872989D01*
X167899500Y-115924500D01*
X167899500Y-119565891D01*
X167933608Y-119693187D01*
X167963396Y-119744780D01*
X167999500Y-119807314D01*
X168092686Y-119900500D01*
X168206814Y-119966392D01*
X168334108Y-120000500D01*
X168465892Y-120000500D01*
X169875500Y-120000500D01*
X169942539Y-120020185D01*
X169988294Y-120072989D01*
X169999500Y-120124500D01*
X169999500Y-121665891D01*
X170033608Y-121793187D01*
X170035936Y-121797219D01*
X170099500Y-121907314D01*
X170192686Y-122000500D01*
X170306814Y-122066392D01*
X170434108Y-122100500D01*
X171975500Y-122100500D01*
X172042539Y-122120185D01*
X172088294Y-122172989D01*
X172099500Y-122224500D01*
X172099500Y-123765891D01*
X172133608Y-123893187D01*
X172155233Y-123930642D01*
X172199500Y-124007314D01*
X172292686Y-124100500D01*
X172406814Y-124166392D01*
X172534108Y-124200500D01*
X172665892Y-124200500D01*
X174175500Y-124200500D01*
X174242539Y-124220185D01*
X174288294Y-124272989D01*
X174299500Y-124324500D01*
X174299500Y-125275500D01*
X174279815Y-125342539D01*
X174227011Y-125388294D01*
X174175500Y-125399500D01*
X170434108Y-125399500D01*
X170306812Y-125433608D01*
X170192686Y-125499500D01*
X170192683Y-125499502D01*
X170099502Y-125592683D01*
X170099500Y-125592686D01*
X170033608Y-125706812D01*
X169999500Y-125834108D01*
X169999500Y-127175500D01*
X169979815Y-127242539D01*
X169927011Y-127288294D01*
X169875500Y-127299500D01*
X164134108Y-127299500D01*
X164006812Y-127333608D01*
X163892686Y-127399500D01*
X163892683Y-127399502D01*
X163799502Y-127492683D01*
X163799500Y-127492686D01*
X163733608Y-127606812D01*
X163699500Y-127734108D01*
X163699500Y-129275500D01*
X163679815Y-129342539D01*
X163627011Y-129388294D01*
X163575500Y-129399500D01*
X162034108Y-129399500D01*
X161906812Y-129433608D01*
X161792686Y-129499500D01*
X161792683Y-129499502D01*
X161699502Y-129592683D01*
X161699500Y-129592686D01*
X161633608Y-129706812D01*
X161599500Y-129834108D01*
X161599500Y-134165891D01*
X161633608Y-134293187D01*
X161666554Y-134350250D01*
X161699500Y-134407314D01*
X161792686Y-134500500D01*
X161906814Y-134566392D01*
X162034108Y-134600500D01*
X162165892Y-134600500D01*
X165675500Y-134600500D01*
X165742539Y-134620185D01*
X165788294Y-134672989D01*
X165799500Y-134724500D01*
X165799500Y-136365891D01*
X165833608Y-136493187D01*
X165866554Y-136550250D01*
X165899500Y-136607314D01*
X165992686Y-136700500D01*
X166106814Y-136766392D01*
X166234108Y-136800500D01*
X166365892Y-136800500D01*
X167775500Y-136800500D01*
X167842539Y-136820185D01*
X167888294Y-136872989D01*
X167899500Y-136924500D01*
X167899500Y-139875500D01*
X167879815Y-139942539D01*
X167827011Y-139988294D01*
X167775500Y-139999500D01*
X156524500Y-139999500D01*
X156457461Y-139979815D01*
X156411706Y-139927011D01*
X156400500Y-139875500D01*
X156400500Y-138334110D01*
X156400500Y-138334108D01*
X156366392Y-138206814D01*
X156300500Y-138092686D01*
X156207314Y-137999500D01*
X156150250Y-137966554D01*
X156093187Y-137933608D01*
X156029539Y-137916554D01*
X155965892Y-137899500D01*
X155965891Y-137899500D01*
X154424500Y-137899500D01*
X154357461Y-137879815D01*
X154311706Y-137827011D01*
X154300500Y-137775500D01*
X154300500Y-131934110D01*
X154300500Y-131934108D01*
X154266392Y-131806814D01*
X154200500Y-131692686D01*
X154107314Y-131599500D01*
X154050250Y-131566554D01*
X153993187Y-131533608D01*
X153929539Y-131516554D01*
X153865892Y-131499500D01*
X151665892Y-131499500D01*
X151534108Y-131499500D01*
X151406812Y-131533608D01*
X151292686Y-131599500D01*
X151292683Y-131599502D01*
X151199502Y-131692683D01*
X151199500Y-131692686D01*
X151133608Y-131806812D01*
X151099500Y-131934108D01*
X151099500Y-137775500D01*
X151079815Y-137842539D01*
X151027011Y-137888294D01*
X150975500Y-137899500D01*
X149434108Y-137899500D01*
X149306812Y-137933608D01*
X149192686Y-137999500D01*
X149192683Y-137999502D01*
X149099502Y-138092683D01*
X149099500Y-138092686D01*
X149033608Y-138206812D01*
X148999500Y-138334108D01*
X148999500Y-139875500D01*
X148979815Y-139942539D01*
X148927011Y-139988294D01*
X148875500Y-139999500D01*
X137624500Y-139999500D01*
X137557461Y-139979815D01*
X137511706Y-139927011D01*
X137500500Y-139875500D01*
X137500500Y-136924500D01*
X137520185Y-136857461D01*
X137572989Y-136811706D01*
X137624500Y-136800500D01*
X139165890Y-136800500D01*
X139165892Y-136800500D01*
X139293186Y-136766392D01*
X139407314Y-136700500D01*
X139500500Y-136607314D01*
X139566392Y-136493186D01*
X139600500Y-136365892D01*
X139600500Y-134824500D01*
X139620185Y-134757461D01*
X139672989Y-134711706D01*
X139724500Y-134700500D01*
X143265890Y-134700500D01*
X143265892Y-134700500D01*
X143393186Y-134666392D01*
X143507314Y-134600500D01*
X143600500Y-134507314D01*
X143666392Y-134393186D01*
X143700500Y-134265892D01*
X143700500Y-127734108D01*
X143666392Y-127606814D01*
X143600500Y-127492686D01*
X143507314Y-127399500D01*
X143450250Y-127366554D01*
X143393187Y-127333608D01*
X143329539Y-127316554D01*
X143265892Y-127299500D01*
X143265891Y-127299500D01*
X135524500Y-127299500D01*
X135457461Y-127279815D01*
X135411706Y-127227011D01*
X135400500Y-127175500D01*
X135400500Y-125734110D01*
X135400500Y-125734108D01*
X135366392Y-125606814D01*
X135300500Y-125492686D01*
X135207314Y-125399500D01*
X135142854Y-125362284D01*
X135093187Y-125333608D01*
X135029539Y-125316554D01*
X134965892Y-125299500D01*
X134965891Y-125299500D01*
X131324500Y-125299500D01*
X131257461Y-125279815D01*
X131211706Y-125227011D01*
X131200500Y-125175500D01*
X131200500Y-124324500D01*
X131220185Y-124257461D01*
X131272989Y-124211706D01*
X131324500Y-124200500D01*
X132865890Y-124200500D01*
X132865892Y-124200500D01*
X132993186Y-124166392D01*
X133107314Y-124100500D01*
X133200500Y-124007314D01*
X133266392Y-123893186D01*
X133300500Y-123765892D01*
X133300500Y-122224500D01*
X133320185Y-122157461D01*
X133372989Y-122111706D01*
X133424500Y-122100500D01*
X134965890Y-122100500D01*
X134965892Y-122100500D01*
X135093186Y-122066392D01*
X135207314Y-122000500D01*
X135300500Y-121907314D01*
X135366392Y-121793186D01*
X135400500Y-121665892D01*
X135400500Y-120124500D01*
X135420185Y-120057461D01*
X135472989Y-120011706D01*
X135524500Y-120000500D01*
X137065890Y-120000500D01*
X137065892Y-120000500D01*
X137193186Y-119966392D01*
X137307314Y-119900500D01*
X137400500Y-119807314D01*
X137466392Y-119693186D01*
X137500500Y-119565892D01*
X137500500Y-113824500D01*
X137520185Y-113757461D01*
X137572989Y-113711706D01*
X137624500Y-113700500D01*
X139165890Y-113700500D01*
X139165892Y-113700500D01*
X139293186Y-113666392D01*
X139407314Y-113600500D01*
X139500500Y-113507314D01*
X139566392Y-113393186D01*
X139600500Y-113265892D01*
X139600500Y-107424500D01*
X139620185Y-107357461D01*
X139672989Y-107311706D01*
X139724500Y-107300500D01*
X141165890Y-107300500D01*
X141165892Y-107300500D01*
X141293186Y-107266392D01*
X141407314Y-107200500D01*
X141500500Y-107107314D01*
X141566392Y-106993186D01*
X141600500Y-106865892D01*
X141600500Y-105324500D01*
X141620185Y-105257461D01*
X141672989Y-105211706D01*
X141724500Y-105200500D01*
X143076500Y-105200500D01*
X143143539Y-105220185D01*
G37*
G04 #@! TD.AperFunction*
G04 #@! TA.AperFunction,Conductor*
G36*
X151142539Y-52820185D02*
G01*
X151188294Y-52872989D01*
X151199500Y-52924500D01*
X151199500Y-54465891D01*
X151233608Y-54593187D01*
X151266554Y-54650250D01*
X151299500Y-54707314D01*
X151392686Y-54800500D01*
X151506814Y-54866392D01*
X151634108Y-54900500D01*
X151765892Y-54900500D01*
X153175500Y-54900500D01*
X153242539Y-54920185D01*
X153288294Y-54972989D01*
X153299500Y-55024500D01*
X153299500Y-58665891D01*
X153333608Y-58793187D01*
X153366554Y-58850250D01*
X153399500Y-58907314D01*
X153492686Y-59000500D01*
X153606814Y-59066392D01*
X153734108Y-59100500D01*
X153865892Y-59100500D01*
X155275500Y-59100500D01*
X155342539Y-59120185D01*
X155388294Y-59172989D01*
X155399500Y-59224500D01*
X155399500Y-64865891D01*
X155433608Y-64993187D01*
X155466554Y-65050250D01*
X155499500Y-65107314D01*
X155592686Y-65200500D01*
X155706814Y-65266392D01*
X155834108Y-65300500D01*
X155834110Y-65300500D01*
X158065890Y-65300500D01*
X158065892Y-65300500D01*
X158193186Y-65266392D01*
X158307314Y-65200500D01*
X158400500Y-65107314D01*
X158466392Y-64993186D01*
X158500500Y-64865892D01*
X158500500Y-63324500D01*
X158520185Y-63257461D01*
X158572989Y-63211706D01*
X158624500Y-63200500D01*
X161375500Y-63200500D01*
X161442539Y-63220185D01*
X161488294Y-63272989D01*
X161499500Y-63324500D01*
X161499500Y-66965891D01*
X161533608Y-67093187D01*
X161566554Y-67150250D01*
X161599500Y-67207314D01*
X161692686Y-67300500D01*
X161806814Y-67366392D01*
X161934108Y-67400500D01*
X162065892Y-67400500D01*
X163575500Y-67400500D01*
X163642539Y-67420185D01*
X163688294Y-67472989D01*
X163699500Y-67524500D01*
X163699500Y-69065891D01*
X163733608Y-69193187D01*
X163755642Y-69231350D01*
X163799500Y-69307314D01*
X163892686Y-69400500D01*
X164006814Y-69466392D01*
X164134108Y-69500500D01*
X164265892Y-69500500D01*
X172075500Y-69500500D01*
X172142539Y-69520185D01*
X172188294Y-69572989D01*
X172199500Y-69624500D01*
X172199500Y-70575500D01*
X172179815Y-70642539D01*
X172127011Y-70688294D01*
X172075500Y-70699500D01*
X170434108Y-70699500D01*
X170306812Y-70733608D01*
X170192686Y-70799500D01*
X170192683Y-70799502D01*
X170099502Y-70892683D01*
X170099500Y-70892686D01*
X170033608Y-71006812D01*
X169999500Y-71134108D01*
X169999500Y-72675500D01*
X169979815Y-72742539D01*
X169927011Y-72788294D01*
X169875500Y-72799500D01*
X168334108Y-72799500D01*
X168206812Y-72833608D01*
X168092680Y-72899503D01*
X168088048Y-72903058D01*
X168022878Y-72928249D01*
X167954434Y-72914208D01*
X167904446Y-72865392D01*
X167890094Y-72824080D01*
X167866015Y-72672049D01*
X167860444Y-72654903D01*
X167797896Y-72462396D01*
X167797895Y-72462393D01*
X167760895Y-72389778D01*
X167697815Y-72265978D01*
X167629571Y-72172047D01*
X167568247Y-72087641D01*
X167568243Y-72087636D01*
X167412363Y-71931756D01*
X167412358Y-71931752D01*
X167234025Y-71802187D01*
X167234024Y-71802186D01*
X167234022Y-71802185D01*
X167116791Y-71742452D01*
X167037606Y-71702104D01*
X167037603Y-71702103D01*
X166827952Y-71633985D01*
X166719086Y-71616742D01*
X166610222Y-71599500D01*
X166389778Y-71599500D01*
X166317201Y-71610995D01*
X166172047Y-71633985D01*
X165962396Y-71702103D01*
X165962393Y-71702104D01*
X165765974Y-71802187D01*
X165587641Y-71931752D01*
X165587636Y-71931756D01*
X165537463Y-71981929D01*
X165476140Y-72015413D01*
X165406448Y-72010428D01*
X165350515Y-71968557D01*
X165333601Y-71937580D01*
X165303797Y-71857671D01*
X165303793Y-71857664D01*
X165217547Y-71742455D01*
X165217544Y-71742452D01*
X165102335Y-71656206D01*
X165102328Y-71656202D01*
X164967482Y-71605908D01*
X164967483Y-71605908D01*
X164907883Y-71599501D01*
X164907881Y-71599500D01*
X164907873Y-71599500D01*
X164907864Y-71599500D01*
X163012129Y-71599500D01*
X163012123Y-71599501D01*
X162952516Y-71605908D01*
X162817671Y-71656202D01*
X162817664Y-71656206D01*
X162702455Y-71742452D01*
X162702452Y-71742455D01*
X162616206Y-71857664D01*
X162616202Y-71857671D01*
X162565908Y-71992517D01*
X162559501Y-72052116D01*
X162559500Y-72052135D01*
X162559500Y-73947870D01*
X162559501Y-73947876D01*
X162565908Y-74007483D01*
X162616202Y-74142328D01*
X162616206Y-74142335D01*
X162702452Y-74257544D01*
X162702455Y-74257547D01*
X162817664Y-74343793D01*
X162817671Y-74343797D01*
X162952517Y-74394091D01*
X162952516Y-74394091D01*
X162959444Y-74394835D01*
X163012127Y-74400500D01*
X164907872Y-74400499D01*
X164967483Y-74394091D01*
X165102331Y-74343796D01*
X165217546Y-74257546D01*
X165303796Y-74142331D01*
X165331429Y-74068243D01*
X165333601Y-74062420D01*
X165375471Y-74006486D01*
X165440936Y-73982068D01*
X165509209Y-73996919D01*
X165537464Y-74018071D01*
X165587636Y-74068243D01*
X165587641Y-74068247D01*
X165765976Y-74197814D01*
X165831794Y-74231350D01*
X165882591Y-74279324D01*
X165899500Y-74341835D01*
X165899500Y-78293330D01*
X165899499Y-78293348D01*
X165899499Y-78459054D01*
X165899498Y-78459054D01*
X165940423Y-78611785D01*
X165969358Y-78661900D01*
X165969359Y-78661904D01*
X165969360Y-78661904D01*
X166019479Y-78748714D01*
X166019481Y-78748717D01*
X166138349Y-78867585D01*
X166138355Y-78867590D01*
X169705922Y-82435157D01*
X169739407Y-82496480D01*
X169736173Y-82561155D01*
X169731522Y-82575468D01*
X169699500Y-82777648D01*
X169699500Y-82982351D01*
X169731522Y-83184534D01*
X169794781Y-83379223D01*
X169887715Y-83561613D01*
X170008028Y-83727213D01*
X170152786Y-83871971D01*
X170307749Y-83984556D01*
X170318390Y-83992287D01*
X170399297Y-84033511D01*
X170500776Y-84085218D01*
X170500778Y-84085218D01*
X170500781Y-84085220D01*
X170605137Y-84119127D01*
X170695465Y-84148477D01*
X170796557Y-84164488D01*
X170897648Y-84180500D01*
X170897649Y-84180500D01*
X171102351Y-84180500D01*
X171102352Y-84180500D01*
X171304534Y-84148477D01*
X171499219Y-84085220D01*
X171681610Y-83992287D01*
X171818012Y-83893186D01*
X171847213Y-83871971D01*
X171847215Y-83871968D01*
X171847219Y-83871966D01*
X171991966Y-83727219D01*
X171991966Y-83727218D01*
X171995411Y-83723774D01*
X171997132Y-83725495D01*
X172047069Y-83692642D01*
X172116935Y-83691894D01*
X172176114Y-83729036D01*
X172203050Y-83779143D01*
X172233608Y-83893186D01*
X172299500Y-84007314D01*
X172392686Y-84100500D01*
X172506814Y-84166392D01*
X172634108Y-84200500D01*
X174175500Y-84200500D01*
X174242539Y-84220185D01*
X174288294Y-84272989D01*
X174299500Y-84324500D01*
X174299500Y-87965891D01*
X174333608Y-88093187D01*
X174366554Y-88150250D01*
X174399500Y-88207314D01*
X174492686Y-88300500D01*
X174606814Y-88366392D01*
X174734108Y-88400500D01*
X174865892Y-88400500D01*
X176275500Y-88400500D01*
X176342539Y-88420185D01*
X176388294Y-88472989D01*
X176399500Y-88524500D01*
X176399500Y-89375500D01*
X176379815Y-89442539D01*
X176327011Y-89488294D01*
X176275500Y-89499500D01*
X174734108Y-89499500D01*
X174606812Y-89533608D01*
X174492686Y-89599500D01*
X174492683Y-89599502D01*
X174399502Y-89692683D01*
X174399500Y-89692686D01*
X174333608Y-89806812D01*
X174313304Y-89882591D01*
X174299500Y-89934108D01*
X174299500Y-92034108D01*
X174299500Y-92165892D01*
X174316554Y-92229539D01*
X174333608Y-92293187D01*
X174339035Y-92302586D01*
X174399500Y-92407314D01*
X174492686Y-92500500D01*
X174606814Y-92566392D01*
X174734108Y-92600500D01*
X176275500Y-92600500D01*
X176342539Y-92620185D01*
X176388294Y-92672989D01*
X176399500Y-92724500D01*
X176399500Y-93675500D01*
X176379815Y-93742539D01*
X176327011Y-93788294D01*
X176275500Y-93799500D01*
X174734108Y-93799500D01*
X174606812Y-93833608D01*
X174492686Y-93899500D01*
X174492683Y-93899502D01*
X174399502Y-93992683D01*
X174399500Y-93992686D01*
X174333608Y-94106812D01*
X174299500Y-94234108D01*
X174299500Y-95775500D01*
X174279815Y-95842539D01*
X174227011Y-95888294D01*
X174175500Y-95899500D01*
X170434108Y-95899500D01*
X170306812Y-95933608D01*
X170192686Y-95999500D01*
X170192683Y-95999502D01*
X170099502Y-96092683D01*
X170099500Y-96092686D01*
X170033608Y-96206812D01*
X169999500Y-96334108D01*
X169999500Y-97875500D01*
X169979815Y-97942539D01*
X169927011Y-97988294D01*
X169875500Y-97999500D01*
X169024500Y-97999500D01*
X168957461Y-97979815D01*
X168911706Y-97927011D01*
X168900500Y-97875500D01*
X168900500Y-96334110D01*
X168900500Y-96334108D01*
X168866392Y-96206814D01*
X168800500Y-96092686D01*
X168707314Y-95999500D01*
X168650250Y-95966554D01*
X168593187Y-95933608D01*
X168529539Y-95916554D01*
X168465892Y-95899500D01*
X166365892Y-95899500D01*
X166234108Y-95899500D01*
X166106812Y-95933608D01*
X165992686Y-95999500D01*
X165992683Y-95999502D01*
X165899502Y-96092683D01*
X165899500Y-96092686D01*
X165833608Y-96206812D01*
X165799500Y-96334108D01*
X165799500Y-97875500D01*
X165779815Y-97942539D01*
X165727011Y-97988294D01*
X165675500Y-97999500D01*
X164134108Y-97999500D01*
X164006812Y-98033608D01*
X163892686Y-98099500D01*
X163892683Y-98099502D01*
X163799502Y-98192683D01*
X163799500Y-98192686D01*
X163733608Y-98306812D01*
X163699500Y-98434108D01*
X163699500Y-102075500D01*
X163679815Y-102142539D01*
X163627011Y-102188294D01*
X163575500Y-102199500D01*
X162034108Y-102199500D01*
X161906812Y-102233608D01*
X161792686Y-102299500D01*
X161792683Y-102299502D01*
X161699502Y-102392683D01*
X161699500Y-102392686D01*
X161633608Y-102506812D01*
X161599500Y-102634108D01*
X161599500Y-104765891D01*
X161633608Y-104893187D01*
X161666554Y-104950250D01*
X161699500Y-105007314D01*
X161792686Y-105100500D01*
X161906814Y-105166392D01*
X162034108Y-105200500D01*
X162165892Y-105200500D01*
X163575500Y-105200500D01*
X163642539Y-105220185D01*
X163688294Y-105272989D01*
X163699500Y-105324500D01*
X163699500Y-111150903D01*
X163679815Y-111217942D01*
X163627011Y-111263697D01*
X163557853Y-111273641D01*
X163494297Y-111244616D01*
X163487819Y-111238584D01*
X161768718Y-109519483D01*
X161768716Y-109519481D01*
X161631785Y-109440423D01*
X161479057Y-109399499D01*
X161320943Y-109399499D01*
X161206397Y-109430192D01*
X161168214Y-109440423D01*
X161031284Y-109519481D01*
X161031281Y-109519483D01*
X160587584Y-109963181D01*
X160526261Y-109996666D01*
X160499903Y-109999500D01*
X155397309Y-109999500D01*
X155330270Y-109979815D01*
X155309628Y-109963181D01*
X154746447Y-109400000D01*
X154752661Y-109400000D01*
X154854394Y-109372741D01*
X154945606Y-109320080D01*
X155020080Y-109245606D01*
X155072741Y-109154394D01*
X155100000Y-109052661D01*
X155100000Y-109046447D01*
X155743678Y-109690126D01*
X155743678Y-109690125D01*
X155769095Y-109655143D01*
X155858418Y-109479835D01*
X155919221Y-109292705D01*
X155950000Y-109098382D01*
X155950000Y-108901617D01*
X155919221Y-108707294D01*
X155858418Y-108520164D01*
X155769096Y-108344858D01*
X155743678Y-108309873D01*
X155743677Y-108309873D01*
X155100000Y-108953551D01*
X155100000Y-108947339D01*
X155072741Y-108845606D01*
X155020080Y-108754394D01*
X154945606Y-108679920D01*
X154854394Y-108627259D01*
X154752661Y-108600000D01*
X154746447Y-108600000D01*
X155390125Y-107956320D01*
X155390125Y-107956319D01*
X155355145Y-107930905D01*
X155179835Y-107841581D01*
X154992705Y-107780778D01*
X154798382Y-107750000D01*
X154601618Y-107750000D01*
X154407294Y-107780778D01*
X154220161Y-107841582D01*
X154044863Y-107930899D01*
X154044859Y-107930902D01*
X154009873Y-107956320D01*
X154009872Y-107956320D01*
X154653554Y-108600000D01*
X154647339Y-108600000D01*
X154545606Y-108627259D01*
X154454394Y-108679920D01*
X154379920Y-108754394D01*
X154327259Y-108845606D01*
X154300000Y-108947339D01*
X154300000Y-108953552D01*
X153656320Y-108309872D01*
X153656320Y-108309873D01*
X153630902Y-108344859D01*
X153630899Y-108344863D01*
X153541582Y-108520161D01*
X153480778Y-108707294D01*
X153450000Y-108901617D01*
X153450000Y-109098382D01*
X153480778Y-109292705D01*
X153541581Y-109479835D01*
X153630905Y-109655145D01*
X153656319Y-109690125D01*
X153656320Y-109690125D01*
X154300000Y-109046445D01*
X154300000Y-109052661D01*
X154327259Y-109154394D01*
X154379920Y-109245606D01*
X154454394Y-109320080D01*
X154545606Y-109372741D01*
X154647339Y-109400000D01*
X154653553Y-109400000D01*
X154090372Y-109963181D01*
X154029049Y-109996666D01*
X154002691Y-109999500D01*
X152362887Y-109999500D01*
X152295848Y-109979815D01*
X152250093Y-109927011D01*
X152240149Y-109857853D01*
X152262567Y-109802616D01*
X152369524Y-109655405D01*
X152458884Y-109480025D01*
X152519709Y-109292826D01*
X152527188Y-109245606D01*
X152550500Y-109098422D01*
X152550500Y-108901577D01*
X152519709Y-108707173D01*
X152458882Y-108519970D01*
X152393194Y-108391051D01*
X152369524Y-108344595D01*
X152253828Y-108185354D01*
X152114646Y-108046172D01*
X151955405Y-107930476D01*
X151780029Y-107841117D01*
X151592826Y-107780290D01*
X151398422Y-107749500D01*
X151398417Y-107749500D01*
X151201583Y-107749500D01*
X151201578Y-107749500D01*
X151007173Y-107780290D01*
X150819970Y-107841117D01*
X150644594Y-107930476D01*
X150553741Y-107996485D01*
X150485354Y-108046172D01*
X150485352Y-108046174D01*
X150485351Y-108046174D01*
X150346174Y-108185351D01*
X150346174Y-108185352D01*
X150346172Y-108185354D01*
X150230477Y-108344594D01*
X150227722Y-108348386D01*
X150172392Y-108391051D01*
X150127404Y-108399500D01*
X150079057Y-108399500D01*
X149920942Y-108399500D01*
X149768215Y-108440423D01*
X149768214Y-108440423D01*
X149768212Y-108440424D01*
X149768209Y-108440425D01*
X149718096Y-108469359D01*
X149718095Y-108469360D01*
X149674689Y-108494420D01*
X149631285Y-108519479D01*
X149631282Y-108519481D01*
X144116444Y-114034320D01*
X144055121Y-114067805D01*
X143985429Y-114062821D01*
X143962792Y-114051633D01*
X143883606Y-114001878D01*
X143883607Y-114001878D01*
X143718658Y-113944159D01*
X143718648Y-113944157D01*
X143588558Y-113929500D01*
X143588552Y-113929500D01*
X142951448Y-113929500D01*
X142951441Y-113929500D01*
X142821351Y-113944157D01*
X142821341Y-113944159D01*
X142656395Y-114001877D01*
X142508423Y-114094853D01*
X142384853Y-114218423D01*
X142291877Y-114366395D01*
X142234159Y-114531341D01*
X142234157Y-114531351D01*
X142219500Y-114661441D01*
X142219500Y-115998558D01*
X142234157Y-116128648D01*
X142234158Y-116128655D01*
X142234159Y-116128657D01*
X142243041Y-116154041D01*
X142250000Y-116194994D01*
X142250000Y-116719670D01*
X142230255Y-116699925D01*
X142144745Y-116650556D01*
X142049370Y-116625000D01*
X141950630Y-116625000D01*
X141855255Y-116650556D01*
X141769745Y-116699925D01*
X141750000Y-116719670D01*
X141750000Y-115952788D01*
X141749500Y-115948138D01*
X141749500Y-114001096D01*
X141769185Y-113934057D01*
X141785814Y-113913420D01*
X144159506Y-111539727D01*
X144159511Y-111539724D01*
X144169714Y-111529520D01*
X144169716Y-111529520D01*
X144281520Y-111417716D01*
X144360577Y-111280784D01*
X144401500Y-111128057D01*
X144401500Y-95823580D01*
X146229973Y-95823580D01*
X146270786Y-95864393D01*
X146733515Y-96270196D01*
X147221775Y-96644851D01*
X147733487Y-96986766D01*
X147733512Y-96986782D01*
X148266497Y-97294501D01*
X148818473Y-97566705D01*
X149387068Y-97802225D01*
X149387079Y-97802229D01*
X149969853Y-98000055D01*
X149969861Y-98000057D01*
X150564346Y-98159349D01*
X150564364Y-98159353D01*
X151167953Y-98279414D01*
X151167964Y-98279416D01*
X151778140Y-98359747D01*
X152392288Y-98400000D01*
X153007714Y-98400000D01*
X153621861Y-98359747D01*
X154232037Y-98279416D01*
X154232048Y-98279414D01*
X154835637Y-98159353D01*
X154835655Y-98159349D01*
X155430140Y-98000057D01*
X155430148Y-98000055D01*
X156012922Y-97802229D01*
X156012933Y-97802225D01*
X156581528Y-97566705D01*
X157133504Y-97294501D01*
X157666489Y-96986782D01*
X157666514Y-96986766D01*
X158178226Y-96644851D01*
X158666486Y-96270196D01*
X159129208Y-95864400D01*
X159170028Y-95823579D01*
X152700001Y-89353553D01*
X146229973Y-95823580D01*
X144401500Y-95823580D01*
X144401500Y-93889349D01*
X144421185Y-93822310D01*
X144473989Y-93776555D01*
X144543147Y-93766611D01*
X144606703Y-93795636D01*
X144632887Y-93827349D01*
X144713218Y-93966488D01*
X144713234Y-93966513D01*
X145055149Y-94478225D01*
X145429804Y-94966485D01*
X145835607Y-95429214D01*
X145876420Y-95470027D01*
X152346447Y-89000000D01*
X152346447Y-88999999D01*
X145876420Y-82529972D01*
X145876419Y-82529972D01*
X145835629Y-82570762D01*
X145835602Y-82570791D01*
X145429804Y-83033514D01*
X145055149Y-83521774D01*
X144713234Y-84033486D01*
X144713218Y-84033511D01*
X144405499Y-84566496D01*
X144133295Y-85118472D01*
X143897775Y-85687067D01*
X143897771Y-85687078D01*
X143699945Y-86269852D01*
X143699943Y-86269860D01*
X143540651Y-86864345D01*
X143540647Y-86864363D01*
X143420586Y-87467952D01*
X143420584Y-87467963D01*
X143340253Y-88078139D01*
X143300001Y-88692287D01*
X143300001Y-89307712D01*
X143340253Y-89921860D01*
X143420584Y-90532036D01*
X143420586Y-90532047D01*
X143540647Y-91135636D01*
X143540651Y-91135654D01*
X143699943Y-91730139D01*
X143699945Y-91730147D01*
X143897771Y-92312921D01*
X143897775Y-92312932D01*
X144133295Y-92881527D01*
X144290052Y-93199399D01*
X144302048Y-93268231D01*
X144274927Y-93332622D01*
X144217298Y-93372128D01*
X144147460Y-93374207D01*
X144091159Y-93341924D01*
X142757509Y-92008274D01*
X142724024Y-91946951D01*
X142729008Y-91877259D01*
X142745923Y-91846282D01*
X142793797Y-91782331D01*
X142844092Y-91647483D01*
X142850501Y-91587873D01*
X142850500Y-86412128D01*
X142845300Y-86363757D01*
X142844092Y-86352516D01*
X142793798Y-86217671D01*
X142793794Y-86217664D01*
X142707548Y-86102455D01*
X142707545Y-86102452D01*
X142592336Y-86016206D01*
X142592329Y-86016202D01*
X142457483Y-85965908D01*
X142457485Y-85965908D01*
X142426245Y-85962550D01*
X142361694Y-85935812D01*
X142321846Y-85878419D01*
X142315501Y-85839261D01*
X142315501Y-83275095D01*
X142335186Y-83208056D01*
X142351815Y-83187419D01*
X148245158Y-77294075D01*
X148306479Y-77260592D01*
X148371151Y-77263825D01*
X148385466Y-77268477D01*
X148587648Y-77300500D01*
X148587649Y-77300500D01*
X148792351Y-77300500D01*
X148792352Y-77300500D01*
X148994534Y-77268477D01*
X149189219Y-77205220D01*
X149371610Y-77112287D01*
X149464590Y-77044732D01*
X149537213Y-76991971D01*
X149537215Y-76991968D01*
X149537219Y-76991966D01*
X149681966Y-76847219D01*
X149681968Y-76847215D01*
X149681971Y-76847213D01*
X149802284Y-76681614D01*
X149802285Y-76681613D01*
X149802287Y-76681610D01*
X149809117Y-76668204D01*
X149857091Y-76617409D01*
X149919602Y-76600500D01*
X153124904Y-76600500D01*
X153191943Y-76620185D01*
X153212585Y-76636819D01*
X156893951Y-80318185D01*
X156927436Y-80379508D01*
X156922452Y-80449200D01*
X156880580Y-80505133D01*
X156815116Y-80529550D01*
X156751426Y-80517078D01*
X156581528Y-80433294D01*
X156012933Y-80197774D01*
X156012922Y-80197770D01*
X155430148Y-79999944D01*
X155430140Y-79999942D01*
X154835655Y-79840650D01*
X154835637Y-79840646D01*
X154232048Y-79720585D01*
X154232037Y-79720583D01*
X153621861Y-79640252D01*
X153007714Y-79600000D01*
X152392288Y-79600000D01*
X151778140Y-79640252D01*
X151167964Y-79720583D01*
X151167953Y-79720585D01*
X150564364Y-79840646D01*
X150564346Y-79840650D01*
X149969861Y-79999942D01*
X149969853Y-79999944D01*
X149387079Y-80197770D01*
X149387068Y-80197774D01*
X148818473Y-80433294D01*
X148266497Y-80705498D01*
X147733512Y-81013217D01*
X147733487Y-81013233D01*
X147221775Y-81355148D01*
X146733515Y-81729803D01*
X146270792Y-82135601D01*
X146270763Y-82135628D01*
X146229973Y-82176417D01*
X146229973Y-82176418D01*
X152876778Y-88823223D01*
X159523580Y-95470027D01*
X159523581Y-95470027D01*
X159564401Y-95429207D01*
X159970197Y-94966485D01*
X160344852Y-94478225D01*
X160686767Y-93966513D01*
X160686783Y-93966488D01*
X160994502Y-93433503D01*
X161266706Y-92881527D01*
X161502226Y-92312932D01*
X161502230Y-92312921D01*
X161700056Y-91730147D01*
X161700058Y-91730139D01*
X161859350Y-91135654D01*
X161859354Y-91135636D01*
X161979415Y-90532047D01*
X161979417Y-90532036D01*
X162059748Y-89921860D01*
X162100001Y-89307712D01*
X162100001Y-88692287D01*
X162059748Y-88078139D01*
X161979417Y-87467963D01*
X161979415Y-87467952D01*
X161859354Y-86864363D01*
X161859350Y-86864345D01*
X161700058Y-86269860D01*
X161700056Y-86269852D01*
X161502230Y-85687078D01*
X161502226Y-85687067D01*
X161266706Y-85118472D01*
X161182922Y-84948574D01*
X161170926Y-84879742D01*
X161198047Y-84815351D01*
X161255676Y-84775845D01*
X161325514Y-84773766D01*
X161381815Y-84806049D01*
X162610384Y-86034618D01*
X162643869Y-86095941D01*
X162638885Y-86165633D01*
X162621973Y-86196605D01*
X162606209Y-86217664D01*
X162606203Y-86217672D01*
X162555909Y-86352517D01*
X162555378Y-86357461D01*
X162549502Y-86412123D01*
X162549501Y-86412135D01*
X162549501Y-91587870D01*
X162549502Y-91587876D01*
X162555909Y-91647483D01*
X162606203Y-91782328D01*
X162606207Y-91782335D01*
X162692453Y-91897544D01*
X162692456Y-91897547D01*
X162807665Y-91983793D01*
X162807672Y-91983797D01*
X162942518Y-92034091D01*
X162942517Y-92034091D01*
X162949445Y-92034835D01*
X163002128Y-92040500D01*
X164367873Y-92040499D01*
X164427484Y-92034091D01*
X164562332Y-91983796D01*
X164677547Y-91897546D01*
X164763797Y-91782331D01*
X164814092Y-91647483D01*
X164820501Y-91587873D01*
X164820501Y-89724500D01*
X164840186Y-89657461D01*
X164892990Y-89611706D01*
X164944501Y-89600500D01*
X165699903Y-89600500D01*
X165766942Y-89620185D01*
X165787584Y-89636819D01*
X166205922Y-90055157D01*
X166239407Y-90116480D01*
X166236173Y-90181155D01*
X166231522Y-90195468D01*
X166199500Y-90397648D01*
X166199500Y-90602351D01*
X166231522Y-90804534D01*
X166294781Y-90999223D01*
X166387715Y-91181613D01*
X166508028Y-91347213D01*
X166652786Y-91491971D01*
X166800790Y-91599500D01*
X166818390Y-91612287D01*
X166934607Y-91671503D01*
X167000776Y-91705218D01*
X167000778Y-91705218D01*
X167000781Y-91705220D01*
X167088150Y-91733608D01*
X167195465Y-91768477D01*
X167296557Y-91784488D01*
X167397648Y-91800500D01*
X167397649Y-91800500D01*
X167602351Y-91800500D01*
X167602352Y-91800500D01*
X167804534Y-91768477D01*
X167999219Y-91705220D01*
X168181610Y-91612287D01*
X168274590Y-91544732D01*
X168347213Y-91491971D01*
X168347215Y-91491968D01*
X168347219Y-91491966D01*
X168491966Y-91347219D01*
X168491968Y-91347215D01*
X168491971Y-91347213D01*
X168612284Y-91181614D01*
X168612285Y-91181613D01*
X168612287Y-91181610D01*
X168619117Y-91168204D01*
X168667091Y-91117409D01*
X168729602Y-91100500D01*
X169770398Y-91100500D01*
X169837437Y-91120185D01*
X169880883Y-91168205D01*
X169887715Y-91181614D01*
X170008028Y-91347213D01*
X170152786Y-91491971D01*
X170300790Y-91599500D01*
X170318390Y-91612287D01*
X170434607Y-91671503D01*
X170500776Y-91705218D01*
X170500778Y-91705218D01*
X170500781Y-91705220D01*
X170588150Y-91733608D01*
X170695465Y-91768477D01*
X170796557Y-91784488D01*
X170897648Y-91800500D01*
X170897649Y-91800500D01*
X171102351Y-91800500D01*
X171102352Y-91800500D01*
X171304534Y-91768477D01*
X171499219Y-91705220D01*
X171681610Y-91612287D01*
X171774590Y-91544732D01*
X171847213Y-91491971D01*
X171847215Y-91491968D01*
X171847219Y-91491966D01*
X171991966Y-91347219D01*
X171991968Y-91347215D01*
X171991971Y-91347213D01*
X172044732Y-91274590D01*
X172112287Y-91181610D01*
X172205220Y-90999219D01*
X172268477Y-90804534D01*
X172300500Y-90602352D01*
X172300500Y-90397648D01*
X172268477Y-90195466D01*
X172205220Y-90000781D01*
X172205218Y-90000778D01*
X172205218Y-90000776D01*
X172160163Y-89912352D01*
X172112287Y-89818390D01*
X172103875Y-89806812D01*
X171991971Y-89652786D01*
X171847213Y-89508028D01*
X171681613Y-89387715D01*
X171681612Y-89387714D01*
X171681610Y-89387713D01*
X171614567Y-89353553D01*
X171499223Y-89294781D01*
X171304534Y-89231522D01*
X171129995Y-89203878D01*
X171102352Y-89199500D01*
X170897648Y-89199500D01*
X170873329Y-89203351D01*
X170695465Y-89231522D01*
X170500776Y-89294781D01*
X170318386Y-89387715D01*
X170152786Y-89508028D01*
X170008028Y-89652786D01*
X169887715Y-89818385D01*
X169880883Y-89831795D01*
X169832909Y-89882591D01*
X169770398Y-89899500D01*
X168729602Y-89899500D01*
X168662563Y-89879815D01*
X168619117Y-89831795D01*
X168612284Y-89818385D01*
X168491971Y-89652786D01*
X168347213Y-89508028D01*
X168181613Y-89387715D01*
X168181612Y-89387714D01*
X168181610Y-89387713D01*
X168114567Y-89353553D01*
X167999223Y-89294781D01*
X167804534Y-89231522D01*
X167629995Y-89203878D01*
X167602352Y-89199500D01*
X167397648Y-89199500D01*
X167359599Y-89205526D01*
X167195468Y-89231522D01*
X167186717Y-89234365D01*
X167181154Y-89236173D01*
X167111313Y-89238167D01*
X167055157Y-89205922D01*
X166487590Y-88638355D01*
X166487588Y-88638352D01*
X166368717Y-88519481D01*
X166368716Y-88519480D01*
X166281904Y-88469360D01*
X166281904Y-88469359D01*
X166281900Y-88469358D01*
X166231785Y-88440423D01*
X166079057Y-88399499D01*
X165920943Y-88399499D01*
X165913347Y-88399499D01*
X165913331Y-88399500D01*
X164944500Y-88399500D01*
X164877461Y-88379815D01*
X164831706Y-88327011D01*
X164820500Y-88275500D01*
X164820500Y-86412129D01*
X164820499Y-86412123D01*
X164820498Y-86412116D01*
X164815300Y-86363757D01*
X164814092Y-86352516D01*
X164763798Y-86217671D01*
X164763794Y-86217664D01*
X164677548Y-86102455D01*
X164677545Y-86102452D01*
X164562336Y-86016206D01*
X164562329Y-86016202D01*
X164427483Y-85965908D01*
X164427484Y-85965908D01*
X164367884Y-85959501D01*
X164367882Y-85959500D01*
X164367874Y-85959500D01*
X164367866Y-85959500D01*
X164276497Y-85959500D01*
X164209458Y-85939815D01*
X164186233Y-85920520D01*
X164176330Y-85910006D01*
X164165521Y-85891284D01*
X164053717Y-85779480D01*
X164053714Y-85779478D01*
X155685205Y-77410969D01*
X155651720Y-77349646D01*
X155656704Y-77279954D01*
X155698576Y-77224021D01*
X155764040Y-77199604D01*
X155811201Y-77205356D01*
X155918888Y-77240346D01*
X156005465Y-77268477D01*
X156106557Y-77284488D01*
X156207648Y-77300500D01*
X156207649Y-77300500D01*
X156412351Y-77300500D01*
X156412352Y-77300500D01*
X156614534Y-77268477D01*
X156809219Y-77205220D01*
X156991610Y-77112287D01*
X157084590Y-77044732D01*
X157157213Y-76991971D01*
X157157215Y-76991968D01*
X157157219Y-76991966D01*
X157301966Y-76847219D01*
X157301968Y-76847215D01*
X157301971Y-76847213D01*
X157354732Y-76774590D01*
X157422287Y-76681610D01*
X157515220Y-76499219D01*
X157578477Y-76304534D01*
X157610500Y-76102352D01*
X157610500Y-75897648D01*
X157578477Y-75695466D01*
X157515220Y-75500781D01*
X157515218Y-75500778D01*
X157515218Y-75500776D01*
X157481503Y-75434607D01*
X157422287Y-75318390D01*
X157414556Y-75307749D01*
X157301971Y-75152786D01*
X157157213Y-75008028D01*
X156991612Y-74887714D01*
X156809223Y-74794781D01*
X156614534Y-74731522D01*
X156439995Y-74703878D01*
X156412352Y-74699500D01*
X156207648Y-74699500D01*
X156169599Y-74705526D01*
X156005468Y-74731522D01*
X155996717Y-74734365D01*
X155991154Y-74736173D01*
X155921313Y-74738167D01*
X155865157Y-74705922D01*
X153901819Y-72742584D01*
X153868334Y-72681261D01*
X153865500Y-72654903D01*
X153865500Y-68552135D01*
X156099500Y-68552135D01*
X156099500Y-70447870D01*
X156099501Y-70447876D01*
X156105908Y-70507483D01*
X156156202Y-70642328D01*
X156156206Y-70642335D01*
X156242452Y-70757544D01*
X156242455Y-70757547D01*
X156357664Y-70843793D01*
X156357671Y-70843797D01*
X156492517Y-70894091D01*
X156492516Y-70894091D01*
X156499444Y-70894835D01*
X156552127Y-70900500D01*
X158447872Y-70900499D01*
X158507483Y-70894091D01*
X158642331Y-70843796D01*
X158757546Y-70757546D01*
X158843796Y-70642331D01*
X158871429Y-70568243D01*
X158873601Y-70562420D01*
X158915471Y-70506486D01*
X158980936Y-70482068D01*
X159049209Y-70496919D01*
X159077464Y-70518071D01*
X159127636Y-70568243D01*
X159127641Y-70568247D01*
X159305976Y-70697814D01*
X159371794Y-70731350D01*
X159422591Y-70779324D01*
X159439500Y-70841835D01*
X159439500Y-75333330D01*
X159439499Y-75333348D01*
X159439499Y-75499054D01*
X159439498Y-75499054D01*
X159480423Y-75651785D01*
X159505641Y-75695462D01*
X159505642Y-75695466D01*
X159505643Y-75695466D01*
X159512484Y-75707316D01*
X159559479Y-75788714D01*
X159559481Y-75788717D01*
X159678349Y-75907585D01*
X159678355Y-75907590D01*
X166205922Y-82435157D01*
X166239407Y-82496480D01*
X166236173Y-82561155D01*
X166231522Y-82575468D01*
X166199500Y-82777648D01*
X166199500Y-82982351D01*
X166231522Y-83184534D01*
X166294781Y-83379223D01*
X166387715Y-83561613D01*
X166508028Y-83727213D01*
X166652786Y-83871971D01*
X166807749Y-83984556D01*
X166818390Y-83992287D01*
X166899297Y-84033511D01*
X167000776Y-84085218D01*
X167000778Y-84085218D01*
X167000781Y-84085220D01*
X167105137Y-84119127D01*
X167195465Y-84148477D01*
X167296557Y-84164488D01*
X167397648Y-84180500D01*
X167397649Y-84180500D01*
X167602351Y-84180500D01*
X167602352Y-84180500D01*
X167804534Y-84148477D01*
X167999219Y-84085220D01*
X168181610Y-83992287D01*
X168318012Y-83893186D01*
X168347213Y-83871971D01*
X168347215Y-83871968D01*
X168347219Y-83871966D01*
X168491966Y-83727219D01*
X168491968Y-83727215D01*
X168491971Y-83727213D01*
X168544732Y-83654590D01*
X168612287Y-83561610D01*
X168705220Y-83379219D01*
X168768477Y-83184534D01*
X168800500Y-82982352D01*
X168800500Y-82777648D01*
X168781630Y-82658509D01*
X168768477Y-82575465D01*
X168705218Y-82380776D01*
X168660163Y-82292352D01*
X168612287Y-82198390D01*
X168596323Y-82176417D01*
X168491971Y-82032786D01*
X168347213Y-81888028D01*
X168181613Y-81767715D01*
X168181612Y-81767714D01*
X168181610Y-81767713D01*
X168107208Y-81729803D01*
X167999223Y-81674781D01*
X167804534Y-81611522D01*
X167629995Y-81583878D01*
X167602352Y-81579500D01*
X167397648Y-81579500D01*
X167359599Y-81585526D01*
X167195468Y-81611522D01*
X167186717Y-81614365D01*
X167181154Y-81616173D01*
X167111313Y-81618167D01*
X167055157Y-81585922D01*
X160676819Y-75207584D01*
X160643334Y-75146261D01*
X160640500Y-75119903D01*
X160640500Y-70841835D01*
X160660185Y-70774796D01*
X160708206Y-70731350D01*
X160708547Y-70731175D01*
X160774022Y-70697815D01*
X160952365Y-70568242D01*
X161108242Y-70412365D01*
X161237815Y-70234022D01*
X161337895Y-70037606D01*
X161406015Y-69827951D01*
X161440500Y-69610222D01*
X161440500Y-69389778D01*
X161406015Y-69172049D01*
X161349113Y-68996919D01*
X161337896Y-68962396D01*
X161337895Y-68962393D01*
X161258622Y-68806814D01*
X161237815Y-68765978D01*
X161179501Y-68685715D01*
X161108247Y-68587641D01*
X161108243Y-68587636D01*
X160952363Y-68431756D01*
X160952358Y-68431752D01*
X160774025Y-68302187D01*
X160774024Y-68302186D01*
X160774022Y-68302185D01*
X160656791Y-68242452D01*
X160577606Y-68202104D01*
X160577603Y-68202103D01*
X160367952Y-68133985D01*
X160259086Y-68116742D01*
X160150222Y-68099500D01*
X159929778Y-68099500D01*
X159862082Y-68110222D01*
X159712047Y-68133985D01*
X159502396Y-68202103D01*
X159502393Y-68202104D01*
X159305974Y-68302187D01*
X159127641Y-68431752D01*
X159127636Y-68431756D01*
X159077463Y-68481929D01*
X159016140Y-68515413D01*
X158946448Y-68510428D01*
X158890515Y-68468557D01*
X158873601Y-68437580D01*
X158843797Y-68357671D01*
X158843793Y-68357664D01*
X158757547Y-68242455D01*
X158757544Y-68242452D01*
X158642335Y-68156206D01*
X158642328Y-68156202D01*
X158507482Y-68105908D01*
X158507483Y-68105908D01*
X158447883Y-68099501D01*
X158447881Y-68099500D01*
X158447873Y-68099500D01*
X158447864Y-68099500D01*
X156552129Y-68099500D01*
X156552123Y-68099501D01*
X156492516Y-68105908D01*
X156357671Y-68156202D01*
X156357664Y-68156206D01*
X156242455Y-68242452D01*
X156242452Y-68242455D01*
X156156206Y-68357664D01*
X156156202Y-68357671D01*
X156105908Y-68492517D01*
X156099501Y-68552116D01*
X156099500Y-68552135D01*
X153865500Y-68552135D01*
X153865500Y-66841835D01*
X153885185Y-66774796D01*
X153933206Y-66731350D01*
X153933547Y-66731175D01*
X153999022Y-66697815D01*
X154177365Y-66568242D01*
X154333242Y-66412365D01*
X154462815Y-66234022D01*
X154562895Y-66037606D01*
X154631015Y-65827951D01*
X154665500Y-65610222D01*
X154665500Y-65389778D01*
X154631015Y-65172049D01*
X154562895Y-64962394D01*
X154562895Y-64962393D01*
X154513723Y-64865890D01*
X154462815Y-64765978D01*
X154404501Y-64685715D01*
X154333247Y-64587641D01*
X154333243Y-64587636D01*
X154177363Y-64431756D01*
X154177358Y-64431752D01*
X153999025Y-64302187D01*
X153999024Y-64302186D01*
X153999022Y-64302185D01*
X153881791Y-64242452D01*
X153802606Y-64202104D01*
X153802603Y-64202103D01*
X153592952Y-64133985D01*
X153484086Y-64116742D01*
X153375222Y-64099500D01*
X153154778Y-64099500D01*
X153082201Y-64110995D01*
X152937047Y-64133985D01*
X152727396Y-64202103D01*
X152727393Y-64202104D01*
X152530974Y-64302187D01*
X152352641Y-64431752D01*
X152352636Y-64431756D01*
X152302463Y-64481929D01*
X152241140Y-64515413D01*
X152171448Y-64510428D01*
X152115515Y-64468557D01*
X152098601Y-64437580D01*
X152068797Y-64357671D01*
X152068793Y-64357664D01*
X151982547Y-64242455D01*
X151982544Y-64242452D01*
X151867335Y-64156206D01*
X151867328Y-64156202D01*
X151732482Y-64105908D01*
X151732483Y-64105908D01*
X151672883Y-64099501D01*
X151672881Y-64099500D01*
X151672873Y-64099500D01*
X151672864Y-64099500D01*
X149777129Y-64099500D01*
X149777123Y-64099501D01*
X149717516Y-64105908D01*
X149582671Y-64156202D01*
X149582664Y-64156206D01*
X149467455Y-64242452D01*
X149467452Y-64242455D01*
X149381206Y-64357664D01*
X149381202Y-64357671D01*
X149330908Y-64492517D01*
X149324501Y-64552116D01*
X149324500Y-64552135D01*
X149324500Y-66447870D01*
X149324501Y-66447876D01*
X149330908Y-66507483D01*
X149381202Y-66642328D01*
X149381206Y-66642335D01*
X149467452Y-66757544D01*
X149467455Y-66757547D01*
X149582664Y-66843793D01*
X149582671Y-66843797D01*
X149717517Y-66894091D01*
X149717516Y-66894091D01*
X149724444Y-66894835D01*
X149777127Y-66900500D01*
X151672872Y-66900499D01*
X151732483Y-66894091D01*
X151867331Y-66843796D01*
X151982546Y-66757546D01*
X152068796Y-66642331D01*
X152084771Y-66599500D01*
X152098601Y-66562420D01*
X152140471Y-66506486D01*
X152205936Y-66482068D01*
X152274209Y-66496919D01*
X152302464Y-66518071D01*
X152352636Y-66568243D01*
X152352641Y-66568247D01*
X152530976Y-66697814D01*
X152596794Y-66731350D01*
X152647591Y-66779324D01*
X152664500Y-66841835D01*
X152664500Y-72868330D01*
X152664499Y-72868348D01*
X152664499Y-73034054D01*
X152664498Y-73034054D01*
X152705423Y-73186785D01*
X152732694Y-73234018D01*
X152732695Y-73234022D01*
X152732696Y-73234022D01*
X152784479Y-73323714D01*
X152784481Y-73323717D01*
X152903349Y-73442585D01*
X152903355Y-73442590D01*
X155015922Y-75555157D01*
X155049407Y-75616480D01*
X155046173Y-75681155D01*
X155041523Y-75695466D01*
X155009500Y-75897648D01*
X155009500Y-76102351D01*
X155041523Y-76304535D01*
X155041523Y-76304538D01*
X155104642Y-76498795D01*
X155106637Y-76568636D01*
X155070557Y-76628469D01*
X155007856Y-76659297D01*
X154938442Y-76651332D01*
X154899030Y-76624794D01*
X153912591Y-75638355D01*
X153912589Y-75638352D01*
X153793718Y-75519481D01*
X153793717Y-75519480D01*
X153700899Y-75465892D01*
X153656786Y-75440423D01*
X153504058Y-75399499D01*
X153345944Y-75399499D01*
X153338348Y-75399499D01*
X153338332Y-75399500D01*
X149919602Y-75399500D01*
X149852563Y-75379815D01*
X149809117Y-75331795D01*
X149802284Y-75318385D01*
X149681971Y-75152786D01*
X149537213Y-75008028D01*
X149371612Y-74887714D01*
X149189223Y-74794781D01*
X148994534Y-74731522D01*
X148819995Y-74703878D01*
X148792352Y-74699500D01*
X148587648Y-74699500D01*
X148563329Y-74703351D01*
X148385465Y-74731522D01*
X148190776Y-74794781D01*
X148008388Y-74887714D01*
X147842786Y-75008028D01*
X147698028Y-75152786D01*
X147577715Y-75318386D01*
X147484781Y-75500776D01*
X147421524Y-75695462D01*
X147421523Y-75695464D01*
X147389500Y-75897648D01*
X147389500Y-76102351D01*
X147421522Y-76304534D01*
X147426173Y-76318848D01*
X147428165Y-76388690D01*
X147395921Y-76444842D01*
X141349381Y-82491382D01*
X141349374Y-82491389D01*
X141346287Y-82494477D01*
X141346285Y-82494479D01*
X141234481Y-82606283D01*
X141210272Y-82648215D01*
X141204330Y-82658506D01*
X141204328Y-82658509D01*
X141155425Y-82743212D01*
X141155424Y-82743214D01*
X141114500Y-82895942D01*
X141114500Y-82895944D01*
X141114500Y-83064045D01*
X141114501Y-83064058D01*
X141114501Y-85839261D01*
X141094816Y-85906300D01*
X141042012Y-85952055D01*
X141003755Y-85962551D01*
X140972517Y-85965909D01*
X140837672Y-86016202D01*
X140837665Y-86016206D01*
X140722456Y-86102452D01*
X140722453Y-86102455D01*
X140636207Y-86217664D01*
X140636203Y-86217671D01*
X140585909Y-86352517D01*
X140585378Y-86357461D01*
X140579502Y-86412123D01*
X140579501Y-86412135D01*
X140579501Y-88275500D01*
X140559816Y-88342539D01*
X140507012Y-88388294D01*
X140455501Y-88399500D01*
X139396669Y-88399500D01*
X139396653Y-88399499D01*
X139389057Y-88399499D01*
X139230943Y-88399499D01*
X139123587Y-88428265D01*
X139078210Y-88440424D01*
X139078209Y-88440425D01*
X139029327Y-88468647D01*
X139029272Y-88468680D01*
X139028095Y-88469360D01*
X138941284Y-88519480D01*
X138934323Y-88526440D01*
X138921604Y-88534178D01*
X138901633Y-88539510D01*
X138883490Y-88549412D01*
X138867541Y-88548612D01*
X138854099Y-88552202D01*
X138838340Y-88547149D01*
X138818845Y-88546172D01*
X138804535Y-88541523D01*
X138697057Y-88524500D01*
X138602352Y-88509500D01*
X138397648Y-88509500D01*
X138373329Y-88513351D01*
X138195465Y-88541522D01*
X138000776Y-88604781D01*
X137818386Y-88697715D01*
X137652786Y-88818028D01*
X137508028Y-88962786D01*
X137387715Y-89128385D01*
X137380883Y-89141795D01*
X137332909Y-89192591D01*
X137270398Y-89209500D01*
X136229602Y-89209500D01*
X136162563Y-89189815D01*
X136119117Y-89141795D01*
X136112284Y-89128385D01*
X135991971Y-88962786D01*
X135847213Y-88818028D01*
X135681613Y-88697715D01*
X135681612Y-88697714D01*
X135681610Y-88697713D01*
X135624653Y-88668691D01*
X135499223Y-88604781D01*
X135304534Y-88541522D01*
X135129995Y-88513878D01*
X135102352Y-88509500D01*
X134897648Y-88509500D01*
X134873329Y-88513351D01*
X134695465Y-88541522D01*
X134500776Y-88604781D01*
X134318386Y-88697715D01*
X134152786Y-88818028D01*
X134008028Y-88962786D01*
X133887715Y-89128386D01*
X133794781Y-89310776D01*
X133731522Y-89505465D01*
X133699500Y-89707648D01*
X133699500Y-89912351D01*
X133731522Y-90114534D01*
X133794781Y-90309223D01*
X133887715Y-90491613D01*
X134008028Y-90657213D01*
X134152786Y-90801971D01*
X134307749Y-90914556D01*
X134318390Y-90922287D01*
X134434607Y-90981503D01*
X134500776Y-91015218D01*
X134500778Y-91015218D01*
X134500781Y-91015220D01*
X134605137Y-91049127D01*
X134695465Y-91078477D01*
X134796557Y-91094488D01*
X134897648Y-91110500D01*
X134897649Y-91110500D01*
X135102351Y-91110500D01*
X135102352Y-91110500D01*
X135304534Y-91078477D01*
X135499219Y-91015220D01*
X135681610Y-90922287D01*
X135774590Y-90854732D01*
X135847213Y-90801971D01*
X135847215Y-90801968D01*
X135847219Y-90801966D01*
X135991966Y-90657219D01*
X135991968Y-90657215D01*
X135991971Y-90657213D01*
X136112284Y-90491614D01*
X136112285Y-90491613D01*
X136112287Y-90491610D01*
X136119117Y-90478204D01*
X136167091Y-90427409D01*
X136229602Y-90410500D01*
X137270398Y-90410500D01*
X137337437Y-90430185D01*
X137380883Y-90478205D01*
X137387715Y-90491614D01*
X137508028Y-90657213D01*
X137652786Y-90801971D01*
X137807749Y-90914556D01*
X137818390Y-90922287D01*
X137934607Y-90981503D01*
X138000776Y-91015218D01*
X138000778Y-91015218D01*
X138000781Y-91015220D01*
X138105137Y-91049127D01*
X138195465Y-91078477D01*
X138296557Y-91094488D01*
X138397648Y-91110500D01*
X138397649Y-91110500D01*
X138602351Y-91110500D01*
X138602352Y-91110500D01*
X138804534Y-91078477D01*
X138999219Y-91015220D01*
X139181610Y-90922287D01*
X139274590Y-90854732D01*
X139347213Y-90801971D01*
X139347215Y-90801968D01*
X139347219Y-90801966D01*
X139491966Y-90657219D01*
X139491968Y-90657215D01*
X139491971Y-90657213D01*
X139582916Y-90532036D01*
X139612287Y-90491610D01*
X139705220Y-90309219D01*
X139768477Y-90114534D01*
X139800500Y-89912352D01*
X139800500Y-89724500D01*
X139820185Y-89657461D01*
X139872989Y-89611706D01*
X139924500Y-89600500D01*
X140455502Y-89600500D01*
X140522541Y-89620185D01*
X140568296Y-89672989D01*
X140579502Y-89724500D01*
X140579502Y-91587876D01*
X140585909Y-91647483D01*
X140636203Y-91782328D01*
X140636207Y-91782335D01*
X140722453Y-91897544D01*
X140722456Y-91897547D01*
X140837665Y-91983793D01*
X140837672Y-91983797D01*
X140972517Y-92034091D01*
X140998420Y-92036875D01*
X141032128Y-92040500D01*
X141080203Y-92040499D01*
X141147240Y-92060182D01*
X141187590Y-92102500D01*
X141234476Y-92183710D01*
X141234482Y-92183718D01*
X141353350Y-92302586D01*
X141353356Y-92302591D01*
X143164181Y-94113416D01*
X143197666Y-94174739D01*
X143200500Y-94201097D01*
X143200500Y-102075500D01*
X143180815Y-102142539D01*
X143128011Y-102188294D01*
X143076500Y-102199500D01*
X141624500Y-102199500D01*
X141557461Y-102179815D01*
X141511706Y-102127011D01*
X141500500Y-102075500D01*
X141500500Y-100534110D01*
X141500500Y-100534108D01*
X141466392Y-100406814D01*
X141400500Y-100292686D01*
X141307314Y-100199500D01*
X141250250Y-100166554D01*
X141193187Y-100133608D01*
X141129539Y-100116554D01*
X141065892Y-100099500D01*
X141065891Y-100099500D01*
X139724500Y-100099500D01*
X139657461Y-100079815D01*
X139611706Y-100027011D01*
X139600500Y-99975500D01*
X139600500Y-96334110D01*
X139600500Y-96334108D01*
X139566392Y-96206814D01*
X139500500Y-96092686D01*
X139407314Y-95999500D01*
X139350250Y-95966554D01*
X139293187Y-95933608D01*
X139229539Y-95916554D01*
X139165892Y-95899500D01*
X137065892Y-95899500D01*
X136934108Y-95899500D01*
X136806812Y-95933608D01*
X136692686Y-95999500D01*
X136692683Y-95999502D01*
X136599502Y-96092683D01*
X136599500Y-96092686D01*
X136533608Y-96206812D01*
X136499500Y-96334108D01*
X136499500Y-97875500D01*
X136479815Y-97942539D01*
X136427011Y-97988294D01*
X136375500Y-97999500D01*
X135524500Y-97999500D01*
X135457461Y-97979815D01*
X135411706Y-97927011D01*
X135400500Y-97875500D01*
X135400500Y-96334110D01*
X135400500Y-96334108D01*
X135366392Y-96206814D01*
X135300500Y-96092686D01*
X135207314Y-95999500D01*
X135150250Y-95966554D01*
X135093187Y-95933608D01*
X135029539Y-95916554D01*
X134965892Y-95899500D01*
X134965891Y-95899500D01*
X131224500Y-95899500D01*
X131157461Y-95879815D01*
X131111706Y-95827011D01*
X131100500Y-95775500D01*
X131100500Y-94234110D01*
X131100500Y-94234108D01*
X131066392Y-94106814D01*
X131000500Y-93992686D01*
X130907314Y-93899500D01*
X130850250Y-93866554D01*
X130793187Y-93833608D01*
X130729539Y-93816554D01*
X130665892Y-93799500D01*
X130665891Y-93799500D01*
X129124500Y-93799500D01*
X129057461Y-93779815D01*
X129011706Y-93727011D01*
X129000500Y-93675500D01*
X129000500Y-92824500D01*
X129020185Y-92757461D01*
X129072989Y-92711706D01*
X129124500Y-92700500D01*
X130665890Y-92700500D01*
X130665892Y-92700500D01*
X130793186Y-92666392D01*
X130907314Y-92600500D01*
X131000500Y-92507314D01*
X131066392Y-92393186D01*
X131100500Y-92265892D01*
X131100500Y-89934108D01*
X131066392Y-89806814D01*
X131000500Y-89692686D01*
X130907314Y-89599500D01*
X130850250Y-89566554D01*
X130793187Y-89533608D01*
X130729539Y-89516554D01*
X130665892Y-89499500D01*
X130665891Y-89499500D01*
X129124500Y-89499500D01*
X129057461Y-89479815D01*
X129011706Y-89427011D01*
X129000500Y-89375500D01*
X129000500Y-88524500D01*
X129020185Y-88457461D01*
X129072989Y-88411706D01*
X129124500Y-88400500D01*
X130665890Y-88400500D01*
X130665892Y-88400500D01*
X130793186Y-88366392D01*
X130907314Y-88300500D01*
X131000500Y-88207314D01*
X131066392Y-88093186D01*
X131100500Y-87965892D01*
X131100500Y-86424500D01*
X131120185Y-86357461D01*
X131172989Y-86311706D01*
X131224500Y-86300500D01*
X132865890Y-86300500D01*
X132865892Y-86300500D01*
X132993186Y-86266392D01*
X133107314Y-86200500D01*
X133200500Y-86107314D01*
X133266392Y-85993186D01*
X133300500Y-85865892D01*
X133300500Y-80224500D01*
X133320185Y-80157461D01*
X133372989Y-80111706D01*
X133424500Y-80100500D01*
X134965890Y-80100500D01*
X134965892Y-80100500D01*
X135093186Y-80066392D01*
X135207314Y-80000500D01*
X135300500Y-79907314D01*
X135366392Y-79793186D01*
X135400500Y-79665892D01*
X135400500Y-73644048D01*
X135420185Y-73577009D01*
X135472989Y-73531254D01*
X135542147Y-73521310D01*
X135605703Y-73550335D01*
X135640682Y-73600715D01*
X135656202Y-73642328D01*
X135656206Y-73642335D01*
X135742452Y-73757544D01*
X135742455Y-73757547D01*
X135857664Y-73843793D01*
X135857671Y-73843797D01*
X135992517Y-73894091D01*
X135992516Y-73894091D01*
X135999444Y-73894835D01*
X136052127Y-73900500D01*
X137947872Y-73900499D01*
X138007483Y-73894091D01*
X138142331Y-73843796D01*
X138257546Y-73757546D01*
X138343796Y-73642331D01*
X138343798Y-73642326D01*
X138373601Y-73562420D01*
X138415471Y-73506486D01*
X138480936Y-73482068D01*
X138549209Y-73496919D01*
X138577464Y-73518071D01*
X138627636Y-73568243D01*
X138627641Y-73568247D01*
X138805976Y-73697814D01*
X138871794Y-73731350D01*
X138922591Y-73779324D01*
X138939500Y-73841835D01*
X138939500Y-77349902D01*
X138919815Y-77416941D01*
X138903181Y-77437583D01*
X135444842Y-80895921D01*
X135383519Y-80929406D01*
X135318848Y-80926173D01*
X135304534Y-80921522D01*
X135129995Y-80893878D01*
X135102352Y-80889500D01*
X134897648Y-80889500D01*
X134873329Y-80893351D01*
X134695465Y-80921522D01*
X134500776Y-80984781D01*
X134318386Y-81077715D01*
X134152786Y-81198028D01*
X134008028Y-81342786D01*
X133887715Y-81508386D01*
X133794781Y-81690776D01*
X133731522Y-81885465D01*
X133699500Y-82087648D01*
X133699500Y-82292351D01*
X133731522Y-82494534D01*
X133794781Y-82689223D01*
X133887715Y-82871613D01*
X134008028Y-83037213D01*
X134152786Y-83181971D01*
X134280963Y-83275095D01*
X134318390Y-83302287D01*
X134434607Y-83361503D01*
X134500776Y-83395218D01*
X134500778Y-83395218D01*
X134500781Y-83395220D01*
X134605137Y-83429127D01*
X134695465Y-83458477D01*
X134796557Y-83474488D01*
X134897648Y-83490500D01*
X134897649Y-83490500D01*
X135102351Y-83490500D01*
X135102352Y-83490500D01*
X135304534Y-83458477D01*
X135499219Y-83395220D01*
X135681610Y-83302287D01*
X135811309Y-83208056D01*
X135847213Y-83181971D01*
X135847215Y-83181968D01*
X135847219Y-83181966D01*
X135991966Y-83037219D01*
X135991968Y-83037215D01*
X135991971Y-83037213D01*
X136094607Y-82895944D01*
X136112287Y-82871610D01*
X136205220Y-82689219D01*
X136268477Y-82494534D01*
X136300500Y-82292352D01*
X136300500Y-82087648D01*
X137199500Y-82087648D01*
X137199500Y-82292351D01*
X137231522Y-82494534D01*
X137294781Y-82689223D01*
X137387715Y-82871613D01*
X137508028Y-83037213D01*
X137652786Y-83181971D01*
X137780963Y-83275095D01*
X137818390Y-83302287D01*
X137934607Y-83361503D01*
X138000776Y-83395218D01*
X138000778Y-83395218D01*
X138000781Y-83395220D01*
X138105137Y-83429127D01*
X138195465Y-83458477D01*
X138296557Y-83474488D01*
X138397648Y-83490500D01*
X138397649Y-83490500D01*
X138602351Y-83490500D01*
X138602352Y-83490500D01*
X138804534Y-83458477D01*
X138999219Y-83395220D01*
X139181610Y-83302287D01*
X139311309Y-83208056D01*
X139347213Y-83181971D01*
X139347215Y-83181968D01*
X139347219Y-83181966D01*
X139491966Y-83037219D01*
X139491968Y-83037215D01*
X139491971Y-83037213D01*
X139594607Y-82895944D01*
X139612287Y-82871610D01*
X139705220Y-82689219D01*
X139768477Y-82494534D01*
X139800500Y-82292352D01*
X139800500Y-82087648D01*
X139768477Y-81885466D01*
X139763825Y-81871151D01*
X139761832Y-81801312D01*
X139794075Y-81745158D01*
X146398506Y-75140728D01*
X146398511Y-75140724D01*
X146408714Y-75130520D01*
X146408716Y-75130520D01*
X146520520Y-75018716D01*
X146589349Y-74899500D01*
X146596154Y-74887714D01*
X146596156Y-74887709D01*
X146599577Y-74881785D01*
X146640500Y-74729058D01*
X146640500Y-74570943D01*
X146640500Y-69341835D01*
X146660185Y-69274796D01*
X146708206Y-69231350D01*
X146708547Y-69231175D01*
X146774022Y-69197815D01*
X146952365Y-69068242D01*
X147108242Y-68912365D01*
X147237815Y-68734022D01*
X147337895Y-68537606D01*
X147406015Y-68327951D01*
X147440500Y-68110222D01*
X147440500Y-67889778D01*
X147406015Y-67672049D01*
X147358074Y-67524500D01*
X147337896Y-67462396D01*
X147337895Y-67462393D01*
X147288979Y-67366392D01*
X147237815Y-67265978D01*
X147195195Y-67207316D01*
X147108247Y-67087641D01*
X147108243Y-67087636D01*
X146952363Y-66931756D01*
X146952358Y-66931752D01*
X146774025Y-66802187D01*
X146774024Y-66802186D01*
X146774022Y-66802185D01*
X146656791Y-66742452D01*
X146577606Y-66702104D01*
X146577603Y-66702103D01*
X146367952Y-66633985D01*
X146259086Y-66616742D01*
X146150222Y-66599500D01*
X145929778Y-66599500D01*
X145857201Y-66610995D01*
X145712047Y-66633985D01*
X145502396Y-66702103D01*
X145502393Y-66702104D01*
X145305974Y-66802187D01*
X145127641Y-66931752D01*
X145127636Y-66931756D01*
X145077463Y-66981929D01*
X145016140Y-67015413D01*
X144946448Y-67010428D01*
X144890515Y-66968557D01*
X144873601Y-66937580D01*
X144843797Y-66857671D01*
X144843793Y-66857664D01*
X144757547Y-66742455D01*
X144757544Y-66742452D01*
X144642335Y-66656206D01*
X144642328Y-66656202D01*
X144507482Y-66605908D01*
X144507483Y-66605908D01*
X144447883Y-66599501D01*
X144447881Y-66599500D01*
X144447873Y-66599500D01*
X144447864Y-66599500D01*
X142552129Y-66599500D01*
X142552123Y-66599501D01*
X142492516Y-66605908D01*
X142357671Y-66656202D01*
X142357664Y-66656206D01*
X142242455Y-66742452D01*
X142242452Y-66742455D01*
X142156206Y-66857664D01*
X142156202Y-66857671D01*
X142105908Y-66992517D01*
X142099501Y-67052116D01*
X142099500Y-67052135D01*
X142099500Y-68947870D01*
X142099501Y-68947876D01*
X142105908Y-69007483D01*
X142156202Y-69142328D01*
X142156206Y-69142335D01*
X142242452Y-69257544D01*
X142242455Y-69257547D01*
X142357664Y-69343793D01*
X142357671Y-69343797D01*
X142492517Y-69394091D01*
X142492516Y-69394091D01*
X142499444Y-69394835D01*
X142552127Y-69400500D01*
X144447872Y-69400499D01*
X144507483Y-69394091D01*
X144642331Y-69343796D01*
X144757546Y-69257546D01*
X144843796Y-69142331D01*
X144871429Y-69068243D01*
X144873601Y-69062420D01*
X144915471Y-69006486D01*
X144980936Y-68982068D01*
X145049209Y-68996919D01*
X145077464Y-69018071D01*
X145127636Y-69068243D01*
X145127641Y-69068247D01*
X145305976Y-69197814D01*
X145371794Y-69231350D01*
X145422591Y-69279324D01*
X145439500Y-69341835D01*
X145439500Y-74349902D01*
X145419815Y-74416941D01*
X145403181Y-74437583D01*
X138944842Y-80895921D01*
X138883519Y-80929406D01*
X138818848Y-80926173D01*
X138804534Y-80921522D01*
X138629995Y-80893878D01*
X138602352Y-80889500D01*
X138397648Y-80889500D01*
X138373329Y-80893351D01*
X138195465Y-80921522D01*
X138000776Y-80984781D01*
X137818386Y-81077715D01*
X137652786Y-81198028D01*
X137508028Y-81342786D01*
X137387715Y-81508386D01*
X137294781Y-81690776D01*
X137231522Y-81885465D01*
X137199500Y-82087648D01*
X136300500Y-82087648D01*
X136268477Y-81885466D01*
X136263825Y-81871151D01*
X136261832Y-81801312D01*
X136294075Y-81745158D01*
X140020520Y-78018716D01*
X140099577Y-77881784D01*
X140140501Y-77729057D01*
X140140501Y-77570942D01*
X140140501Y-77563347D01*
X140140500Y-77563329D01*
X140140500Y-73841835D01*
X140160185Y-73774796D01*
X140208206Y-73731350D01*
X140225559Y-73722508D01*
X140274022Y-73697815D01*
X140452365Y-73568242D01*
X140608242Y-73412365D01*
X140737815Y-73234022D01*
X140837895Y-73037606D01*
X140906015Y-72827951D01*
X140940500Y-72610222D01*
X140940500Y-72389778D01*
X140906015Y-72172049D01*
X140853502Y-72010428D01*
X140837896Y-71962396D01*
X140837895Y-71962393D01*
X140784532Y-71857664D01*
X140737815Y-71765978D01*
X140691408Y-71702104D01*
X140608247Y-71587641D01*
X140608243Y-71587636D01*
X140452363Y-71431756D01*
X140452358Y-71431752D01*
X140274025Y-71302187D01*
X140274024Y-71302186D01*
X140274022Y-71302185D01*
X140156791Y-71242452D01*
X140077606Y-71202104D01*
X140077603Y-71202103D01*
X139867952Y-71133985D01*
X139759086Y-71116742D01*
X139650222Y-71099500D01*
X139429778Y-71099500D01*
X139357201Y-71110995D01*
X139212047Y-71133985D01*
X139002396Y-71202103D01*
X139002393Y-71202104D01*
X138805974Y-71302187D01*
X138627641Y-71431752D01*
X138627636Y-71431756D01*
X138577463Y-71481929D01*
X138516140Y-71515413D01*
X138446448Y-71510428D01*
X138390515Y-71468557D01*
X138373601Y-71437580D01*
X138343797Y-71357671D01*
X138343793Y-71357664D01*
X138257547Y-71242455D01*
X138257544Y-71242452D01*
X138142335Y-71156206D01*
X138142328Y-71156202D01*
X138007482Y-71105908D01*
X138007483Y-71105908D01*
X137947883Y-71099501D01*
X137947881Y-71099500D01*
X137947873Y-71099500D01*
X137947864Y-71099500D01*
X136052129Y-71099500D01*
X136052123Y-71099501D01*
X135992516Y-71105908D01*
X135857671Y-71156202D01*
X135857664Y-71156206D01*
X135742455Y-71242452D01*
X135742452Y-71242455D01*
X135656206Y-71357664D01*
X135656202Y-71357671D01*
X135605908Y-71492517D01*
X135599501Y-71552116D01*
X135599500Y-71552135D01*
X135599500Y-73047795D01*
X135579815Y-73114834D01*
X135527011Y-73160589D01*
X135457853Y-73170533D01*
X135394297Y-73141508D01*
X135368113Y-73109795D01*
X135332317Y-73047795D01*
X135300500Y-72992686D01*
X135207314Y-72899500D01*
X135148237Y-72865392D01*
X135093187Y-72833608D01*
X135029539Y-72816554D01*
X134965892Y-72799500D01*
X134965891Y-72799500D01*
X133424500Y-72799500D01*
X133357461Y-72779815D01*
X133311706Y-72727011D01*
X133300500Y-72675500D01*
X133300500Y-71134110D01*
X133300500Y-71134108D01*
X133266392Y-71006814D01*
X133200500Y-70892686D01*
X133107314Y-70799500D01*
X133049027Y-70765848D01*
X132993187Y-70733608D01*
X132929539Y-70716554D01*
X132865892Y-70699500D01*
X132865891Y-70699500D01*
X131324500Y-70699500D01*
X131257461Y-70679815D01*
X131211706Y-70627011D01*
X131200500Y-70575500D01*
X131200500Y-69624500D01*
X131220185Y-69557461D01*
X131272989Y-69511706D01*
X131324500Y-69500500D01*
X137065890Y-69500500D01*
X137065892Y-69500500D01*
X137193186Y-69466392D01*
X137307314Y-69400500D01*
X137400500Y-69307314D01*
X137466392Y-69193186D01*
X137500500Y-69065892D01*
X137500500Y-67524500D01*
X137520185Y-67457461D01*
X137572989Y-67411706D01*
X137624500Y-67400500D01*
X139165890Y-67400500D01*
X139165892Y-67400500D01*
X139293186Y-67366392D01*
X139407314Y-67300500D01*
X139500500Y-67207314D01*
X139566392Y-67093186D01*
X139600500Y-66965892D01*
X139600500Y-63324500D01*
X139620185Y-63257461D01*
X139672989Y-63211706D01*
X139724500Y-63200500D01*
X142575500Y-63200500D01*
X142642539Y-63220185D01*
X142688294Y-63272989D01*
X142699500Y-63324500D01*
X142699500Y-64865891D01*
X142733608Y-64993187D01*
X142766554Y-65050250D01*
X142799500Y-65107314D01*
X142892686Y-65200500D01*
X143006814Y-65266392D01*
X143134108Y-65300500D01*
X143134110Y-65300500D01*
X145365890Y-65300500D01*
X145365892Y-65300500D01*
X145493186Y-65266392D01*
X145607314Y-65200500D01*
X145700500Y-65107314D01*
X145766392Y-64993186D01*
X145800500Y-64865892D01*
X145800500Y-59224500D01*
X145820185Y-59157461D01*
X145872989Y-59111706D01*
X145924500Y-59100500D01*
X147465890Y-59100500D01*
X147465892Y-59100500D01*
X147593186Y-59066392D01*
X147707314Y-59000500D01*
X147800500Y-58907314D01*
X147866392Y-58793186D01*
X147900500Y-58665892D01*
X147900500Y-55024500D01*
X147920185Y-54957461D01*
X147972989Y-54911706D01*
X148024500Y-54900500D01*
X149565890Y-54900500D01*
X149565892Y-54900500D01*
X149693186Y-54866392D01*
X149807314Y-54800500D01*
X149900500Y-54707314D01*
X149966392Y-54593186D01*
X150000500Y-54465892D01*
X150000500Y-52924500D01*
X150020185Y-52857461D01*
X150072989Y-52811706D01*
X150124500Y-52800500D01*
X151075500Y-52800500D01*
X151142539Y-52820185D01*
G37*
G04 #@! TD.AperFunction*
G04 #@! TD*
M02*
